<?xml version="1.0" encoding="UTF-8" standalone="no"?>
<!DOCTYPE svg PUBLIC "-//W3C//DTD SVG 1.1//EN"
 "http://www.w3.org/Graphics/SVG/1.1/DTD/svg11.dtd">
<!-- Generated by graphviz version 14.1.2 (20260124.0452)
 -->
<!-- Title: G Pages: 1 -->
<svg width="2983pt" height="1448pt"
 viewBox="0.00 0.00 2983.00 1448.00" xmlns="http://www.w3.org/2000/svg" xmlns:xlink="http://www.w3.org/1999/xlink">
<g id="graph0" class="graph" transform="scale(4.16667 4.16667) rotate(0) translate(4 343.56)">
<title>G</title>
<polygon fill="white" stroke="none" points="-4,4 -4,-343.56 711.85,-343.56 711.85,4 -4,4"/>
<!-- 4513265088 -->
<g id="node1" class="node">
<title>4513265088</title>
<path fill="white" stroke="#1f77b4" stroke-width="2.5" d="M416.85,-339.56C416.85,-339.56 291,-339.56 291,-339.56 285,-339.56 279,-333.56 279,-327.56 279,-327.56 279,-272.54 279,-272.54 279,-266.54 285,-260.54 291,-260.54 291,-260.54 416.85,-260.54 416.85,-260.54 422.85,-260.54 428.85,-266.54 428.85,-272.54 428.85,-272.54 428.85,-327.56 428.85,-327.56 428.85,-333.56 422.85,-339.56 416.85,-339.56"/>
<text xml:space="preserve" text-anchor="start" x="343.8" y="-324.35" font-family="Courier,monospace" font-weight="bold" font-size="11.00">Sum</text>
<text xml:space="preserve" text-anchor="start" x="289.8" y="-309.85" font-family="Courier,monospace" font-size="11.00"> &#160;&#160;Out: D=1 C=1 R=1</text>
<text xml:space="preserve" text-anchor="start" x="289.8" y="-296.35" font-family="Courier,monospace" font-size="11.00"> &#160;&#160;&#160;In: D=1 C=2 R=1</text>
<text xml:space="preserve" text-anchor="start" x="289.8" y="-282.85" font-family="Courier,monospace" font-size="11.00"> Scope: 0, 1</text>
<text xml:space="preserve" text-anchor="start" x="289.8" y="-269.35" font-family="Courier,monospace" font-size="11.00">Params: 2</text>
</g>
<!-- 4507975168 -->
<g id="node2" class="node">
<title>4507975168</title>
<path fill="white" stroke="#ff7f0e" stroke-width="2.5" d="M320.48,-202.54C320.48,-202.54 201.38,-202.54 201.38,-202.54 195.38,-202.54 189.38,-196.54 189.38,-190.54 189.38,-190.54 189.38,-149.02 189.38,-149.02 189.38,-143.02 195.38,-137.02 201.38,-137.02 201.38,-137.02 320.48,-137.02 320.48,-137.02 326.48,-137.02 332.48,-143.02 332.48,-149.02 332.48,-149.02 332.48,-190.54 332.48,-190.54 332.48,-196.54 326.48,-202.54 320.48,-202.54"/>
<text xml:space="preserve" text-anchor="start" x="237.3" y="-187.33" font-family="Courier,monospace" font-weight="bold" font-size="11.00">Product</text>
<text xml:space="preserve" text-anchor="start" x="200.18" y="-172.83" font-family="Courier,monospace" font-size="11.00"> &#160;Out: D=1 C=1 R=1</text>
<text xml:space="preserve" text-anchor="start" x="200.18" y="-159.33" font-family="Courier,monospace" font-size="11.00"> &#160;&#160;In: D=2 C=1 R=1</text>
<text xml:space="preserve" text-anchor="start" x="200.18" y="-145.83" font-family="Courier,monospace" font-size="11.00">Scope: 0, 1</text>
</g>
<!-- 4507975168&#45;&gt;4513265088 -->
<g id="edge3" class="edge">
<title>4507975168&#45;&gt;4513265088</title>
<path fill="none" stroke="#333333" stroke-width="2" d="M284.63,-203.48C295.08,-217.88 307.56,-235.1 319.03,-250.92"/>
<polygon fill="#333333" stroke="#333333" stroke-width="2" points="316.54,-252.26 323.51,-257.1 321.08,-248.98 316.54,-252.26"/>
</g>
<!-- 4513117872 -->
<g id="node3" class="node">
<title>4513117872</title>
<path fill="white" stroke="#2ca02c" stroke-width="2.5" d="M137.85,-79.02C137.85,-79.02 12,-79.02 12,-79.02 6,-79.02 0,-73.02 0,-67.02 0,-67.02 0,-12 0,-12 0,-6 6,0 12,0 12,0 137.85,0 137.85,0 143.85,0 149.85,-6 149.85,-12 149.85,-12 149.85,-67.02 149.85,-67.02 149.85,-73.02 143.85,-79.02 137.85,-79.02"/>
<text xml:space="preserve" text-anchor="start" x="54.68" y="-63.81" font-family="Courier,monospace" font-weight="bold" font-size="11.00">Normal</text>
<text xml:space="preserve" text-anchor="start" x="10.8" y="-49.31" font-family="Courier,monospace" font-size="11.00"> &#160;&#160;Out: D=1 C=1 R=1</text>
<text xml:space="preserve" text-anchor="start" x="10.8" y="-35.81" font-family="Courier,monospace" font-size="11.00"> &#160;&#160;&#160;In: D=1 C=1 R=1</text>
<text xml:space="preserve" text-anchor="start" x="10.8" y="-22.31" font-family="Courier,monospace" font-size="11.00"> Scope: 0</text>
<text xml:space="preserve" text-anchor="start" x="10.8" y="-8.81" font-family="Courier,monospace" font-size="11.00">Params: 2</text>
</g>
<!-- 4513117872&#45;&gt;4507975168 -->
<g id="edge1" class="edge">
<title>4513117872&#45;&gt;4507975168</title>
<path fill="none" stroke="#333333" stroke-width="2" d="M132.5,-80.22C155.39,-96 181.64,-114.11 204.42,-129.82"/>
<polygon fill="#333333" stroke="#333333" stroke-width="2" points="202.63,-131.98 210.8,-134.22 205.81,-127.37 202.63,-131.98"/>
</g>
<!-- 4504462128 -->
<g id="node4" class="node">
<title>4504462128</title>
<path fill="white" stroke="#2ca02c" stroke-width="2.5" d="M323.85,-79.02C323.85,-79.02 198,-79.02 198,-79.02 192,-79.02 186,-73.02 186,-67.02 186,-67.02 186,-12 186,-12 186,-6 192,0 198,0 198,0 323.85,0 323.85,0 329.85,0 335.85,-6 335.85,-12 335.85,-12 335.85,-67.02 335.85,-67.02 335.85,-73.02 329.85,-79.02 323.85,-79.02"/>
<text xml:space="preserve" text-anchor="start" x="240.68" y="-63.81" font-family="Courier,monospace" font-weight="bold" font-size="11.00">Normal</text>
<text xml:space="preserve" text-anchor="start" x="196.8" y="-49.31" font-family="Courier,monospace" font-size="11.00"> &#160;&#160;Out: D=1 C=1 R=1</text>
<text xml:space="preserve" text-anchor="start" x="196.8" y="-35.81" font-family="Courier,monospace" font-size="11.00"> &#160;&#160;&#160;In: D=1 C=1 R=1</text>
<text xml:space="preserve" text-anchor="start" x="196.8" y="-22.31" font-family="Courier,monospace" font-size="11.00"> Scope: 1</text>
<text xml:space="preserve" text-anchor="start" x="196.8" y="-8.81" font-family="Courier,monospace" font-size="11.00">Params: 2</text>
</g>
<!-- 4504462128&#45;&gt;4507975168 -->
<g id="edge2" class="edge">
<title>4504462128&#45;&gt;4507975168</title>
<path fill="none" stroke="#333333" stroke-width="2" d="M260.93,-80.04C260.93,-94.35 260.93,-110.59 260.93,-125.23"/>
<polygon fill="#333333" stroke="#333333" stroke-width="2" points="258.13,-125.03 260.93,-133.03 263.73,-125.03 258.13,-125.03"/>
</g>
<!-- 4513450320 -->
<g id="node5" class="node">
<title>4513450320</title>
<path fill="white" stroke="#ff7f0e" stroke-width="2.5" d="M506.48,-202.54C506.48,-202.54 387.38,-202.54 387.38,-202.54 381.38,-202.54 375.38,-196.54 375.38,-190.54 375.38,-190.54 375.38,-149.02 375.38,-149.02 375.38,-143.02 381.38,-137.02 387.38,-137.02 387.38,-137.02 506.48,-137.02 506.48,-137.02 512.48,-137.02 518.48,-143.02 518.48,-149.02 518.48,-149.02 518.48,-190.54 518.48,-190.54 518.48,-196.54 512.48,-202.54 506.48,-202.54"/>
<text xml:space="preserve" text-anchor="start" x="423.3" y="-187.33" font-family="Courier,monospace" font-weight="bold" font-size="11.00">Product</text>
<text xml:space="preserve" text-anchor="start" x="386.18" y="-172.83" font-family="Courier,monospace" font-size="11.00"> &#160;Out: D=1 C=1 R=1</text>
<text xml:space="preserve" text-anchor="start" x="386.18" y="-159.33" font-family="Courier,monospace" font-size="11.00"> &#160;&#160;In: D=2 C=1 R=1</text>
<text xml:space="preserve" text-anchor="start" x="386.18" y="-145.83" font-family="Courier,monospace" font-size="11.00">Scope: 0, 1</text>
</g>
<!-- 4513450320&#45;&gt;4513265088 -->
<g id="edge6" class="edge">
<title>4513450320&#45;&gt;4513265088</title>
<path fill="none" stroke="#333333" stroke-width="2" d="M423.22,-203.48C412.77,-217.88 400.29,-235.1 388.82,-250.92"/>
<polygon fill="#333333" stroke="#333333" stroke-width="2" points="386.77,-248.98 384.34,-257.1 391.31,-252.26 386.77,-248.98"/>
</g>
<!-- 4506059072 -->
<g id="node6" class="node">
<title>4506059072</title>
<path fill="white" stroke="#2ca02c" stroke-width="2.5" d="M509.85,-79.02C509.85,-79.02 384,-79.02 384,-79.02 378,-79.02 372,-73.02 372,-67.02 372,-67.02 372,-12 372,-12 372,-6 378,0 384,0 384,0 509.85,0 509.85,0 515.85,0 521.85,-6 521.85,-12 521.85,-12 521.85,-67.02 521.85,-67.02 521.85,-73.02 515.85,-79.02 509.85,-79.02"/>
<text xml:space="preserve" text-anchor="start" x="426.68" y="-63.81" font-family="Courier,monospace" font-weight="bold" font-size="11.00">Normal</text>
<text xml:space="preserve" text-anchor="start" x="382.8" y="-49.31" font-family="Courier,monospace" font-size="11.00"> &#160;&#160;Out: D=1 C=1 R=1</text>
<text xml:space="preserve" text-anchor="start" x="382.8" y="-35.81" font-family="Courier,monospace" font-size="11.00"> &#160;&#160;&#160;In: D=1 C=1 R=1</text>
<text xml:space="preserve" text-anchor="start" x="382.8" y="-22.31" font-family="Courier,monospace" font-size="11.00"> Scope: 0</text>
<text xml:space="preserve" text-anchor="start" x="382.8" y="-8.81" font-family="Courier,monospace" font-size="11.00">Params: 2</text>
</g>
<!-- 4506059072&#45;&gt;4513450320 -->
<g id="edge4" class="edge">
<title>4506059072&#45;&gt;4513450320</title>
<path fill="none" stroke="#333333" stroke-width="2" d="M446.93,-80.04C446.93,-94.35 446.93,-110.59 446.93,-125.23"/>
<polygon fill="#333333" stroke="#333333" stroke-width="2" points="444.13,-125.03 446.93,-133.03 449.73,-125.03 444.13,-125.03"/>
</g>
<!-- 4513449936 -->
<g id="node7" class="node">
<title>4513449936</title>
<path fill="white" stroke="#2ca02c" stroke-width="2.5" d="M695.85,-79.02C695.85,-79.02 570,-79.02 570,-79.02 564,-79.02 558,-73.02 558,-67.02 558,-67.02 558,-12 558,-12 558,-6 564,0 570,0 570,0 695.85,0 695.85,0 701.85,0 707.85,-6 707.85,-12 707.85,-12 707.85,-67.02 707.85,-67.02 707.85,-73.02 701.85,-79.02 695.85,-79.02"/>
<text xml:space="preserve" text-anchor="start" x="612.67" y="-63.81" font-family="Courier,monospace" font-weight="bold" font-size="11.00">Normal</text>
<text xml:space="preserve" text-anchor="start" x="568.8" y="-49.31" font-family="Courier,monospace" font-size="11.00"> &#160;&#160;Out: D=1 C=1 R=1</text>
<text xml:space="preserve" text-anchor="start" x="568.8" y="-35.81" font-family="Courier,monospace" font-size="11.00"> &#160;&#160;&#160;In: D=1 C=1 R=1</text>
<text xml:space="preserve" text-anchor="start" x="568.8" y="-22.31" font-family="Courier,monospace" font-size="11.00"> Scope: 1</text>
<text xml:space="preserve" text-anchor="start" x="568.8" y="-8.81" font-family="Courier,monospace" font-size="11.00">Params: 2</text>
</g>
<!-- 4513449936&#45;&gt;4513450320 -->
<g id="edge5" class="edge">
<title>4513449936&#45;&gt;4513450320</title>
<path fill="none" stroke="#333333" stroke-width="2" d="M575.35,-80.22C552.46,-96 526.21,-114.11 503.43,-129.82"/>
<polygon fill="#333333" stroke="#333333" stroke-width="2" points="502.04,-127.37 497.05,-134.22 505.22,-131.98 502.04,-127.37"/>
</g>
</g>
</svg>
