<?xml version="1.0" encoding="UTF-8" standalone="no"?>
<!DOCTYPE svg PUBLIC "-//W3C//DTD SVG 1.1//EN"
 "http://www.w3.org/Graphics/SVG/1.1/DTD/svg11.dtd">
<!-- Generated by graphviz version 14.1.1 (20251213.1925)
 -->
<!-- Title: G Pages: 1 -->
<svg width="4891pt" height="2534pt"
 viewBox="0.00 0.00 4891.00 2534.00" xmlns="http://www.w3.org/2000/svg" xmlns:xlink="http://www.w3.org/1999/xlink">
<g id="graph0" class="graph" transform="scale(4.16667 4.16667) rotate(0) translate(4 604.1)">
<title>G</title>
<polygon fill="white" stroke="none" points="-4,4 -4,-604.1 1169.85,-604.1 1169.85,4 -4,4"/>
<!-- 4493634512 -->
<g id="node1" class="node">
<title>4493634512</title>
<path fill="white" stroke="#1f77b4" stroke-width="2.5" d="M563.85,-600.1C563.85,-600.1 438,-600.1 438,-600.1 432,-600.1 426,-594.1 426,-588.1 426,-588.1 426,-533.08 426,-533.08 426,-527.08 432,-521.08 438,-521.08 438,-521.08 563.85,-521.08 563.85,-521.08 569.85,-521.08 575.85,-527.08 575.85,-533.08 575.85,-533.08 575.85,-588.1 575.85,-588.1 575.85,-594.1 569.85,-600.1 563.85,-600.1"/>
<text xml:space="preserve" text-anchor="start" x="490.8" y="-584.89" font-family="Courier,monospace" font-weight="bold" font-size="11.00">Sum</text>
<text xml:space="preserve" text-anchor="start" x="436.8" y="-570.39" font-family="Courier,monospace" font-size="11.00"> &#160;&#160;Out: D=1 C=1 R=1</text>
<text xml:space="preserve" text-anchor="start" x="436.8" y="-556.89" font-family="Courier,monospace" font-size="11.00"> &#160;&#160;&#160;In: D=1 C=4 R=1</text>
<text xml:space="preserve" text-anchor="start" x="436.8" y="-543.39" font-family="Courier,monospace" font-size="11.00"> Scope: 0...2</text>
<text xml:space="preserve" text-anchor="start" x="436.8" y="-529.89" font-family="Courier,monospace" font-size="11.00">Params: 4</text>
</g>
<!-- 4492159328 -->
<g id="node2" class="node">
<title>4492159328</title>
<path fill="white" stroke="#ff7f0e" stroke-width="2.5" d="M467.48,-463.08C467.48,-463.08 348.38,-463.08 348.38,-463.08 342.38,-463.08 336.38,-457.08 336.38,-451.08 336.38,-451.08 336.38,-409.56 336.38,-409.56 336.38,-403.56 342.38,-397.56 348.38,-397.56 348.38,-397.56 467.48,-397.56 467.48,-397.56 473.48,-397.56 479.48,-403.56 479.48,-409.56 479.48,-409.56 479.48,-451.08 479.48,-451.08 479.48,-457.08 473.48,-463.08 467.48,-463.08"/>
<text xml:space="preserve" text-anchor="start" x="384.3" y="-447.87" font-family="Courier,monospace" font-weight="bold" font-size="11.00">Product</text>
<text xml:space="preserve" text-anchor="start" x="347.18" y="-433.37" font-family="Courier,monospace" font-size="11.00"> &#160;Out: D=1 C=2 R=1</text>
<text xml:space="preserve" text-anchor="start" x="347.18" y="-419.87" font-family="Courier,monospace" font-size="11.00"> &#160;&#160;In: D=2 C=2 R=1</text>
<text xml:space="preserve" text-anchor="start" x="347.18" y="-406.37" font-family="Courier,monospace" font-size="11.00">Scope: 0...2</text>
</g>
<!-- 4492159328&#45;&gt;4493634512 -->
<g id="edge9" class="edge">
<title>4492159328&#45;&gt;4493634512</title>
<path fill="none" stroke="#333333" stroke-width="2" d="M431.63,-464.02C442.08,-478.42 454.56,-495.64 466.03,-511.46"/>
<polygon fill="#333333" stroke="#333333" stroke-width="2" points="463.54,-512.8 470.51,-517.64 468.08,-509.52 463.54,-512.8"/>
</g>
<!-- 4484369776 -->
<g id="node3" class="node">
<title>4484369776</title>
<path fill="white" stroke="#2ca02c" stroke-width="2.5" d="M284.85,-339.56C284.85,-339.56 159,-339.56 159,-339.56 153,-339.56 147,-333.56 147,-327.56 147,-327.56 147,-272.54 147,-272.54 147,-266.54 153,-260.54 159,-260.54 159,-260.54 284.85,-260.54 284.85,-260.54 290.85,-260.54 296.85,-266.54 296.85,-272.54 296.85,-272.54 296.85,-327.56 296.85,-327.56 296.85,-333.56 290.85,-339.56 284.85,-339.56"/>
<text xml:space="preserve" text-anchor="start" x="184.8" y="-324.35" font-family="Courier,monospace" font-weight="bold" font-size="11.00">Categorical</text>
<text xml:space="preserve" text-anchor="start" x="157.8" y="-309.85" font-family="Courier,monospace" font-size="11.00"> &#160;&#160;Out: D=1 C=2 R=1</text>
<text xml:space="preserve" text-anchor="start" x="157.8" y="-296.35" font-family="Courier,monospace" font-size="11.00"> &#160;&#160;&#160;In: D=1 C=1 R=1</text>
<text xml:space="preserve" text-anchor="start" x="157.8" y="-282.85" font-family="Courier,monospace" font-size="11.00"> Scope: 1</text>
<text xml:space="preserve" text-anchor="start" x="157.8" y="-269.35" font-family="Courier,monospace" font-size="11.00">Params: 6</text>
</g>
<!-- 4484369776&#45;&gt;4492159328 -->
<g id="edge1" class="edge">
<title>4484369776&#45;&gt;4492159328</title>
<path fill="none" stroke="#333333" stroke-width="2" d="M279.5,-340.76C302.39,-356.54 328.64,-374.65 351.42,-390.36"/>
<polygon fill="#333333" stroke="#333333" stroke-width="2" points="349.63,-392.52 357.8,-394.76 352.81,-387.91 349.63,-392.52"/>
</g>
<!-- 4493632304 -->
<g id="node4" class="node">
<title>4493632304</title>
<path fill="white" stroke="#1f77b4" stroke-width="2.5" d="M470.85,-339.56C470.85,-339.56 345,-339.56 345,-339.56 339,-339.56 333,-333.56 333,-327.56 333,-327.56 333,-272.54 333,-272.54 333,-266.54 339,-260.54 345,-260.54 345,-260.54 470.85,-260.54 470.85,-260.54 476.85,-260.54 482.85,-266.54 482.85,-272.54 482.85,-272.54 482.85,-327.56 482.85,-327.56 482.85,-333.56 476.85,-339.56 470.85,-339.56"/>
<text xml:space="preserve" text-anchor="start" x="397.8" y="-324.35" font-family="Courier,monospace" font-weight="bold" font-size="11.00">Sum</text>
<text xml:space="preserve" text-anchor="start" x="343.8" y="-309.85" font-family="Courier,monospace" font-size="11.00"> &#160;&#160;Out: D=1 C=2 R=1</text>
<text xml:space="preserve" text-anchor="start" x="343.8" y="-296.35" font-family="Courier,monospace" font-size="11.00"> &#160;&#160;&#160;In: D=1 C=4 R=1</text>
<text xml:space="preserve" text-anchor="start" x="343.8" y="-282.85" font-family="Courier,monospace" font-size="11.00"> Scope: 0, 2</text>
<text xml:space="preserve" text-anchor="start" x="343.8" y="-269.35" font-family="Courier,monospace" font-size="11.00">Params: 8</text>
</g>
<!-- 4493632304&#45;&gt;4492159328 -->
<g id="edge8" class="edge">
<title>4493632304&#45;&gt;4492159328</title>
<path fill="none" stroke="#333333" stroke-width="2" d="M407.93,-340.58C407.93,-354.89 407.93,-371.13 407.93,-385.77"/>
<polygon fill="#333333" stroke="#333333" stroke-width="2" points="405.13,-385.57 407.93,-393.57 410.73,-385.57 405.13,-385.57"/>
</g>
<!-- 4484717392 -->
<g id="node5" class="node">
<title>4484717392</title>
<path fill="white" stroke="#ff7f0e" stroke-width="2.5" d="M309.48,-202.54C309.48,-202.54 190.38,-202.54 190.38,-202.54 184.38,-202.54 178.38,-196.54 178.38,-190.54 178.38,-190.54 178.38,-149.02 178.38,-149.02 178.38,-143.02 184.38,-137.02 190.38,-137.02 190.38,-137.02 309.48,-137.02 309.48,-137.02 315.48,-137.02 321.48,-143.02 321.48,-149.02 321.48,-149.02 321.48,-190.54 321.48,-190.54 321.48,-196.54 315.48,-202.54 309.48,-202.54"/>
<text xml:space="preserve" text-anchor="start" x="226.3" y="-187.33" font-family="Courier,monospace" font-weight="bold" font-size="11.00">Product</text>
<text xml:space="preserve" text-anchor="start" x="189.18" y="-172.83" font-family="Courier,monospace" font-size="11.00"> &#160;Out: D=1 C=2 R=1</text>
<text xml:space="preserve" text-anchor="start" x="189.18" y="-159.33" font-family="Courier,monospace" font-size="11.00"> &#160;&#160;In: D=2 C=2 R=1</text>
<text xml:space="preserve" text-anchor="start" x="189.18" y="-145.83" font-family="Courier,monospace" font-size="11.00">Scope: 0, 2</text>
</g>
<!-- 4484717392&#45;&gt;4493632304 -->
<g id="edge4" class="edge">
<title>4484717392&#45;&gt;4493632304</title>
<path fill="none" stroke="#333333" stroke-width="2" d="M290.2,-203.48C308.52,-218.35 330.53,-236.22 350.54,-252.46"/>
<polygon fill="#333333" stroke="#333333" stroke-width="2" points="348.65,-254.54 356.63,-257.4 352.18,-250.19 348.65,-254.54"/>
</g>
<!-- 4484859376 -->
<g id="node6" class="node">
<title>4484859376</title>
<path fill="white" stroke="#2ca02c" stroke-width="2.5" d="M137.85,-79.02C137.85,-79.02 12,-79.02 12,-79.02 6,-79.02 0,-73.02 0,-67.02 0,-67.02 0,-12 0,-12 0,-6 6,0 12,0 12,0 137.85,0 137.85,0 143.85,0 149.85,-6 149.85,-12 149.85,-12 149.85,-67.02 149.85,-67.02 149.85,-73.02 143.85,-79.02 137.85,-79.02"/>
<text xml:space="preserve" text-anchor="start" x="54.68" y="-63.81" font-family="Courier,monospace" font-weight="bold" font-size="11.00">Normal</text>
<text xml:space="preserve" text-anchor="start" x="10.8" y="-49.31" font-family="Courier,monospace" font-size="11.00"> &#160;&#160;Out: D=1 C=2 R=1</text>
<text xml:space="preserve" text-anchor="start" x="10.8" y="-35.81" font-family="Courier,monospace" font-size="11.00"> &#160;&#160;&#160;In: D=1 C=1 R=1</text>
<text xml:space="preserve" text-anchor="start" x="10.8" y="-22.31" font-family="Courier,monospace" font-size="11.00"> Scope: 0</text>
<text xml:space="preserve" text-anchor="start" x="10.8" y="-8.81" font-family="Courier,monospace" font-size="11.00">Params: 4</text>
</g>
<!-- 4484859376&#45;&gt;4484717392 -->
<g id="edge2" class="edge">
<title>4484859376&#45;&gt;4484717392</title>
<path fill="none" stroke="#333333" stroke-width="2" d="M128.86,-80.04C150.31,-95.76 174.93,-113.81 196.34,-129.51"/>
<polygon fill="#333333" stroke="#333333" stroke-width="2" points="194.44,-131.59 202.55,-134.06 197.76,-127.07 194.44,-131.59"/>
</g>
<!-- 4486285264 -->
<g id="node7" class="node">
<title>4486285264</title>
<path fill="white" stroke="#2ca02c" stroke-width="2.5" d="M323.85,-79.02C323.85,-79.02 198,-79.02 198,-79.02 192,-79.02 186,-73.02 186,-67.02 186,-67.02 186,-12 186,-12 186,-6 192,0 198,0 198,0 323.85,0 323.85,0 329.85,0 335.85,-6 335.85,-12 335.85,-12 335.85,-67.02 335.85,-67.02 335.85,-73.02 329.85,-79.02 323.85,-79.02"/>
<text xml:space="preserve" text-anchor="start" x="240.68" y="-63.81" font-family="Courier,monospace" font-weight="bold" font-size="11.00">Normal</text>
<text xml:space="preserve" text-anchor="start" x="196.8" y="-49.31" font-family="Courier,monospace" font-size="11.00"> &#160;&#160;Out: D=1 C=2 R=1</text>
<text xml:space="preserve" text-anchor="start" x="196.8" y="-35.81" font-family="Courier,monospace" font-size="11.00"> &#160;&#160;&#160;In: D=1 C=1 R=1</text>
<text xml:space="preserve" text-anchor="start" x="196.8" y="-22.31" font-family="Courier,monospace" font-size="11.00"> Scope: 2</text>
<text xml:space="preserve" text-anchor="start" x="196.8" y="-8.81" font-family="Courier,monospace" font-size="11.00">Params: 4</text>
</g>
<!-- 4486285264&#45;&gt;4484717392 -->
<g id="edge3" class="edge">
<title>4486285264&#45;&gt;4484717392</title>
<path fill="none" stroke="#333333" stroke-width="2" d="M257.53,-80.04C256.31,-94.35 254.91,-110.59 253.66,-125.23"/>
<polygon fill="#333333" stroke="#333333" stroke-width="2" points="250.88,-124.83 252.99,-133.04 256.46,-125.31 250.88,-124.83"/>
</g>
<!-- 4493629856 -->
<g id="node8" class="node">
<title>4493629856</title>
<path fill="white" stroke="#ff7f0e" stroke-width="2.5" d="M488.48,-202.54C488.48,-202.54 369.38,-202.54 369.38,-202.54 363.38,-202.54 357.38,-196.54 357.38,-190.54 357.38,-190.54 357.38,-149.02 357.38,-149.02 357.38,-143.02 363.38,-137.02 369.38,-137.02 369.38,-137.02 488.48,-137.02 488.48,-137.02 494.48,-137.02 500.48,-143.02 500.48,-149.02 500.48,-149.02 500.48,-190.54 500.48,-190.54 500.48,-196.54 494.48,-202.54 488.48,-202.54"/>
<text xml:space="preserve" text-anchor="start" x="405.3" y="-187.33" font-family="Courier,monospace" font-weight="bold" font-size="11.00">Product</text>
<text xml:space="preserve" text-anchor="start" x="368.18" y="-172.83" font-family="Courier,monospace" font-size="11.00"> &#160;Out: D=1 C=2 R=1</text>
<text xml:space="preserve" text-anchor="start" x="368.18" y="-159.33" font-family="Courier,monospace" font-size="11.00"> &#160;&#160;In: D=2 C=2 R=1</text>
<text xml:space="preserve" text-anchor="start" x="368.18" y="-145.83" font-family="Courier,monospace" font-size="11.00">Scope: 0, 2</text>
</g>
<!-- 4486285264&#45;&gt;4493629856 -->
<g id="edge5" class="edge">
<title>4486285264&#45;&gt;4493629856</title>
<path fill="none" stroke="#333333" stroke-width="2" d="M312.7,-80.04C333.2,-95.69 356.72,-113.65 377.21,-129.3"/>
<polygon fill="#333333" stroke="#333333" stroke-width="2" points="375.33,-131.38 383.39,-134.01 378.73,-126.93 375.33,-131.38"/>
</g>
<!-- 4493629856&#45;&gt;4493632304 -->
<g id="edge7" class="edge">
<title>4493629856&#45;&gt;4493632304</title>
<path fill="none" stroke="#333333" stroke-width="2" d="M423.57,-203.48C421.32,-217.22 418.65,-233.51 416.17,-248.72"/>
<polygon fill="#333333" stroke="#333333" stroke-width="2" points="413.41,-248.21 414.88,-256.56 418.94,-249.12 413.41,-248.21"/>
</g>
<!-- 4492157888 -->
<g id="node9" class="node">
<title>4492157888</title>
<path fill="white" stroke="#2ca02c" stroke-width="2.5" d="M509.85,-79.02C509.85,-79.02 384,-79.02 384,-79.02 378,-79.02 372,-73.02 372,-67.02 372,-67.02 372,-12 372,-12 372,-6 378,0 384,0 384,0 509.85,0 509.85,0 515.85,0 521.85,-6 521.85,-12 521.85,-12 521.85,-67.02 521.85,-67.02 521.85,-73.02 515.85,-79.02 509.85,-79.02"/>
<text xml:space="preserve" text-anchor="start" x="426.68" y="-63.81" font-family="Courier,monospace" font-weight="bold" font-size="11.00">Normal</text>
<text xml:space="preserve" text-anchor="start" x="382.8" y="-49.31" font-family="Courier,monospace" font-size="11.00"> &#160;&#160;Out: D=1 C=2 R=1</text>
<text xml:space="preserve" text-anchor="start" x="382.8" y="-35.81" font-family="Courier,monospace" font-size="11.00"> &#160;&#160;&#160;In: D=1 C=1 R=1</text>
<text xml:space="preserve" text-anchor="start" x="382.8" y="-22.31" font-family="Courier,monospace" font-size="11.00"> Scope: 0</text>
<text xml:space="preserve" text-anchor="start" x="382.8" y="-8.81" font-family="Courier,monospace" font-size="11.00">Params: 4</text>
</g>
<!-- 4492157888&#45;&gt;4493629856 -->
<g id="edge6" class="edge">
<title>4492157888&#45;&gt;4493629856</title>
<path fill="none" stroke="#333333" stroke-width="2" d="M441.38,-80.04C439.37,-94.35 437.09,-110.59 435.04,-125.23"/>
<polygon fill="#333333" stroke="#333333" stroke-width="2" points="432.28,-124.75 433.94,-133.06 437.82,-125.53 432.28,-124.75"/>
</g>
<!-- 4493634032 -->
<g id="node10" class="node">
<title>4493634032</title>
<path fill="white" stroke="#ff7f0e" stroke-width="2.5" d="M653.47,-463.08C653.47,-463.08 534.38,-463.08 534.38,-463.08 528.38,-463.08 522.38,-457.08 522.38,-451.08 522.38,-451.08 522.38,-409.56 522.38,-409.56 522.38,-403.56 528.38,-397.56 534.38,-397.56 534.38,-397.56 653.47,-397.56 653.47,-397.56 659.47,-397.56 665.47,-403.56 665.47,-409.56 665.47,-409.56 665.47,-451.08 665.47,-451.08 665.47,-457.08 659.47,-463.08 653.47,-463.08"/>
<text xml:space="preserve" text-anchor="start" x="570.3" y="-447.87" font-family="Courier,monospace" font-weight="bold" font-size="11.00">Product</text>
<text xml:space="preserve" text-anchor="start" x="533.17" y="-433.37" font-family="Courier,monospace" font-size="11.00"> &#160;Out: D=1 C=2 R=1</text>
<text xml:space="preserve" text-anchor="start" x="533.17" y="-419.87" font-family="Courier,monospace" font-size="11.00"> &#160;&#160;In: D=2 C=2 R=1</text>
<text xml:space="preserve" text-anchor="start" x="533.17" y="-406.37" font-family="Courier,monospace" font-size="11.00">Scope: 0...2</text>
</g>
<!-- 4493634032&#45;&gt;4493634512 -->
<g id="edge18" class="edge">
<title>4493634032&#45;&gt;4493634512</title>
<path fill="none" stroke="#333333" stroke-width="2" d="M570.22,-464.02C559.77,-478.42 547.29,-495.64 535.82,-511.46"/>
<polygon fill="#333333" stroke="#333333" stroke-width="2" points="533.77,-509.52 531.34,-517.64 538.31,-512.8 533.77,-509.52"/>
</g>
<!-- 4492852832 -->
<g id="node11" class="node">
<title>4492852832</title>
<path fill="white" stroke="#2ca02c" stroke-width="2.5" d="M656.85,-339.56C656.85,-339.56 531,-339.56 531,-339.56 525,-339.56 519,-333.56 519,-327.56 519,-327.56 519,-272.54 519,-272.54 519,-266.54 525,-260.54 531,-260.54 531,-260.54 656.85,-260.54 656.85,-260.54 662.85,-260.54 668.85,-266.54 668.85,-272.54 668.85,-272.54 668.85,-327.56 668.85,-327.56 668.85,-333.56 662.85,-339.56 656.85,-339.56"/>
<text xml:space="preserve" text-anchor="start" x="573.67" y="-324.35" font-family="Courier,monospace" font-weight="bold" font-size="11.00">Normal</text>
<text xml:space="preserve" text-anchor="start" x="529.8" y="-309.85" font-family="Courier,monospace" font-size="11.00"> &#160;&#160;Out: D=1 C=2 R=1</text>
<text xml:space="preserve" text-anchor="start" x="529.8" y="-296.35" font-family="Courier,monospace" font-size="11.00"> &#160;&#160;&#160;In: D=1 C=1 R=1</text>
<text xml:space="preserve" text-anchor="start" x="529.8" y="-282.85" font-family="Courier,monospace" font-size="11.00"> Scope: 2</text>
<text xml:space="preserve" text-anchor="start" x="529.8" y="-269.35" font-family="Courier,monospace" font-size="11.00">Params: 4</text>
</g>
<!-- 4492852832&#45;&gt;4493634032 -->
<g id="edge10" class="edge">
<title>4492852832&#45;&gt;4493634032</title>
<path fill="none" stroke="#333333" stroke-width="2" d="M593.92,-340.58C593.92,-354.89 593.92,-371.13 593.92,-385.77"/>
<polygon fill="#333333" stroke="#333333" stroke-width="2" points="591.13,-385.57 593.93,-393.57 596.73,-385.57 591.13,-385.57"/>
</g>
<!-- 4493633600 -->
<g id="node12" class="node">
<title>4493633600</title>
<path fill="white" stroke="#1f77b4" stroke-width="2.5" d="M842.85,-339.56C842.85,-339.56 717,-339.56 717,-339.56 711,-339.56 705,-333.56 705,-327.56 705,-327.56 705,-272.54 705,-272.54 705,-266.54 711,-260.54 717,-260.54 717,-260.54 842.85,-260.54 842.85,-260.54 848.85,-260.54 854.85,-266.54 854.85,-272.54 854.85,-272.54 854.85,-327.56 854.85,-327.56 854.85,-333.56 848.85,-339.56 842.85,-339.56"/>
<text xml:space="preserve" text-anchor="start" x="769.8" y="-324.35" font-family="Courier,monospace" font-weight="bold" font-size="11.00">Sum</text>
<text xml:space="preserve" text-anchor="start" x="715.8" y="-309.85" font-family="Courier,monospace" font-size="11.00"> &#160;&#160;Out: D=1 C=2 R=1</text>
<text xml:space="preserve" text-anchor="start" x="715.8" y="-296.35" font-family="Courier,monospace" font-size="11.00"> &#160;&#160;&#160;In: D=1 C=4 R=1</text>
<text xml:space="preserve" text-anchor="start" x="715.8" y="-282.85" font-family="Courier,monospace" font-size="11.00"> Scope: 0, 1</text>
<text xml:space="preserve" text-anchor="start" x="715.8" y="-269.35" font-family="Courier,monospace" font-size="11.00">Params: 8</text>
</g>
<!-- 4493633600&#45;&gt;4493634032 -->
<g id="edge17" class="edge">
<title>4493633600&#45;&gt;4493634032</title>
<path fill="none" stroke="#333333" stroke-width="2" d="M722.35,-340.76C699.46,-356.54 673.21,-374.65 650.43,-390.36"/>
<polygon fill="#333333" stroke="#333333" stroke-width="2" points="649.04,-387.91 644.05,-394.76 652.22,-392.52 649.04,-387.91"/>
</g>
<!-- 4493632640 -->
<g id="node13" class="node">
<title>4493632640</title>
<path fill="white" stroke="#ff7f0e" stroke-width="2.5" d="M796.47,-202.54C796.47,-202.54 677.38,-202.54 677.38,-202.54 671.38,-202.54 665.38,-196.54 665.38,-190.54 665.38,-190.54 665.38,-149.02 665.38,-149.02 665.38,-143.02 671.38,-137.02 677.38,-137.02 677.38,-137.02 796.47,-137.02 796.47,-137.02 802.47,-137.02 808.47,-143.02 808.47,-149.02 808.47,-149.02 808.47,-190.54 808.47,-190.54 808.47,-196.54 802.47,-202.54 796.47,-202.54"/>
<text xml:space="preserve" text-anchor="start" x="713.3" y="-187.33" font-family="Courier,monospace" font-weight="bold" font-size="11.00">Product</text>
<text xml:space="preserve" text-anchor="start" x="676.17" y="-172.83" font-family="Courier,monospace" font-size="11.00"> &#160;Out: D=1 C=2 R=1</text>
<text xml:space="preserve" text-anchor="start" x="676.17" y="-159.33" font-family="Courier,monospace" font-size="11.00"> &#160;&#160;In: D=2 C=2 R=1</text>
<text xml:space="preserve" text-anchor="start" x="676.17" y="-145.83" font-family="Courier,monospace" font-size="11.00">Scope: 0, 1</text>
</g>
<!-- 4493632640&#45;&gt;4493633600 -->
<g id="edge13" class="edge">
<title>4493632640&#45;&gt;4493633600</title>
<path fill="none" stroke="#333333" stroke-width="2" d="M747.89,-203.48C752.54,-217.35 758.06,-233.83 763.2,-249.16"/>
<polygon fill="#333333" stroke="#333333" stroke-width="2" points="760.52,-249.98 765.72,-256.68 765.83,-248.2 760.52,-249.98"/>
</g>
<!-- 4493631440 -->
<g id="node14" class="node">
<title>4493631440</title>
<path fill="white" stroke="#2ca02c" stroke-width="2.5" d="M781.85,-79.02C781.85,-79.02 656,-79.02 656,-79.02 650,-79.02 644,-73.02 644,-67.02 644,-67.02 644,-12 644,-12 644,-6 650,0 656,0 656,0 781.85,0 781.85,0 787.85,0 793.85,-6 793.85,-12 793.85,-12 793.85,-67.02 793.85,-67.02 793.85,-73.02 787.85,-79.02 781.85,-79.02"/>
<text xml:space="preserve" text-anchor="start" x="681.8" y="-63.81" font-family="Courier,monospace" font-weight="bold" font-size="11.00">Categorical</text>
<text xml:space="preserve" text-anchor="start" x="654.8" y="-49.31" font-family="Courier,monospace" font-size="11.00"> &#160;&#160;Out: D=1 C=2 R=1</text>
<text xml:space="preserve" text-anchor="start" x="654.8" y="-35.81" font-family="Courier,monospace" font-size="11.00"> &#160;&#160;&#160;In: D=1 C=1 R=1</text>
<text xml:space="preserve" text-anchor="start" x="654.8" y="-22.31" font-family="Courier,monospace" font-size="11.00"> Scope: 1</text>
<text xml:space="preserve" text-anchor="start" x="654.8" y="-8.81" font-family="Courier,monospace" font-size="11.00">Params: 6</text>
</g>
<!-- 4493631440&#45;&gt;4493632640 -->
<g id="edge11" class="edge">
<title>4493631440&#45;&gt;4493632640</title>
<path fill="none" stroke="#333333" stroke-width="2" d="M724.47,-80.04C726.48,-94.35 728.76,-110.59 730.81,-125.23"/>
<polygon fill="#333333" stroke="#333333" stroke-width="2" points="728.03,-125.53 731.91,-133.06 733.57,-124.75 728.03,-125.53"/>
</g>
<!-- 4493631200 -->
<g id="node15" class="node">
<title>4493631200</title>
<path fill="white" stroke="#2ca02c" stroke-width="2.5" d="M967.85,-79.02C967.85,-79.02 842,-79.02 842,-79.02 836,-79.02 830,-73.02 830,-67.02 830,-67.02 830,-12 830,-12 830,-6 836,0 842,0 842,0 967.85,0 967.85,0 973.85,0 979.85,-6 979.85,-12 979.85,-12 979.85,-67.02 979.85,-67.02 979.85,-73.02 973.85,-79.02 967.85,-79.02"/>
<text xml:space="preserve" text-anchor="start" x="884.67" y="-63.81" font-family="Courier,monospace" font-weight="bold" font-size="11.00">Normal</text>
<text xml:space="preserve" text-anchor="start" x="840.8" y="-49.31" font-family="Courier,monospace" font-size="11.00"> &#160;&#160;Out: D=1 C=2 R=1</text>
<text xml:space="preserve" text-anchor="start" x="840.8" y="-35.81" font-family="Courier,monospace" font-size="11.00"> &#160;&#160;&#160;In: D=1 C=1 R=1</text>
<text xml:space="preserve" text-anchor="start" x="840.8" y="-22.31" font-family="Courier,monospace" font-size="11.00"> Scope: 0</text>
<text xml:space="preserve" text-anchor="start" x="840.8" y="-8.81" font-family="Courier,monospace" font-size="11.00">Params: 4</text>
</g>
<!-- 4493631200&#45;&gt;4493632640 -->
<g id="edge12" class="edge">
<title>4493631200&#45;&gt;4493632640</title>
<path fill="none" stroke="#333333" stroke-width="2" d="M853.15,-80.04C832.65,-95.69 809.13,-113.65 788.64,-129.3"/>
<polygon fill="#333333" stroke="#333333" stroke-width="2" points="787.12,-126.93 782.46,-134.01 790.52,-131.38 787.12,-126.93"/>
</g>
<!-- 4493633120 -->
<g id="node16" class="node">
<title>4493633120</title>
<path fill="white" stroke="#ff7f0e" stroke-width="2.5" d="M975.47,-202.54C975.47,-202.54 856.38,-202.54 856.38,-202.54 850.38,-202.54 844.38,-196.54 844.38,-190.54 844.38,-190.54 844.38,-149.02 844.38,-149.02 844.38,-143.02 850.38,-137.02 856.38,-137.02 856.38,-137.02 975.47,-137.02 975.47,-137.02 981.47,-137.02 987.47,-143.02 987.47,-149.02 987.47,-149.02 987.47,-190.54 987.47,-190.54 987.47,-196.54 981.47,-202.54 975.47,-202.54"/>
<text xml:space="preserve" text-anchor="start" x="892.3" y="-187.33" font-family="Courier,monospace" font-weight="bold" font-size="11.00">Product</text>
<text xml:space="preserve" text-anchor="start" x="855.17" y="-172.83" font-family="Courier,monospace" font-size="11.00"> &#160;Out: D=1 C=2 R=1</text>
<text xml:space="preserve" text-anchor="start" x="855.17" y="-159.33" font-family="Courier,monospace" font-size="11.00"> &#160;&#160;In: D=2 C=2 R=1</text>
<text xml:space="preserve" text-anchor="start" x="855.17" y="-145.83" font-family="Courier,monospace" font-size="11.00">Scope: 0, 1</text>
</g>
<!-- 4493631200&#45;&gt;4493633120 -->
<g id="edge15" class="edge">
<title>4493631200&#45;&gt;4493633120</title>
<path fill="none" stroke="#333333" stroke-width="2" d="M908.32,-80.04C909.54,-94.35 910.94,-110.59 912.19,-125.23"/>
<polygon fill="#333333" stroke="#333333" stroke-width="2" points="909.39,-125.31 912.86,-133.04 914.97,-124.83 909.39,-125.31"/>
</g>
<!-- 4493633120&#45;&gt;4493633600 -->
<g id="edge16" class="edge">
<title>4493633120&#45;&gt;4493633600</title>
<path fill="none" stroke="#333333" stroke-width="2" d="M881.25,-203.48C865.56,-218.28 846.71,-236.06 829.56,-252.24"/>
<polygon fill="#333333" stroke="#333333" stroke-width="2" points="827.91,-249.94 824.01,-257.47 831.75,-254.02 827.91,-249.94"/>
</g>
<!-- 4493629712 -->
<g id="node17" class="node">
<title>4493629712</title>
<path fill="white" stroke="#2ca02c" stroke-width="2.5" d="M1153.85,-79.02C1153.85,-79.02 1028,-79.02 1028,-79.02 1022,-79.02 1016,-73.02 1016,-67.02 1016,-67.02 1016,-12 1016,-12 1016,-6 1022,0 1028,0 1028,0 1153.85,0 1153.85,0 1159.85,0 1165.85,-6 1165.85,-12 1165.85,-12 1165.85,-67.02 1165.85,-67.02 1165.85,-73.02 1159.85,-79.02 1153.85,-79.02"/>
<text xml:space="preserve" text-anchor="start" x="1053.8" y="-63.81" font-family="Courier,monospace" font-weight="bold" font-size="11.00">Categorical</text>
<text xml:space="preserve" text-anchor="start" x="1026.8" y="-49.31" font-family="Courier,monospace" font-size="11.00"> &#160;&#160;Out: D=1 C=2 R=1</text>
<text xml:space="preserve" text-anchor="start" x="1026.8" y="-35.81" font-family="Courier,monospace" font-size="11.00"> &#160;&#160;&#160;In: D=1 C=1 R=1</text>
<text xml:space="preserve" text-anchor="start" x="1026.8" y="-22.31" font-family="Courier,monospace" font-size="11.00"> Scope: 1</text>
<text xml:space="preserve" text-anchor="start" x="1026.8" y="-8.81" font-family="Courier,monospace" font-size="11.00">Params: 6</text>
</g>
<!-- 4493629712&#45;&gt;4493633120 -->
<g id="edge14" class="edge">
<title>4493629712&#45;&gt;4493633120</title>
<path fill="none" stroke="#333333" stroke-width="2" d="M1036.99,-80.04C1015.54,-95.76 990.92,-113.81 969.51,-129.51"/>
<polygon fill="#333333" stroke="#333333" stroke-width="2" points="968.09,-127.07 963.3,-134.06 971.41,-131.59 968.09,-127.07"/>
</g>
</g>
</svg>
