<?xml version="1.0" encoding="UTF-8" standalone="no"?>
<!DOCTYPE svg PUBLIC "-//W3C//DTD SVG 1.1//EN"
 "http://www.w3.org/Graphics/SVG/1.1/DTD/svg11.dtd">
<!-- Generated by graphviz version 14.0.2 (20251019.1705)
 -->
<!-- Title: G Pages: 1 -->
<svg width="2681pt" height="2065pt"
 viewBox="0.00 0.00 2681.00 2065.00" xmlns="http://www.w3.org/2000/svg" xmlns:xlink="http://www.w3.org/1999/xlink">
<g id="graph0" class="graph" transform="scale(4.16667 4.16667) rotate(0) translate(4 491.6)">
<title>G</title>
<polygon fill="white" stroke="none" points="-4,4 -4,-491.6 639.35,-491.6 639.35,4 -4,4"/>
<!-- 4489375056 -->
<g id="node1" class="node">
<title>4489375056</title>
<path fill="white" stroke="#1f77b4" stroke-width="2.5" d="M305.98,-487.6C305.98,-487.6 231.12,-487.6 231.12,-487.6 225.12,-487.6 219.12,-481.6 219.12,-475.6 219.12,-475.6 219.12,-444.08 219.12,-444.08 219.12,-438.08 225.12,-432.08 231.12,-432.08 231.12,-432.08 305.98,-432.08 305.98,-432.08 311.98,-432.08 317.98,-438.08 317.98,-444.08 317.98,-444.08 317.98,-475.6 317.98,-475.6 317.98,-481.6 311.98,-487.6 305.98,-487.6"/>
<text xml:space="preserve" text-anchor="start" x="256.55" y="-472.39" font-family="Helvetica,sans-Serif" font-weight="bold" font-size="11.00">Sum</text>
<text xml:space="preserve" text-anchor="start" x="229.93" y="-461.39" font-family="Helvetica,sans-Serif" font-size="11.00">C&#45;in: 4, C&#45;out: 1</text>
<text xml:space="preserve" text-anchor="start" x="243.8" y="-450.39" font-family="Helvetica,sans-Serif" font-size="11.00">Params: 4</text>
<text xml:space="preserve" text-anchor="start" x="239.68" y="-439.39" font-family="Helvetica,sans-Serif" font-size="11.00">Scope: 0...2</text>
</g>
<!-- 4485607840 -->
<g id="node2" class="node">
<title>4485607840</title>
<path fill="white" stroke="#ff7f0e" stroke-width="2.5" d="M236.23,-374.08C236.23,-374.08 180.88,-374.08 180.88,-374.08 174.88,-374.08 168.88,-368.08 168.88,-362.08 168.88,-362.08 168.88,-341.56 168.88,-341.56 168.88,-335.56 174.88,-329.56 180.88,-329.56 180.88,-329.56 236.23,-329.56 236.23,-329.56 242.23,-329.56 248.23,-335.56 248.23,-341.56 248.23,-341.56 248.23,-362.08 248.23,-362.08 248.23,-368.08 242.23,-374.08 236.23,-374.08"/>
<text xml:space="preserve" text-anchor="start" x="187.55" y="-358.87" font-family="Helvetica,sans-Serif" font-weight="bold" font-size="11.00">Product</text>
<text xml:space="preserve" text-anchor="start" x="185.3" y="-347.87" font-family="Helvetica,sans-Serif" font-size="11.00">D: 1, C: 2</text>
<text xml:space="preserve" text-anchor="start" x="179.68" y="-336.87" font-family="Helvetica,sans-Serif" font-size="11.00">Scope: 0...2</text>
</g>
<!-- 4485607840&#45;&gt;4489375056 -->
<g id="edge9" class="edge">
<title>4485607840&#45;&gt;4489375056</title>
<path fill="none" stroke="#333333" stroke-width="2" d="M221.27,-375.3C228.91,-388.79 238.81,-406.29 247.57,-421.77"/>
<polygon fill="#333333" stroke="#333333" stroke-width="2" points="244.99,-422.89 251.36,-428.47 249.86,-420.13 244.99,-422.89"/>
</g>
<!-- 4485372704 -->
<g id="node3" class="node">
<title>4485372704</title>
<path fill="white" stroke="#2ca02c" stroke-width="2.5" d="M111.35,-271.56C111.35,-271.56 53.75,-271.56 53.75,-271.56 47.75,-271.56 41.75,-265.56 41.75,-259.56 41.75,-259.56 41.75,-228.04 41.75,-228.04 41.75,-222.04 47.75,-216.04 53.75,-216.04 53.75,-216.04 111.35,-216.04 111.35,-216.04 117.35,-216.04 123.35,-222.04 123.35,-228.04 123.35,-228.04 123.35,-259.56 123.35,-259.56 123.35,-265.56 117.35,-271.56 111.35,-271.56"/>
<text xml:space="preserve" text-anchor="start" x="52.55" y="-256.35" font-family="Helvetica,sans-Serif" font-weight="bold" font-size="11.00">Categorical</text>
<text xml:space="preserve" text-anchor="start" x="59.3" y="-245.35" font-family="Helvetica,sans-Serif" font-size="11.00">D: 1, C: 2</text>
<text xml:space="preserve" text-anchor="start" x="57.8" y="-234.35" font-family="Helvetica,sans-Serif" font-size="11.00">Params: 6</text>
<text xml:space="preserve" text-anchor="start" x="61.18" y="-223.35" font-family="Helvetica,sans-Serif" font-size="11.00">Scope: 1</text>
</g>
<!-- 4485372704&#45;&gt;4485607840 -->
<g id="edge1" class="edge">
<title>4485372704&#45;&gt;4485607840</title>
<path fill="none" stroke="#333333" stroke-width="2" d="M115.66,-272.66C133.61,-287.77 155.79,-306.42 173.97,-321.72"/>
<polygon fill="#333333" stroke="#333333" stroke-width="2" points="171.77,-323.53 179.7,-326.54 175.38,-319.25 171.77,-323.53"/>
</g>
<!-- 4485730560 -->
<g id="node4" class="node">
<title>4485730560</title>
<path fill="white" stroke="#1f77b4" stroke-width="2.5" d="M245.98,-271.56C245.98,-271.56 171.12,-271.56 171.12,-271.56 165.12,-271.56 159.12,-265.56 159.12,-259.56 159.12,-259.56 159.12,-228.04 159.12,-228.04 159.12,-222.04 165.12,-216.04 171.12,-216.04 171.12,-216.04 245.98,-216.04 245.98,-216.04 251.98,-216.04 257.98,-222.04 257.98,-228.04 257.98,-228.04 257.98,-259.56 257.98,-259.56 257.98,-265.56 251.98,-271.56 245.98,-271.56"/>
<text xml:space="preserve" text-anchor="start" x="196.55" y="-256.35" font-family="Helvetica,sans-Serif" font-weight="bold" font-size="11.00">Sum</text>
<text xml:space="preserve" text-anchor="start" x="169.93" y="-245.35" font-family="Helvetica,sans-Serif" font-size="11.00">C&#45;in: 4, C&#45;out: 2</text>
<text xml:space="preserve" text-anchor="start" x="183.8" y="-234.35" font-family="Helvetica,sans-Serif" font-size="11.00">Params: 8</text>
<text xml:space="preserve" text-anchor="start" x="181.18" y="-223.35" font-family="Helvetica,sans-Serif" font-size="11.00">Scope: 0, 2</text>
</g>
<!-- 4485730560&#45;&gt;4485607840 -->
<g id="edge8" class="edge">
<title>4485730560&#45;&gt;4485607840</title>
<path fill="none" stroke="#333333" stroke-width="2" d="M208.55,-272.66C208.55,-286.4 208.55,-303.09 208.55,-317.51"/>
<polygon fill="#333333" stroke="#333333" stroke-width="2" points="205.75,-317.46 208.55,-325.46 211.35,-317.46 205.75,-317.46"/>
</g>
<!-- 4486350368 -->
<g id="node5" class="node">
<title>4486350368</title>
<path fill="white" stroke="#ff7f0e" stroke-width="2.5" d="M149.73,-158.04C149.73,-158.04 97.38,-158.04 97.38,-158.04 91.38,-158.04 85.38,-152.04 85.38,-146.04 85.38,-146.04 85.38,-125.52 85.38,-125.52 85.38,-119.52 91.38,-113.52 97.38,-113.52 97.38,-113.52 149.73,-113.52 149.73,-113.52 155.73,-113.52 161.73,-119.52 161.73,-125.52 161.73,-125.52 161.73,-146.04 161.73,-146.04 161.73,-152.04 155.73,-158.04 149.73,-158.04"/>
<text xml:space="preserve" text-anchor="start" x="102.55" y="-142.83" font-family="Helvetica,sans-Serif" font-weight="bold" font-size="11.00">Product</text>
<text xml:space="preserve" text-anchor="start" x="100.3" y="-131.83" font-family="Helvetica,sans-Serif" font-size="11.00">D: 1, C: 2</text>
<text xml:space="preserve" text-anchor="start" x="96.18" y="-120.83" font-family="Helvetica,sans-Serif" font-size="11.00">Scope: 0, 2</text>
</g>
<!-- 4486350368&#45;&gt;4485730560 -->
<g id="edge4" class="edge">
<title>4486350368&#45;&gt;4485730560</title>
<path fill="none" stroke="#333333" stroke-width="2" d="M141.58,-159.26C152.6,-173.01 166.95,-190.91 179.53,-206.61"/>
<polygon fill="#333333" stroke="#333333" stroke-width="2" points="177.23,-208.21 184.42,-212.7 181.6,-204.71 177.23,-208.21"/>
</g>
<!-- 4315430016 -->
<g id="node6" class="node">
<title>4315430016</title>
<path fill="white" stroke="#2ca02c" stroke-width="2.5" d="M59.1,-55.52C59.1,-55.52 12,-55.52 12,-55.52 6,-55.52 0,-49.52 0,-43.52 0,-43.52 0,-12 0,-12 0,-6 6,0 12,0 12,0 59.1,0 59.1,0 65.1,0 71.1,-6 71.1,-12 71.1,-12 71.1,-43.52 71.1,-43.52 71.1,-49.52 65.1,-55.52 59.1,-55.52"/>
<text xml:space="preserve" text-anchor="start" x="16.43" y="-40.31" font-family="Helvetica,sans-Serif" font-weight="bold" font-size="11.00">Normal</text>
<text xml:space="preserve" text-anchor="start" x="12.3" y="-29.31" font-family="Helvetica,sans-Serif" font-size="11.00">D: 1, C: 2</text>
<text xml:space="preserve" text-anchor="start" x="10.8" y="-18.31" font-family="Helvetica,sans-Serif" font-size="11.00">Params: 4</text>
<text xml:space="preserve" text-anchor="start" x="14.18" y="-7.31" font-family="Helvetica,sans-Serif" font-size="11.00">Scope: 0</text>
</g>
<!-- 4315430016&#45;&gt;4486350368 -->
<g id="edge2" class="edge">
<title>4315430016&#45;&gt;4486350368</title>
<path fill="none" stroke="#333333" stroke-width="2" d="M58.67,-56.62C70.76,-71.18 85.59,-89.04 98.01,-104.02"/>
<polygon fill="#333333" stroke="#333333" stroke-width="2" points="95.82,-105.75 103.08,-110.12 100.13,-102.18 95.82,-105.75"/>
</g>
<!-- 4489178832 -->
<g id="node7" class="node">
<title>4489178832</title>
<path fill="white" stroke="#2ca02c" stroke-width="2.5" d="M166.1,-55.52C166.1,-55.52 119,-55.52 119,-55.52 113,-55.52 107,-49.52 107,-43.52 107,-43.52 107,-12 107,-12 107,-6 113,0 119,0 119,0 166.1,0 166.1,0 172.1,0 178.1,-6 178.1,-12 178.1,-12 178.1,-43.52 178.1,-43.52 178.1,-49.52 172.1,-55.52 166.1,-55.52"/>
<text xml:space="preserve" text-anchor="start" x="123.43" y="-40.31" font-family="Helvetica,sans-Serif" font-weight="bold" font-size="11.00">Normal</text>
<text xml:space="preserve" text-anchor="start" x="119.3" y="-29.31" font-family="Helvetica,sans-Serif" font-size="11.00">D: 1, C: 2</text>
<text xml:space="preserve" text-anchor="start" x="117.8" y="-18.31" font-family="Helvetica,sans-Serif" font-size="11.00">Params: 4</text>
<text xml:space="preserve" text-anchor="start" x="121.18" y="-7.31" font-family="Helvetica,sans-Serif" font-size="11.00">Scope: 2</text>
</g>
<!-- 4489178832&#45;&gt;4486350368 -->
<g id="edge3" class="edge">
<title>4489178832&#45;&gt;4486350368</title>
<path fill="none" stroke="#333333" stroke-width="2" d="M137.56,-56.62C135.07,-70.5 132.04,-87.38 129.44,-101.9"/>
<polygon fill="#333333" stroke="#333333" stroke-width="2" points="126.74,-101.1 128.09,-109.47 132.25,-102.09 126.74,-101.1"/>
</g>
<!-- 4477392688 -->
<g id="node8" class="node">
<title>4477392688</title>
<path fill="white" stroke="#ff7f0e" stroke-width="2.5" d="M261.73,-158.04C261.73,-158.04 209.38,-158.04 209.38,-158.04 203.38,-158.04 197.38,-152.04 197.38,-146.04 197.38,-146.04 197.38,-125.52 197.38,-125.52 197.38,-119.52 203.38,-113.52 209.38,-113.52 209.38,-113.52 261.73,-113.52 261.73,-113.52 267.73,-113.52 273.73,-119.52 273.73,-125.52 273.73,-125.52 273.73,-146.04 273.73,-146.04 273.73,-152.04 267.73,-158.04 261.73,-158.04"/>
<text xml:space="preserve" text-anchor="start" x="214.55" y="-142.83" font-family="Helvetica,sans-Serif" font-weight="bold" font-size="11.00">Product</text>
<text xml:space="preserve" text-anchor="start" x="212.3" y="-131.83" font-family="Helvetica,sans-Serif" font-size="11.00">D: 1, C: 2</text>
<text xml:space="preserve" text-anchor="start" x="208.18" y="-120.83" font-family="Helvetica,sans-Serif" font-size="11.00">Scope: 0, 2</text>
</g>
<!-- 4489178832&#45;&gt;4477392688 -->
<g id="edge5" class="edge">
<title>4489178832&#45;&gt;4477392688</title>
<path fill="none" stroke="#333333" stroke-width="2" d="M166.98,-56.62C179.88,-71.32 195.72,-89.38 208.93,-104.43"/>
<polygon fill="#333333" stroke="#333333" stroke-width="2" points="206.59,-106.01 213.97,-110.17 210.8,-102.31 206.59,-106.01"/>
</g>
<!-- 4477392688&#45;&gt;4485730560 -->
<g id="edge7" class="edge">
<title>4477392688&#45;&gt;4485730560</title>
<path fill="none" stroke="#333333" stroke-width="2" d="M229.82,-159.26C226.49,-172.37 222.19,-189.26 218.33,-204.41"/>
<polygon fill="#333333" stroke="#333333" stroke-width="2" points="215.62,-203.69 216.36,-212.13 221.05,-205.07 215.62,-203.69"/>
</g>
<!-- 4486602848 -->
<g id="node9" class="node">
<title>4486602848</title>
<path fill="white" stroke="#2ca02c" stroke-width="2.5" d="M273.1,-55.52C273.1,-55.52 226,-55.52 226,-55.52 220,-55.52 214,-49.52 214,-43.52 214,-43.52 214,-12 214,-12 214,-6 220,0 226,0 226,0 273.1,0 273.1,0 279.1,0 285.1,-6 285.1,-12 285.1,-12 285.1,-43.52 285.1,-43.52 285.1,-49.52 279.1,-55.52 273.1,-55.52"/>
<text xml:space="preserve" text-anchor="start" x="230.43" y="-40.31" font-family="Helvetica,sans-Serif" font-weight="bold" font-size="11.00">Normal</text>
<text xml:space="preserve" text-anchor="start" x="226.3" y="-29.31" font-family="Helvetica,sans-Serif" font-size="11.00">D: 1, C: 2</text>
<text xml:space="preserve" text-anchor="start" x="224.8" y="-18.31" font-family="Helvetica,sans-Serif" font-size="11.00">Params: 4</text>
<text xml:space="preserve" text-anchor="start" x="228.18" y="-7.31" font-family="Helvetica,sans-Serif" font-size="11.00">Scope: 0</text>
</g>
<!-- 4486602848&#45;&gt;4477392688 -->
<g id="edge6" class="edge">
<title>4486602848&#45;&gt;4477392688</title>
<path fill="none" stroke="#333333" stroke-width="2" d="M245.87,-56.62C244.04,-70.5 241.81,-87.38 239.89,-101.9"/>
<polygon fill="#333333" stroke="#333333" stroke-width="2" points="237.17,-101.15 238.9,-109.45 242.72,-101.88 237.17,-101.15"/>
</g>
<!-- 4489374672 -->
<g id="node10" class="node">
<title>4489374672</title>
<path fill="white" stroke="#ff7f0e" stroke-width="2.5" d="M357.23,-374.08C357.23,-374.08 301.88,-374.08 301.88,-374.08 295.88,-374.08 289.88,-368.08 289.88,-362.08 289.88,-362.08 289.88,-341.56 289.88,-341.56 289.88,-335.56 295.88,-329.56 301.88,-329.56 301.88,-329.56 357.23,-329.56 357.23,-329.56 363.23,-329.56 369.23,-335.56 369.23,-341.56 369.23,-341.56 369.23,-362.08 369.23,-362.08 369.23,-368.08 363.23,-374.08 357.23,-374.08"/>
<text xml:space="preserve" text-anchor="start" x="308.55" y="-358.87" font-family="Helvetica,sans-Serif" font-weight="bold" font-size="11.00">Product</text>
<text xml:space="preserve" text-anchor="start" x="306.3" y="-347.87" font-family="Helvetica,sans-Serif" font-size="11.00">D: 1, C: 2</text>
<text xml:space="preserve" text-anchor="start" x="300.68" y="-336.87" font-family="Helvetica,sans-Serif" font-size="11.00">Scope: 0...2</text>
</g>
<!-- 4489374672&#45;&gt;4489375056 -->
<g id="edge18" class="edge">
<title>4489374672&#45;&gt;4489375056</title>
<path fill="none" stroke="#333333" stroke-width="2" d="M316.61,-375.3C308.85,-388.79 298.79,-406.29 289.88,-421.77"/>
<polygon fill="#333333" stroke="#333333" stroke-width="2" points="287.58,-420.15 286.02,-428.48 292.43,-422.94 287.58,-420.15"/>
</g>
<!-- 4315530736 -->
<g id="node11" class="node">
<title>4315530736</title>
<path fill="white" stroke="#2ca02c" stroke-width="2.5" d="M353.1,-271.56C353.1,-271.56 306,-271.56 306,-271.56 300,-271.56 294,-265.56 294,-259.56 294,-259.56 294,-228.04 294,-228.04 294,-222.04 300,-216.04 306,-216.04 306,-216.04 353.1,-216.04 353.1,-216.04 359.1,-216.04 365.1,-222.04 365.1,-228.04 365.1,-228.04 365.1,-259.56 365.1,-259.56 365.1,-265.56 359.1,-271.56 353.1,-271.56"/>
<text xml:space="preserve" text-anchor="start" x="310.43" y="-256.35" font-family="Helvetica,sans-Serif" font-weight="bold" font-size="11.00">Normal</text>
<text xml:space="preserve" text-anchor="start" x="306.3" y="-245.35" font-family="Helvetica,sans-Serif" font-size="11.00">D: 1, C: 2</text>
<text xml:space="preserve" text-anchor="start" x="304.8" y="-234.35" font-family="Helvetica,sans-Serif" font-size="11.00">Params: 4</text>
<text xml:space="preserve" text-anchor="start" x="308.18" y="-223.35" font-family="Helvetica,sans-Serif" font-size="11.00">Scope: 2</text>
</g>
<!-- 4315530736&#45;&gt;4489374672 -->
<g id="edge10" class="edge">
<title>4315530736&#45;&gt;4489374672</title>
<path fill="none" stroke="#333333" stroke-width="2" d="M329.55,-272.66C329.55,-286.4 329.55,-303.09 329.55,-317.51"/>
<polygon fill="#333333" stroke="#333333" stroke-width="2" points="326.75,-317.46 329.55,-325.46 332.35,-317.46 326.75,-317.46"/>
</g>
<!-- 4489374576 -->
<g id="node12" class="node">
<title>4489374576</title>
<path fill="white" stroke="#1f77b4" stroke-width="2.5" d="M487.98,-271.56C487.98,-271.56 413.12,-271.56 413.12,-271.56 407.12,-271.56 401.12,-265.56 401.12,-259.56 401.12,-259.56 401.12,-228.04 401.12,-228.04 401.12,-222.04 407.12,-216.04 413.12,-216.04 413.12,-216.04 487.98,-216.04 487.98,-216.04 493.98,-216.04 499.98,-222.04 499.98,-228.04 499.98,-228.04 499.98,-259.56 499.98,-259.56 499.98,-265.56 493.98,-271.56 487.98,-271.56"/>
<text xml:space="preserve" text-anchor="start" x="438.55" y="-256.35" font-family="Helvetica,sans-Serif" font-weight="bold" font-size="11.00">Sum</text>
<text xml:space="preserve" text-anchor="start" x="411.93" y="-245.35" font-family="Helvetica,sans-Serif" font-size="11.00">C&#45;in: 4, C&#45;out: 2</text>
<text xml:space="preserve" text-anchor="start" x="425.8" y="-234.35" font-family="Helvetica,sans-Serif" font-size="11.00">Params: 8</text>
<text xml:space="preserve" text-anchor="start" x="423.18" y="-223.35" font-family="Helvetica,sans-Serif" font-size="11.00">Scope: 0, 1</text>
</g>
<!-- 4489374576&#45;&gt;4489374672 -->
<g id="edge17" class="edge">
<title>4489374576&#45;&gt;4489374672</title>
<path fill="none" stroke="#333333" stroke-width="2" d="M418.76,-272.66C401.67,-287.63 380.6,-306.09 363.23,-321.31"/>
<polygon fill="#333333" stroke="#333333" stroke-width="2" points="361.48,-319.12 357.31,-326.49 365.17,-323.33 361.48,-319.12"/>
</g>
<!-- 4484565808 -->
<g id="node13" class="node">
<title>4484565808</title>
<path fill="white" stroke="#ff7f0e" stroke-width="2.5" d="M410.73,-158.04C410.73,-158.04 358.38,-158.04 358.38,-158.04 352.38,-158.04 346.38,-152.04 346.38,-146.04 346.38,-146.04 346.38,-125.52 346.38,-125.52 346.38,-119.52 352.38,-113.52 358.38,-113.52 358.38,-113.52 410.73,-113.52 410.73,-113.52 416.73,-113.52 422.73,-119.52 422.73,-125.52 422.73,-125.52 422.73,-146.04 422.73,-146.04 422.73,-152.04 416.73,-158.04 410.73,-158.04"/>
<text xml:space="preserve" text-anchor="start" x="363.55" y="-142.83" font-family="Helvetica,sans-Serif" font-weight="bold" font-size="11.00">Product</text>
<text xml:space="preserve" text-anchor="start" x="361.3" y="-131.83" font-family="Helvetica,sans-Serif" font-size="11.00">D: 1, C: 2</text>
<text xml:space="preserve" text-anchor="start" x="357.18" y="-120.83" font-family="Helvetica,sans-Serif" font-size="11.00">Scope: 0, 1</text>
</g>
<!-- 4484565808&#45;&gt;4489374576 -->
<g id="edge13" class="edge">
<title>4484565808&#45;&gt;4489374576</title>
<path fill="none" stroke="#333333" stroke-width="2" d="M398.55,-159.26C406.94,-172.75 417.83,-190.25 427.48,-205.73"/>
<polygon fill="#333333" stroke="#333333" stroke-width="2" points="425.08,-207.18 431.68,-212.5 429.83,-204.22 425.08,-207.18"/>
</g>
<!-- 4315535728 -->
<g id="node14" class="node">
<title>4315535728</title>
<path fill="white" stroke="#2ca02c" stroke-width="2.5" d="M399.35,-55.52C399.35,-55.52 341.75,-55.52 341.75,-55.52 335.75,-55.52 329.75,-49.52 329.75,-43.52 329.75,-43.52 329.75,-12 329.75,-12 329.75,-6 335.75,0 341.75,0 341.75,0 399.35,0 399.35,0 405.35,0 411.35,-6 411.35,-12 411.35,-12 411.35,-43.52 411.35,-43.52 411.35,-49.52 405.35,-55.52 399.35,-55.52"/>
<text xml:space="preserve" text-anchor="start" x="340.55" y="-40.31" font-family="Helvetica,sans-Serif" font-weight="bold" font-size="11.00">Categorical</text>
<text xml:space="preserve" text-anchor="start" x="347.3" y="-29.31" font-family="Helvetica,sans-Serif" font-size="11.00">D: 1, C: 2</text>
<text xml:space="preserve" text-anchor="start" x="345.8" y="-18.31" font-family="Helvetica,sans-Serif" font-size="11.00">Params: 6</text>
<text xml:space="preserve" text-anchor="start" x="349.18" y="-7.31" font-family="Helvetica,sans-Serif" font-size="11.00">Scope: 1</text>
</g>
<!-- 4315535728&#45;&gt;4484565808 -->
<g id="edge11" class="edge">
<title>4315535728&#45;&gt;4484565808</title>
<path fill="none" stroke="#333333" stroke-width="2" d="M374.23,-56.62C376.06,-70.5 378.29,-87.38 380.21,-101.9"/>
<polygon fill="#333333" stroke="#333333" stroke-width="2" points="377.38,-101.88 381.2,-109.45 382.93,-101.15 377.38,-101.88"/>
</g>
<!-- 4486844912 -->
<g id="node15" class="node">
<title>4486844912</title>
<path fill="white" stroke="#2ca02c" stroke-width="2.5" d="M506.1,-55.52C506.1,-55.52 459,-55.52 459,-55.52 453,-55.52 447,-49.52 447,-43.52 447,-43.52 447,-12 447,-12 447,-6 453,0 459,0 459,0 506.1,0 506.1,0 512.1,0 518.1,-6 518.1,-12 518.1,-12 518.1,-43.52 518.1,-43.52 518.1,-49.52 512.1,-55.52 506.1,-55.52"/>
<text xml:space="preserve" text-anchor="start" x="463.43" y="-40.31" font-family="Helvetica,sans-Serif" font-weight="bold" font-size="11.00">Normal</text>
<text xml:space="preserve" text-anchor="start" x="459.3" y="-29.31" font-family="Helvetica,sans-Serif" font-size="11.00">D: 1, C: 2</text>
<text xml:space="preserve" text-anchor="start" x="457.8" y="-18.31" font-family="Helvetica,sans-Serif" font-size="11.00">Params: 4</text>
<text xml:space="preserve" text-anchor="start" x="461.18" y="-7.31" font-family="Helvetica,sans-Serif" font-size="11.00">Scope: 0</text>
</g>
<!-- 4486844912&#45;&gt;4484565808 -->
<g id="edge12" class="edge">
<title>4486844912&#45;&gt;4484565808</title>
<path fill="none" stroke="#333333" stroke-width="2" d="M456.8,-56.62C443.21,-71.32 426.52,-89.38 412.6,-104.43"/>
<polygon fill="#333333" stroke="#333333" stroke-width="2" points="410.62,-102.45 407.25,-110.23 414.73,-106.25 410.62,-102.45"/>
</g>
<!-- 4489374288 -->
<g id="node16" class="node">
<title>4489374288</title>
<path fill="white" stroke="#ff7f0e" stroke-width="2.5" d="M522.73,-158.04C522.73,-158.04 470.38,-158.04 470.38,-158.04 464.38,-158.04 458.38,-152.04 458.38,-146.04 458.38,-146.04 458.38,-125.52 458.38,-125.52 458.38,-119.52 464.38,-113.52 470.38,-113.52 470.38,-113.52 522.73,-113.52 522.73,-113.52 528.73,-113.52 534.73,-119.52 534.73,-125.52 534.73,-125.52 534.73,-146.04 534.73,-146.04 534.73,-152.04 528.73,-158.04 522.73,-158.04"/>
<text xml:space="preserve" text-anchor="start" x="475.55" y="-142.83" font-family="Helvetica,sans-Serif" font-weight="bold" font-size="11.00">Product</text>
<text xml:space="preserve" text-anchor="start" x="473.3" y="-131.83" font-family="Helvetica,sans-Serif" font-size="11.00">D: 1, C: 2</text>
<text xml:space="preserve" text-anchor="start" x="469.18" y="-120.83" font-family="Helvetica,sans-Serif" font-size="11.00">Scope: 0, 1</text>
</g>
<!-- 4486844912&#45;&gt;4489374288 -->
<g id="edge15" class="edge">
<title>4486844912&#45;&gt;4489374288</title>
<path fill="none" stroke="#333333" stroke-width="2" d="M486.23,-56.62C488.06,-70.5 490.29,-87.38 492.21,-101.9"/>
<polygon fill="#333333" stroke="#333333" stroke-width="2" points="489.38,-101.88 493.2,-109.45 494.93,-101.15 489.38,-101.88"/>
</g>
<!-- 4489374288&#45;&gt;4489374576 -->
<g id="edge16" class="edge">
<title>4489374288&#45;&gt;4489374576</title>
<path fill="none" stroke="#333333" stroke-width="2" d="M486.79,-159.26C481,-172.63 473.5,-189.92 466.82,-205.3"/>
<polygon fill="#333333" stroke="#333333" stroke-width="2" points="464.4,-203.84 463.79,-212.29 469.54,-206.06 464.4,-203.84"/>
</g>
<!-- 4315533568 -->
<g id="node17" class="node">
<title>4315533568</title>
<path fill="white" stroke="#2ca02c" stroke-width="2.5" d="M623.35,-55.52C623.35,-55.52 565.75,-55.52 565.75,-55.52 559.75,-55.52 553.75,-49.52 553.75,-43.52 553.75,-43.52 553.75,-12 553.75,-12 553.75,-6 559.75,0 565.75,0 565.75,0 623.35,0 623.35,0 629.35,0 635.35,-6 635.35,-12 635.35,-12 635.35,-43.52 635.35,-43.52 635.35,-49.52 629.35,-55.52 623.35,-55.52"/>
<text xml:space="preserve" text-anchor="start" x="564.55" y="-40.31" font-family="Helvetica,sans-Serif" font-weight="bold" font-size="11.00">Categorical</text>
<text xml:space="preserve" text-anchor="start" x="571.3" y="-29.31" font-family="Helvetica,sans-Serif" font-size="11.00">D: 1, C: 2</text>
<text xml:space="preserve" text-anchor="start" x="569.8" y="-18.31" font-family="Helvetica,sans-Serif" font-size="11.00">Params: 6</text>
<text xml:space="preserve" text-anchor="start" x="573.17" y="-7.31" font-family="Helvetica,sans-Serif" font-size="11.00">Scope: 1</text>
</g>
<!-- 4315533568&#45;&gt;4489374288 -->
<g id="edge14" class="edge">
<title>4315533568&#45;&gt;4489374288</title>
<path fill="none" stroke="#333333" stroke-width="2" d="M568.8,-56.62C555.21,-71.32 538.52,-89.38 524.6,-104.43"/>
<polygon fill="#333333" stroke="#333333" stroke-width="2" points="522.62,-102.45 519.25,-110.23 526.73,-106.25 522.62,-102.45"/>
</g>
</g>
</svg>
