<?xml version="1.0" encoding="UTF-8" standalone="no"?>
<!-- Created with Inkscape (http://www.inkscape.org/) -->

<svg
   xmlns:dc="http://purl.org/dc/elements/1.1/"
   xmlns:cc="http://creativecommons.org/ns#"
   xmlns:rdf="http://www.w3.org/1999/02/22-rdf-syntax-ns#"
   xmlns:svg="http://www.w3.org/2000/svg"
   xmlns="http://www.w3.org/2000/svg"
   xmlns:sodipodi="http://sodipodi.sourceforge.net/DTD/sodipodi-0.dtd"
   xmlns:inkscape="http://www.inkscape.org/namespaces/inkscape"
   width="210mm"
   height="297mm"
   viewBox="0 0 744.09448819 1052.3622047"
   id="svg2"
   version="1.1"
   inkscape:version="0.91 r13725"
   sodipodi:docname="logo.svg">
  <defs
     id="defs4" />
  <sodipodi:namedview
     id="base"
     pagecolor="#ffffff"
     bordercolor="#666666"
     borderopacity="1.0"
     inkscape:pageopacity="0.0"
     inkscape:pageshadow="2"
     inkscape:zoom="1.979899"
     inkscape:cx="284.09989"
     inkscape:cy="584.50183"
     inkscape:document-units="px"
     inkscape:current-layer="g3409"
     showgrid="false"
     inkscape:window-width="3840"
     inkscape:window-height="2057"
     inkscape:window-x="3302"
     inkscape:window-y="0"
     inkscape:window-maximized="1" />
  <metadata
     id="metadata7">
    <rdf:RDF>
      <cc:Work
         rdf:about="">
        <dc:format>image/svg+xml</dc:format>
        <dc:type
           rdf:resource="http://purl.org/dc/dcmitype/StillImage" />
        <dc:title></dc:title>
      </cc:Work>
    </rdf:RDF>
  </metadata>
  <g
     inkscape:label="Layer 1"
     inkscape:groupmode="layer"
     id="layer1">
    <g
       id="g3409"
       transform="translate(-1177.9641,-83.450709)">
      <rect
         style="fill:#f9f9f9"
         id="rect3529"
         width="670"
         height="670"
         x="1230.8568"
         y="134.96428"
         inkscape:export-xdpi="107.46268"
         inkscape:export-ydpi="107.46268" />
      <path
         id="path3399"
         d="m 1698.1028,230.07325 0,13.14912 9.0787,0 c 6.1778,3.6e-4 11.9788,2.83227 17.4002,8.51558 3.9082,4.2633 6.4907,9.35785 7.7516,15.27801 1.639,7.81564 2.4605,23.92336 2.4605,48.31587 l 0,311.18406 c 0,28.89261 -1.5135,47.12423 -4.5394,54.70256 -4.7909,11.60438 -12.4825,17.40693 -23.0729,17.40695 l -9.0787,0 0,13.14906 110.0669,0 0,-13.14906 -9.2666,0 c -6.0517,0 -11.8529,-2.83183 -17.4,-8.51564 -4.0345,-4.26282 -6.6787,-9.35738 -7.9395,-15.27802 -1.639,-7.81516 -2.4607,-23.92286 -2.4605,-48.31585 l 0,-151.33425 46.7093,0 c 8.5729,2.5e-4 15.0319,2.1992 19.3818,6.58025 4.3495,4.38147 7.7535,10.95568 10.2121,19.71795 2.4584,8.76273 3.7526,22.4916 3.8787,41.20052 l 7.0002,0 0,-96.9732 -87.1821,0 0,-189.34707 56.5454,0 c 13.364,3.3e-4 23.2273,2.36788 29.5941,7.10393 6.3667,4.7369 11.723,12.37875 16.0728,22.91699 4.3495,10.5391 8.1644,27.05887 11.4425,49.55677 l 6.6183,0 -2.4546,-105.86453 -190.8188,0 z"
         inkscape:connector-curvature="0"
         inkscape:export-xdpi="107.46268"
         inkscape:export-ydpi="107.46268" />
      <g
         id="g3519"
         transform="matrix(0.90682969,0,0,1.5954116,1179.9978,-817.58117)"
         style="fill:#003380"
         inkscape:export-xdpi="107.46268"
         inkscape:export-ydpi="107.46268">
        <text
           id="text2171"
           y="-946.41162"
           x="-471.24011"
           style="font-style:normal;font-weight:normal;font-size:12px;font-family:Lello;fill:#003380;fill-opacity:1;stroke:none;stroke-width:1px;stroke-linecap:butt;stroke-linejoin:miter;stroke-opacity:1"
           xml:space="preserve"><tspan
             y="-946.41162"
             x="-471.24011"
             id="tspan2173"
             sodipodi:role="line" /></text>
        <path
           id="text2175"
           d="m 503.56448,657.11317 -156.12231,0 0,256.8944 c -10e-5,22.1733 2.85428,36.2383 8.56315,42.1953 5.70865,5.9569 19.07046,9.2664 40.08548,9.9282 l 0,9.1837 -144.953,0 0,-9.1837 c 20.84937,-0.6618 34.16981,-3.9713 39.96135,-9.9282 5.79145,-5.957 8.6872,-20.022 8.68726,-42.1953 l 0,-213.9546 c -6e-5,-22.1729 -2.89581,-36.2379 -8.68726,-42.1952 -5.79154,-5.9567 -19.11198,-9.2661 -39.96135,-9.9283 l 0,-9.1837 348.7311,0 0,9.1837 c -20.84974,0.6622 -34.1702,3.9716 -39.96136,9.9283 -5.79183,5.9573 -8.68757,20.0223 -8.68727,42.1952 l 0,213.9546 c 0,22.1733 2.89544,36.2383 8.68727,42.1953 5.79116,5.9569 19.11162,9.2664 39.96136,9.9282 l 0,9.1837 -144.70482,0 0,-9.1837 c 20.68368,-0.6618 33.92138,-3.9299 39.71314,-9.8042 5.79125,-5.8742 8.68699,-19.9806 8.68726,-42.3193 z"
           style="font-style:normal;font-weight:normal;font-size:2050.27807617px;font-family:'Times New Roman';fill:#003380;fill-opacity:1;stroke:none;stroke-width:1px;stroke-linecap:butt;stroke-linejoin:miter;stroke-opacity:1"
           inkscape:connector-curvature="0"
           sodipodi:nodetypes="ccscccccssscccccscscccccccc" />
      </g>
      <g
         id="layer1-3"
         transform="matrix(4.7485726,0,0,8.6758939,1182.0439,-8256.3442)"
         style="fill:#800000"
         inkscape:export-xdpi="107.46268"
         inkscape:export-ydpi="107.46268">
        <path
           style="color:#000000;font-style:normal;font-variant:normal;font-weight:normal;font-stretch:normal;font-size:medium;line-height:normal;font-family:Sans;-inkscape-font-specification:Sans;text-indent:0;text-align:start;text-decoration:none;text-decoration-line:none;letter-spacing:normal;word-spacing:normal;text-transform:none;direction:ltr;block-progression:tb;writing-mode:lr-tb;baseline-shift:baseline;text-anchor:start;display:inline;overflow:visible;visibility:visible;fill:#800000;fill-opacity:1;stroke:none;stroke-width:5;marker:none;enable-background:accumulate"
           id="path4755-5"
           d="m 50.986165,977.75203 c -0.693243,0.42867 -15.879476,6.99002 -37.772973,14.04111 -0.844224,0.28201 -1.637326,0.29156 -1.603251,1.95924 0.03388,1.66769 -0.0076,2.25921 0.754766,2.43524 0.632601,0.14599 2.757222,0.8896 9.747978,4.83158 6.574173,3.7072 8.87285,5.0651 8.877244,5.7055 0.0047,0.6405 -2.173379,2.1513 -8.360079,5.6267 -8.781105,4.9328 -9.939736,5.0184 -10.403254,5.0938 -0.604307,0.098 -0.634253,0.7757 -0.582344,2.2929 0.04755,1.3916 0.841472,1.7444 1.744011,1.9839 23.445134,6.0419 37.31887,12.15 38.52324,12.4639 0.804881,0.2098 1.216719,-0.7422 1.708731,-2.275 0.492003,-1.5328 0.853326,-2.8128 0.106334,-3.2564 -0.99027,-0.5881 -13.304453,-4.445 -33.593056,-9.9756 l 17.494667,-9.8871 c 0.742266,-0.4203 1.232295,-0.4799 1.20308,-2.1192 -0.02553,-1.4427 -0.537904,-1.676 -1.298593,-2.062 0,0 -9.478342,-5.04677 -17.927415,-10.04073 19.03669,-6.3511 32.755714,-11.4756 33.473881,-11.70973 0.846027,-0.27582 0.365499,-1.18258 -0.189119,-2.9941 -0.554637,-1.81151 -1.191054,-2.55479 -1.903848,-2.11401 z"
           inkscape:connector-curvature="0" />
      </g>
    </g>
  </g>
</svg>
