<?xml version="1.0" encoding="UTF-8" standalone="no"?>
<svg xmlns="http://www.w3.org/2000/svg" xmlns:xlink="http://www.w3.org/1999/xlink" contentStyleType="text/css" height="359px" preserveAspectRatio="none" style="width:288px;height:359px;background:#FFFFFF;" version="1.1" viewBox="0 0 288 359" width="288px" zoomAndPan="magnify"><defs/><g><!--MD5=[2b7409a316d9d2e410653e6983353aed]
class Module--><g id="elem_Module"><rect codeLine="1" fill="#F1F1F1" height="48" id="Module" rx="2.5" ry="2.5" style="stroke:#181818;stroke-width:0.5;" width="84" x="169.5" y="7"/><ellipse cx="184.5" cy="23" fill="#A9DCDF" rx="11" ry="11" style="stroke:#181818;stroke-width:1.0;"/><path d="M186.5781,24.8125 L186.9688,25.7969 L186.5781,25.7969 C186.125,25.7969 186.0156,25.8125 185.8594,25.9219 C185.6094,26.0781 185.4531,26.3594 185.4531,26.6563 C185.4531,26.9219 185.5938,27.1719 185.8125,27.3281 C185.9531,27.4531 186.1563,27.5 186.5781,27.5 L188.9375,27.5 C189.2969,27.5 189.5156,27.4688 189.6563,27.375 C189.9063,27.2344 190.0625,26.9375 190.0625,26.6563 C190.0625,26.375 189.9219,26.125 189.7031,25.9688 C189.5313,25.8281 189.375,25.7969 188.9063,25.7969 L185.5156,17.5938 L181.8438,17.5938 C181.3906,17.5938 181.2656,17.6094 181.1094,17.7031 C180.8594,17.875 180.7031,18.1563 180.7031,18.4375 C180.7031,18.7188 180.8438,18.9688 181.0625,19.1406 C181.2344,19.25 181.4063,19.2813 181.8438,19.2813 L182.9219,19.2813 L180.2813,25.7969 C179.8594,25.7969 179.7031,25.8125 179.5469,25.9219 C179.2969,26.0781 179.1406,26.3594 179.1406,26.6563 C179.1406,27.2188 179.5156,27.5 180.2656,27.5 L182.5313,27.5 C182.8906,27.5 183.1094,27.4688 183.2344,27.375 C183.5,27.2344 183.6406,26.9375 183.6406,26.6563 C183.6406,26.375 183.5156,26.125 183.2969,25.9531 C183.125,25.8281 182.9844,25.7969 182.5313,25.7969 L182.1406,25.7969 L182.5313,24.8125 L186.5781,24.8125 Z M185.875,23.1094 L183.2031,23.1094 L184.5469,19.8438 L185.875,23.1094 Z " fill="#000000"/><text fill="#000000" font-family="sans-serif" font-size="14" font-style="italic" lengthAdjust="spacing" textLength="52" x="198.5" y="27.8467">Module</text><line style="stroke:#181818;stroke-width:0.5;" x1="170.5" x2="252.5" y1="39" y2="39"/><line style="stroke:#181818;stroke-width:0.5;" x1="170.5" x2="252.5" y1="47" y2="47"/></g><!--MD5=[a9c5adf0d69ef1b6045b65136973a6ef]
class NestingModule--><g id="elem_NestingModule"><rect codeLine="3" fill="#F1F1F1" height="96.8906" id="NestingModule" rx="2.5" ry="2.5" style="stroke:#181818;stroke-width:0.5;" width="237" x="7" y="115"/><ellipse cx="68.75" cy="131" fill="#A9DCDF" rx="11" ry="11" style="stroke:#181818;stroke-width:1.0;"/><path d="M70.8281,132.8125 L71.2188,133.7969 L70.8281,133.7969 C70.375,133.7969 70.2656,133.8125 70.1094,133.9219 C69.8594,134.0781 69.7031,134.3594 69.7031,134.6563 C69.7031,134.9219 69.8438,135.1719 70.0625,135.3281 C70.2031,135.4531 70.4063,135.5 70.8281,135.5 L73.1875,135.5 C73.5469,135.5 73.7656,135.4688 73.9063,135.375 C74.1563,135.2344 74.3125,134.9375 74.3125,134.6563 C74.3125,134.375 74.1719,134.125 73.9531,133.9688 C73.7813,133.8281 73.625,133.7969 73.1563,133.7969 L69.7656,125.5938 L66.0938,125.5938 C65.6406,125.5938 65.5156,125.6094 65.3594,125.7031 C65.1094,125.875 64.9531,126.1563 64.9531,126.4375 C64.9531,126.7188 65.0938,126.9688 65.3125,127.1406 C65.4844,127.25 65.6563,127.2813 66.0938,127.2813 L67.1719,127.2813 L64.5313,133.7969 C64.1094,133.7969 63.9531,133.8125 63.7969,133.9219 C63.5469,134.0781 63.3906,134.3594 63.3906,134.6563 C63.3906,135.2188 63.7656,135.5 64.5156,135.5 L66.7813,135.5 C67.1406,135.5 67.3594,135.4688 67.4844,135.375 C67.75,135.2344 67.8906,134.9375 67.8906,134.6563 C67.8906,134.375 67.7656,134.125 67.5469,133.9531 C67.375,133.8281 67.2344,133.7969 66.7813,133.7969 L66.3906,133.7969 L66.7813,132.8125 L70.8281,132.8125 Z M70.125,131.1094 L67.4531,131.1094 L68.7969,127.8438 L70.125,131.1094 Z " fill="#000000"/><text fill="#000000" font-family="sans-serif" font-size="14" font-style="italic" lengthAdjust="spacing" textLength="105" x="89.25" y="135.8467">NestingModule</text><line style="stroke:#181818;stroke-width:0.5;" x1="8" x2="243" y1="147" y2="147"/><text fill="#000000" font-family="sans-serif" font-size="14" lengthAdjust="spacing" textLength="225" x="13" y="163.9951">placeholders : List[Placeholder]</text><line style="stroke:#181818;stroke-width:1.0;" x1="8" x2="243" y1="171.2969" y2="171.2969"/><text fill="#000000" font-family="sans-serif" font-size="14" lengthAdjust="spacing" textLength="164" x="13" y="188.292">create_placeholder(...)</text><text fill="#000000" font-family="sans-serif" font-size="14" lengthAdjust="spacing" textLength="147" x="13" y="204.5889">set_placeholders(...)</text></g><!--MD5=[ed563b05b877ef8d8db3538528b39a9d]
class Placeholder--><g id="elem_Placeholder"><rect codeLine="10" fill="#F1F1F1" height="80.5938" id="Placeholder" rx="2.5" ry="2.5" style="stroke:#181818;stroke-width:0.5;" width="116" x="67.5" y="272"/><ellipse cx="82.5" cy="288" fill="#ADD1B2" rx="11" ry="11" style="stroke:#181818;stroke-width:1.0;"/><path d="M84.8438,283.6719 C83.9063,283.2344 83.3125,283.0938 82.4375,283.0938 C79.8125,283.0938 77.8125,285.1719 77.8125,287.8906 L77.8125,289.0156 C77.8125,291.5938 79.9219,293.4844 82.8125,293.4844 C84.0313,293.4844 85.1875,293.1875 85.9375,292.6406 C86.5156,292.2344 86.8438,291.7813 86.8438,291.3906 C86.8438,290.9375 86.4531,290.5469 85.9844,290.5469 C85.7656,290.5469 85.5625,290.625 85.375,290.8125 C84.9219,291.2969 84.9219,291.2969 84.7344,291.3906 C84.3125,291.6563 83.625,291.7813 82.8594,291.7813 C80.8125,291.7813 79.5156,290.6875 79.5156,288.9844 L79.5156,287.8906 C79.5156,286.1094 80.7656,284.7969 82.5,284.7969 C83.0781,284.7969 83.6875,284.9531 84.1563,285.2031 C84.6406,285.4844 84.8125,285.7031 84.9063,286.1094 C84.9688,286.5156 85,286.6406 85.1406,286.7656 C85.2813,286.9063 85.5156,287.0156 85.7344,287.0156 C86,287.0156 86.2656,286.875 86.4375,286.6563 C86.5469,286.5 86.5781,286.3125 86.5781,285.8906 L86.5781,284.4688 C86.5781,284.0313 86.5625,283.9063 86.4688,283.75 C86.3125,283.4844 86.0313,283.3438 85.7344,283.3438 C85.4375,283.3438 85.2344,283.4375 85.0156,283.75 L84.8438,283.6719 Z " fill="#000000"/><text fill="#000000" font-family="sans-serif" font-size="14" lengthAdjust="spacing" textLength="84" x="96.5" y="292.8467">Placeholder</text><line style="stroke:#181818;stroke-width:0.5;" x1="68.5" x2="182.5" y1="304" y2="304"/><text fill="#000000" font-family="sans-serif" font-size="14" lengthAdjust="spacing" textLength="65" x="73.5" y="320.9951">input_ids</text><text fill="#000000" font-family="sans-serif" font-size="14" lengthAdjust="spacing" textLength="44" x="73.5" y="337.292">owner</text><line style="stroke:#181818;stroke-width:0.5;" x1="68.5" x2="182.5" y1="344.5938" y2="344.5938"/></g><!--MD5=[fea0c87994cc0e6cff7f375e4fbefb9e]
reverse link Module to NestingModule--><g id="link_Module_NestingModule"><path codeLine="15" d="M185.059,72.122 C176.162,85.623 166.148,100.819 156.906,114.843 " fill="none" id="Module-backto-NestingModule" style="stroke:#181818;stroke-width:1.0;"/><polygon fill="none" points="179.473,67.878,196.323,55.03,191.163,75.582,179.473,67.878" style="stroke:#181818;stroke-width:1.0;"/></g><!--MD5=[4982a4d849352280d5237884273d8fd1]
reverse link Module to Placeholder--><g id="link_Module_Placeholder"><path codeLine="16" d="M241.551,72.002 C249.66,85.034 257.336,100.018 261.5,115 C273.045,156.537 281.008,173.555 261.5,212 C245.084,244.35 212.663,268.7057 183.593,285.2215 " fill="none" id="Module-backto-Placeholder" style="stroke:#181818;stroke-width:1.0;"/><polygon fill="none" points="235.517,75.575,230.121,55.084,247.118,67.738,235.517,75.575" style="stroke:#181818;stroke-width:1.0;"/></g><!--MD5=[a103b1852e3e4994c1d924981decf2f9]
reverse link NestingModule to Placeholder--><g id="link_NestingModule_Placeholder"><path codeLine="17" d="M112.865,227.572 C112.532,242.608 112.923,258.2374 114.039,271.8755 " fill="none" id="NestingModule-backto-Placeholder" style="stroke:#181818;stroke-width:1.0;"/><ellipse cx="113.1571" cy="220.2207" fill="#FFFFFF" rx="8" ry="8" style="stroke:#181818;stroke-width:1.0;"/><line style="stroke:#181818;stroke-width:1.0;" x1="112.8401" x2="113.474" y1="228.2144" y2="212.227"/><line style="stroke:#181818;stroke-width:1.0;" x1="105.1633" x2="121.1508" y1="219.9038" y2="220.5377"/></g><!--MD5=[527b40695e3941cfb2eaf25170657751]
link NestingModule to Placeholder--><g id="link_NestingModule_Placeholder"><path codeLine="18" d="M138.233,212.227 C139.315,229.701 139.252,249.4 138.046,266.6173 " fill="none" id="NestingModule-to-Placeholder" style="stroke:#181818;stroke-width:1.0;"/><polygon fill="#181818" points="137.635,271.8755,142.3244,263.2147,138.0248,266.8907,134.3487,262.5911,137.635,271.8755" style="stroke:#181818;stroke-width:1.0;"/></g><!--MD5=[d1040c3c33c2a0ca2b63fc93ec14be9c]
@startuml
abstract class Module

abstract class NestingModule {
  placeholders : List[Placeholder]
  - - -
  create_placeholder(...)
  set_placeholders(...)
}

class Placeholder {
  input_ids
  owner
}

Module <|- - NestingModule
Module <|- - Placeholder
NestingModule +- - Placeholder
NestingModule - -> Placeholder
@enduml

PlantUML version 1.2022.3beta2(Unknown compile time)
(GPL source distribution)
Java Runtime: Java(TM) SE Runtime Environment
JVM: Java HotSpot(TM) 64-Bit Server VM
Default Encoding: UTF-8
Language: en
Country: US
--></g></svg>