<?xml version="1.0" encoding="UTF-8" standalone="no"?>
<svg xmlns="http://www.w3.org/2000/svg" xmlns:xlink="http://www.w3.org/1999/xlink" contentStyleType="text/css" height="101px" preserveAspectRatio="none" style="width:214px;height:101px;background:#FFFFFF;" version="1.1" viewBox="0 0 214 101" width="214px" zoomAndPan="magnify"><defs/><g><!--MD5=[fabaab2f6b67740d10809991aa86b306]
class SamplingContext--><g id="elem_SamplingContext"><rect codeLine="1" fill="#F1F1F1" height="80.5938" id="SamplingContext" rx="2.5" ry="2.5" style="stroke:#181818;stroke-width:0.5;" width="193" x="7" y="7"/><ellipse cx="37.75" cy="23" fill="#ADD1B2" rx="11" ry="11" style="stroke:#181818;stroke-width:1.0;"/><path d="M40.0938,18.6719 C39.1563,18.2344 38.5625,18.0938 37.6875,18.0938 C35.0625,18.0938 33.0625,20.1719 33.0625,22.8906 L33.0625,24.0156 C33.0625,26.5938 35.1719,28.4844 38.0625,28.4844 C39.2813,28.4844 40.4375,28.1875 41.1875,27.6406 C41.7656,27.2344 42.0938,26.7813 42.0938,26.3906 C42.0938,25.9375 41.7031,25.5469 41.2344,25.5469 C41.0156,25.5469 40.8125,25.625 40.625,25.8125 C40.1719,26.2969 40.1719,26.2969 39.9844,26.3906 C39.5625,26.6563 38.875,26.7813 38.1094,26.7813 C36.0625,26.7813 34.7656,25.6875 34.7656,23.9844 L34.7656,22.8906 C34.7656,21.1094 36.0156,19.7969 37.75,19.7969 C38.3281,19.7969 38.9375,19.9531 39.4063,20.2031 C39.8906,20.4844 40.0625,20.7031 40.1563,21.1094 C40.2188,21.5156 40.25,21.6406 40.3906,21.7656 C40.5313,21.9063 40.7656,22.0156 40.9844,22.0156 C41.25,22.0156 41.5156,21.875 41.6875,21.6563 C41.7969,21.5 41.8281,21.3125 41.8281,20.8906 L41.8281,19.4688 C41.8281,19.0313 41.8125,18.9063 41.7188,18.75 C41.5625,18.4844 41.2813,18.3438 40.9844,18.3438 C40.6875,18.3438 40.4844,18.4375 40.2656,18.75 L40.0938,18.6719 Z " fill="#000000"/><text fill="#000000" font-family="sans-serif" font-size="14" lengthAdjust="spacing" textLength="126" x="55.25" y="27.8467">SamplingContext</text><line style="stroke:#181818;stroke-width:0.5;" x1="8" x2="199" y1="39" y2="39"/><text fill="#000000" font-family="sans-serif" font-size="14" lengthAdjust="spacing" textLength="157" x="13" y="55.9951">instance_ids : List[int]</text><text fill="#000000" font-family="sans-serif" font-size="14" lengthAdjust="spacing" textLength="181" x="13" y="72.292">output_ids : List[List[int]]</text><line style="stroke:#181818;stroke-width:0.5;" x1="8" x2="199" y1="79.5938" y2="79.5938"/></g><!--MD5=[16994ce643aa2333ebdcfaa91c6cf260]
@startuml
class SamplingContext {
  instance_ids : List[int]
  output_ids : List[List[int]]
}
@enduml

PlantUML version 1.2022.3beta2(Unknown compile time)
(GPL source distribution)
Java Runtime: Java(TM) SE Runtime Environment
JVM: Java HotSpot(TM) 64-Bit Server VM
Default Encoding: UTF-8
Language: en
Country: US
--></g></svg>