<?xml version="1.0" encoding="UTF-8" standalone="no"?>
<svg xmlns="http://www.w3.org/2000/svg" xmlns:xlink="http://www.w3.org/1999/xlink" contentStyleType="text/css" height="202px" preserveAspectRatio="none" style="width:419px;height:202px;background:#FFFFFF;" version="1.1" viewBox="0 0 419 202" width="419px" zoomAndPan="magnify"><defs/><g><!--MD5=[dcc2607c48d7949f71538576236c9492]
class NetworkType--><g id="elem_NetworkType"><rect codeLine="1" fill="#F1F1F1" height="48" id="NetworkType" rx="2.5" ry="2.5" style="stroke:#181818;stroke-width:0.5;" width="125" x="65.5" y="7"/><ellipse cx="80.5" cy="23" fill="#A9DCDF" rx="11" ry="11" style="stroke:#181818;stroke-width:1.0;"/><path d="M82.5781,24.8125 L82.9688,25.7969 L82.5781,25.7969 C82.125,25.7969 82.0156,25.8125 81.8594,25.9219 C81.6094,26.0781 81.4531,26.3594 81.4531,26.6563 C81.4531,26.9219 81.5938,27.1719 81.8125,27.3281 C81.9531,27.4531 82.1563,27.5 82.5781,27.5 L84.9375,27.5 C85.2969,27.5 85.5156,27.4688 85.6563,27.375 C85.9063,27.2344 86.0625,26.9375 86.0625,26.6563 C86.0625,26.375 85.9219,26.125 85.7031,25.9688 C85.5313,25.8281 85.375,25.7969 84.9063,25.7969 L81.5156,17.5938 L77.8438,17.5938 C77.3906,17.5938 77.2656,17.6094 77.1094,17.7031 C76.8594,17.875 76.7031,18.1563 76.7031,18.4375 C76.7031,18.7188 76.8438,18.9688 77.0625,19.1406 C77.2344,19.25 77.4063,19.2813 77.8438,19.2813 L78.9219,19.2813 L76.2813,25.7969 C75.8594,25.7969 75.7031,25.8125 75.5469,25.9219 C75.2969,26.0781 75.1406,26.3594 75.1406,26.6563 C75.1406,27.2188 75.5156,27.5 76.2656,27.5 L78.5313,27.5 C78.8906,27.5 79.1094,27.4688 79.2344,27.375 C79.5,27.2344 79.6406,26.9375 79.6406,26.6563 C79.6406,26.375 79.5156,26.125 79.2969,25.9531 C79.125,25.8281 78.9844,25.7969 78.5313,25.7969 L78.1406,25.7969 L78.5313,24.8125 L82.5781,24.8125 Z M81.875,23.1094 L79.2031,23.1094 L80.5469,19.8438 L81.875,23.1094 Z " fill="#000000"/><text fill="#000000" font-family="sans-serif" font-size="14" font-style="italic" lengthAdjust="spacing" textLength="93" x="94.5" y="27.8467">NetworkType</text><line style="stroke:#181818;stroke-width:0.5;" x1="66.5" x2="189.5" y1="39" y2="39"/><line style="stroke:#181818;stroke-width:0.5;" x1="66.5" x2="189.5" y1="47" y2="47"/></g><!--MD5=[0417168d75c47ce8d429e9f7d7ecdd1e]
class SPN--><g id="elem_SPN"><rect fill="#F1F1F1" height="48" id="SPN" rx="2.5" ry="2.5" style="stroke:#181818;stroke-width:0.5;" width="60" x="7" y="131.5"/><ellipse cx="22" cy="147.5" fill="#ADD1B2" rx="11" ry="11" style="stroke:#181818;stroke-width:1.0;"/><path d="M24.3438,143.1719 C23.4063,142.7344 22.8125,142.5938 21.9375,142.5938 C19.3125,142.5938 17.3125,144.6719 17.3125,147.3906 L17.3125,148.5156 C17.3125,151.0938 19.4219,152.9844 22.3125,152.9844 C23.5313,152.9844 24.6875,152.6875 25.4375,152.1406 C26.0156,151.7344 26.3438,151.2813 26.3438,150.8906 C26.3438,150.4375 25.9531,150.0469 25.4844,150.0469 C25.2656,150.0469 25.0625,150.125 24.875,150.3125 C24.4219,150.7969 24.4219,150.7969 24.2344,150.8906 C23.8125,151.1563 23.125,151.2813 22.3594,151.2813 C20.3125,151.2813 19.0156,150.1875 19.0156,148.4844 L19.0156,147.3906 C19.0156,145.6094 20.2656,144.2969 22,144.2969 C22.5781,144.2969 23.1875,144.4531 23.6563,144.7031 C24.1406,144.9844 24.3125,145.2031 24.4063,145.6094 C24.4688,146.0156 24.5,146.1406 24.6406,146.2656 C24.7813,146.4063 25.0156,146.5156 25.2344,146.5156 C25.5,146.5156 25.7656,146.375 25.9375,146.1563 C26.0469,146 26.0781,145.8125 26.0781,145.3906 L26.0781,143.9688 C26.0781,143.5313 26.0625,143.4063 25.9688,143.25 C25.8125,142.9844 25.5313,142.8438 25.2344,142.8438 C24.9375,142.8438 24.7344,142.9375 24.5156,143.25 L24.3438,143.1719 Z " fill="#000000"/><text fill="#000000" font-family="sans-serif" font-size="14" lengthAdjust="spacing" textLength="28" x="36" y="152.3467">SPN</text><line style="stroke:#181818;stroke-width:0.5;" x1="8" x2="66" y1="163.5" y2="163.5"/><line style="stroke:#181818;stroke-width:0.5;" x1="8" x2="66" y1="171.5" y2="171.5"/></g><!--MD5=[2ae4bcd515457a80f1b14dd6bd1171b4]
class BN--><g id="elem_BN"><rect fill="#F1F1F1" height="48" id="BN" rx="2.5" ry="2.5" style="stroke:#181818;stroke-width:0.5;" width="52" x="102" y="131.5"/><ellipse cx="117" cy="147.5" fill="#ADD1B2" rx="11" ry="11" style="stroke:#181818;stroke-width:1.0;"/><path d="M119.3438,143.1719 C118.4063,142.7344 117.8125,142.5938 116.9375,142.5938 C114.3125,142.5938 112.3125,144.6719 112.3125,147.3906 L112.3125,148.5156 C112.3125,151.0938 114.4219,152.9844 117.3125,152.9844 C118.5313,152.9844 119.6875,152.6875 120.4375,152.1406 C121.0156,151.7344 121.3438,151.2813 121.3438,150.8906 C121.3438,150.4375 120.9531,150.0469 120.4844,150.0469 C120.2656,150.0469 120.0625,150.125 119.875,150.3125 C119.4219,150.7969 119.4219,150.7969 119.2344,150.8906 C118.8125,151.1563 118.125,151.2813 117.3594,151.2813 C115.3125,151.2813 114.0156,150.1875 114.0156,148.4844 L114.0156,147.3906 C114.0156,145.6094 115.2656,144.2969 117,144.2969 C117.5781,144.2969 118.1875,144.4531 118.6563,144.7031 C119.1406,144.9844 119.3125,145.2031 119.4063,145.6094 C119.4688,146.0156 119.5,146.1406 119.6406,146.2656 C119.7813,146.4063 120.0156,146.5156 120.2344,146.5156 C120.5,146.5156 120.7656,146.375 120.9375,146.1563 C121.0469,146 121.0781,145.8125 121.0781,145.3906 L121.0781,143.9688 C121.0781,143.5313 121.0625,143.4063 120.9688,143.25 C120.8125,142.9844 120.5313,142.8438 120.2344,142.8438 C119.9375,142.8438 119.7344,142.9375 119.5156,143.25 L119.3438,143.1719 Z " fill="#000000"/><text fill="#000000" font-family="sans-serif" font-size="14" lengthAdjust="spacing" textLength="20" x="131" y="152.3467">BN</text><line style="stroke:#181818;stroke-width:0.5;" x1="103" x2="153" y1="163.5" y2="163.5"/><line style="stroke:#181818;stroke-width:0.5;" x1="103" x2="153" y1="171.5" y2="171.5"/></g><!--MD5=[bece8b4c4229b3549b4a8159d27930ed]
class Scope--><g id="elem_Scope"><rect codeLine="5" fill="#F1F1F1" height="80.5938" id="Scope" rx="2.5" ry="2.5" style="stroke:#181818;stroke-width:0.5;" width="223" x="189.5" y="115"/><ellipse cx="274.25" cy="131" fill="#ADD1B2" rx="11" ry="11" style="stroke:#181818;stroke-width:1.0;"/><path d="M276.5938,126.6719 C275.6563,126.2344 275.0625,126.0938 274.1875,126.0938 C271.5625,126.0938 269.5625,128.1719 269.5625,130.8906 L269.5625,132.0156 C269.5625,134.5938 271.6719,136.4844 274.5625,136.4844 C275.7813,136.4844 276.9375,136.1875 277.6875,135.6406 C278.2656,135.2344 278.5938,134.7813 278.5938,134.3906 C278.5938,133.9375 278.2031,133.5469 277.7344,133.5469 C277.5156,133.5469 277.3125,133.625 277.125,133.8125 C276.6719,134.2969 276.6719,134.2969 276.4844,134.3906 C276.0625,134.6563 275.375,134.7813 274.6094,134.7813 C272.5625,134.7813 271.2656,133.6875 271.2656,131.9844 L271.2656,130.8906 C271.2656,129.1094 272.5156,127.7969 274.25,127.7969 C274.8281,127.7969 275.4375,127.9531 275.9063,128.2031 C276.3906,128.4844 276.5625,128.7031 276.6563,129.1094 C276.7188,129.5156 276.75,129.6406 276.8906,129.7656 C277.0313,129.9063 277.2656,130.0156 277.4844,130.0156 C277.75,130.0156 278.0156,129.875 278.1875,129.6563 C278.2969,129.5 278.3281,129.3125 278.3281,128.8906 L278.3281,127.4688 C278.3281,127.0313 278.3125,126.9063 278.2188,126.75 C278.0625,126.4844 277.7813,126.3438 277.4844,126.3438 C277.1875,126.3438 276.9844,126.4375 276.7656,126.75 L276.5938,126.6719 Z " fill="#000000"/><text fill="#000000" font-family="sans-serif" font-size="14" lengthAdjust="spacing" textLength="45" x="294.75" y="135.8467">Scope</text><line style="stroke:#181818;stroke-width:0.5;" x1="190.5" x2="411.5" y1="147" y2="147"/><text fill="#000000" font-family="sans-serif" font-size="14" lengthAdjust="spacing" textLength="133" x="195.5" y="163.9951">variables : List[int]</text><text fill="#000000" font-family="sans-serif" font-size="14" lengthAdjust="spacing" textLength="211" x="195.5" y="180.292">network_type : NetworkType</text><line style="stroke:#181818;stroke-width:0.5;" x1="190.5" x2="411.5" y1="187.5938" y2="187.5938"/></g><!--MD5=[a0f50d086a4fc67c74a8886285c4ee65]
reverse link NetworkType to SPN--><g id="link_NetworkType_SPN"><path codeLine="2" d="M98.854,71.235 C84.1898,90.975 66.9114,114.2347 54.3491,131.1455 " fill="none" id="NetworkType-backto-SPN" style="stroke:#181818;stroke-width:1.0;"/><polygon fill="none" points="93.3379,66.922,110.884,55.041,104.5763,75.27,93.3379,66.922" style="stroke:#181818;stroke-width:1.0;"/></g><!--MD5=[8b3aa38a98d708493ec55897aeda3456]
reverse link NetworkType to BN--><g id="link_NetworkType_BN"><path codeLine="3" d="M128,75.166 C128,94.002 128,115.345 128,131.1455 " fill="none" id="NetworkType-backto-BN" style="stroke:#181818;stroke-width:1.0;"/><polygon fill="none" points="121,75.041,128,55.041,135,75.041,121,75.041" style="stroke:#181818;stroke-width:1.0;"/></g><!--MD5=[998bb52771b8a2acef896b4427a515c3]
reverse link NetworkType to Scope--><g id="link_NetworkType_Scope"><path codeLine="10" d="M164.811,58.066 C188.157,74.597 218.809,96.3013 245.121,114.9326 " fill="none" id="NetworkType-backto-Scope" style="stroke:#181818;stroke-width:1.0;"/><polygon fill="#181818" points="160.54,55.041,165.5722,63.5073,164.6201,57.9311,170.1963,56.9791,160.54,55.041" style="stroke:#181818;stroke-width:1.0;"/></g><!--MD5=[18fa103238b5a59981b8b16b1155e22e]
@startuml
abstract class  NetworkType
NetworkType <|- - SPN
NetworkType <|- - BN

class Scope {
  variables : List[int]
  network_type : NetworkType
}

NetworkType <- - Scope
@enduml

PlantUML version 1.2022.3beta2(Unknown compile time)
(GPL source distribution)
Java Runtime: Java(TM) SE Runtime Environment
JVM: Java HotSpot(TM) 64-Bit Server VM
Default Encoding: UTF-8
Language: en
Country: US
--></g></svg>