<?xml version="1.0" encoding="UTF-8" standalone="no"?>
<!DOCTYPE svg PUBLIC "-//W3C//DTD SVG 1.1//EN"
 "http://www.w3.org/Graphics/SVG/1.1/DTD/svg11.dtd">
<!-- Generated by graphviz version 14.1.1 (20251213.1925)
 -->
<!-- Title: G Pages: 1 -->
<svg width="658pt" height="1448pt"
 viewBox="0.00 0.00 658.00 1448.00" xmlns="http://www.w3.org/2000/svg" xmlns:xlink="http://www.w3.org/1999/xlink">
<g id="graph0" class="graph" transform="scale(4.16667 4.16667) rotate(0) translate(4 343.56)">
<title>G</title>
<polygon fill="white" stroke="none" points="-4,4 -4,-343.56 153.85,-343.56 153.85,4 -4,4"/>
<!-- 4492712400 -->
<g id="node1" class="node">
<title>4492712400</title>
<path fill="white" stroke="#1f77b4" stroke-width="2.5" d="M137.85,-339.56C137.85,-339.56 12,-339.56 12,-339.56 6,-339.56 0,-333.56 0,-327.56 0,-327.56 0,-272.54 0,-272.54 0,-266.54 6,-260.54 12,-260.54 12,-260.54 137.85,-260.54 137.85,-260.54 143.85,-260.54 149.85,-266.54 149.85,-272.54 149.85,-272.54 149.85,-327.56 149.85,-327.56 149.85,-333.56 143.85,-339.56 137.85,-339.56"/>
<text xml:space="preserve" text-anchor="start" x="64.8" y="-324.35" font-family="Courier,monospace" font-weight="bold" font-size="11.00">Sum</text>
<text xml:space="preserve" text-anchor="start" x="10.8" y="-309.85" font-family="Courier,monospace" font-size="11.00"> &#160;&#160;Out: D=1 C=1 R=1</text>
<text xml:space="preserve" text-anchor="start" x="10.8" y="-296.35" font-family="Courier,monospace" font-size="11.00"> &#160;&#160;&#160;In: D=1 C=4 R=1</text>
<text xml:space="preserve" text-anchor="start" x="10.8" y="-282.85" font-family="Courier,monospace" font-size="11.00"> Scope: 0, 1</text>
<text xml:space="preserve" text-anchor="start" x="10.8" y="-269.35" font-family="Courier,monospace" font-size="11.00">Params: 4</text>
</g>
<!-- 4484369776 -->
<g id="node2" class="node">
<title>4484369776</title>
<path fill="white" stroke="#ff7f0e" stroke-width="2.5" d="M134.47,-202.54C134.47,-202.54 15.38,-202.54 15.38,-202.54 9.37,-202.54 3.38,-196.54 3.38,-190.54 3.38,-190.54 3.38,-149.02 3.38,-149.02 3.38,-143.02 9.38,-137.02 15.38,-137.02 15.38,-137.02 134.47,-137.02 134.47,-137.02 140.47,-137.02 146.47,-143.02 146.47,-149.02 146.47,-149.02 146.47,-190.54 146.47,-190.54 146.47,-196.54 140.47,-202.54 134.47,-202.54"/>
<text xml:space="preserve" text-anchor="start" x="34.42" y="-187.33" font-family="Courier,monospace" font-weight="bold" font-size="11.00">OuterProduct</text>
<text xml:space="preserve" text-anchor="start" x="14.17" y="-172.83" font-family="Courier,monospace" font-size="11.00"> &#160;Out: D=1 C=4 R=1</text>
<text xml:space="preserve" text-anchor="start" x="14.17" y="-159.33" font-family="Courier,monospace" font-size="11.00"> &#160;&#160;In: D=2 C=2 R=1</text>
<text xml:space="preserve" text-anchor="start" x="14.17" y="-145.83" font-family="Courier,monospace" font-size="11.00">Scope: 0, 1</text>
</g>
<!-- 4484369776&#45;&gt;4492712400 -->
<g id="edge2" class="edge">
<title>4484369776&#45;&gt;4492712400</title>
<path fill="none" stroke="#333333" stroke-width="2" d="M74.92,-203.48C74.92,-217.22 74.92,-233.51 74.92,-248.72"/>
<polygon fill="#333333" stroke="#333333" stroke-width="2" points="72.13,-248.52 74.93,-256.52 77.73,-248.52 72.13,-248.52"/>
</g>
<!-- 4488597712 -->
<g id="node3" class="node">
<title>4488597712</title>
<path fill="white" stroke="#2ca02c" stroke-width="2.5" d="M137.85,-79.02C137.85,-79.02 12,-79.02 12,-79.02 6,-79.02 0,-73.02 0,-67.02 0,-67.02 0,-12 0,-12 0,-6 6,0 12,0 12,0 137.85,0 137.85,0 143.85,0 149.85,-6 149.85,-12 149.85,-12 149.85,-67.02 149.85,-67.02 149.85,-73.02 143.85,-79.02 137.85,-79.02"/>
<text xml:space="preserve" text-anchor="start" x="54.67" y="-63.81" font-family="Courier,monospace" font-weight="bold" font-size="11.00">Normal</text>
<text xml:space="preserve" text-anchor="start" x="10.8" y="-49.31" font-family="Courier,monospace" font-size="11.00"> &#160;&#160;Out: D=2 C=2 R=1</text>
<text xml:space="preserve" text-anchor="start" x="10.8" y="-35.81" font-family="Courier,monospace" font-size="11.00"> &#160;&#160;&#160;In: D=2 C=1 R=1</text>
<text xml:space="preserve" text-anchor="start" x="10.8" y="-22.31" font-family="Courier,monospace" font-size="11.00"> Scope: 0, 1</text>
<text xml:space="preserve" text-anchor="start" x="10.8" y="-8.81" font-family="Courier,monospace" font-size="11.00">Params: 8</text>
</g>
<!-- 4488597712&#45;&gt;4484369776 -->
<g id="edge1" class="edge">
<title>4488597712&#45;&gt;4484369776</title>
<path fill="none" stroke="#333333" stroke-width="2" d="M74.92,-80.04C74.92,-94.35 74.92,-110.59 74.92,-125.23"/>
<polygon fill="#333333" stroke="#333333" stroke-width="2" points="72.13,-125.03 74.93,-133.03 77.73,-125.03 72.13,-125.03"/>
</g>
</g>
</svg>
