<?xml version="1.0" encoding="UTF-8" standalone="no"?>
<!DOCTYPE svg PUBLIC "-//W3C//DTD SVG 1.1//EN"
 "http://www.w3.org/Graphics/SVG/1.1/DTD/svg11.dtd">
<!-- Generated by graphviz version 14.1.1 (20251213.1925)
 -->
<!-- Title: G Pages: 1 -->
<svg width="2983pt" height="1448pt"
 viewBox="0.00 0.00 2983.00 1448.00" xmlns="http://www.w3.org/2000/svg" xmlns:xlink="http://www.w3.org/1999/xlink">
<g id="graph0" class="graph" transform="scale(4.16667 4.16667) rotate(0) translate(4 343.56)">
<title>G</title>
<polygon fill="white" stroke="none" points="-4,4 -4,-343.56 711.85,-343.56 711.85,4 -4,4"/>
<!-- 4493631104 -->
<g id="node1" class="node">
<title>4493631104</title>
<path fill="white" stroke="#1f77b4" stroke-width="2.5" d="M415.85,-339.56C415.85,-339.56 290,-339.56 290,-339.56 284,-339.56 278,-333.56 278,-327.56 278,-327.56 278,-272.54 278,-272.54 278,-266.54 284,-260.54 290,-260.54 290,-260.54 415.85,-260.54 415.85,-260.54 421.85,-260.54 427.85,-266.54 427.85,-272.54 427.85,-272.54 427.85,-327.56 427.85,-327.56 427.85,-333.56 421.85,-339.56 415.85,-339.56"/>
<text xml:space="preserve" text-anchor="start" x="342.8" y="-324.35" font-family="Courier,monospace" font-weight="bold" font-size="11.00">Sum</text>
<text xml:space="preserve" text-anchor="start" x="288.8" y="-309.85" font-family="Courier,monospace" font-size="11.00"> &#160;&#160;Out: D=1 C=1 R=1</text>
<text xml:space="preserve" text-anchor="start" x="288.8" y="-296.35" font-family="Courier,monospace" font-size="11.00"> &#160;&#160;&#160;In: D=1 C=4 R=1</text>
<text xml:space="preserve" text-anchor="start" x="288.8" y="-282.85" font-family="Courier,monospace" font-size="11.00"> Scope: 0, 1</text>
<text xml:space="preserve" text-anchor="start" x="288.8" y="-269.35" font-family="Courier,monospace" font-size="11.00">Params: 4</text>
</g>
<!-- 4493629808 -->
<g id="node2" class="node">
<title>4493629808</title>
<path fill="white" stroke="#ff7f0e" stroke-width="2.5" d="M144.47,-202.54C144.47,-202.54 25.38,-202.54 25.38,-202.54 19.37,-202.54 13.38,-196.54 13.38,-190.54 13.38,-190.54 13.38,-149.02 13.38,-149.02 13.38,-143.02 19.38,-137.02 25.38,-137.02 25.38,-137.02 144.47,-137.02 144.47,-137.02 150.47,-137.02 156.47,-143.02 156.47,-149.02 156.47,-149.02 156.47,-190.54 156.47,-190.54 156.47,-196.54 150.47,-202.54 144.47,-202.54"/>
<text xml:space="preserve" text-anchor="start" x="61.3" y="-187.33" font-family="Courier,monospace" font-weight="bold" font-size="11.00">Product</text>
<text xml:space="preserve" text-anchor="start" x="24.17" y="-172.83" font-family="Courier,monospace" font-size="11.00"> &#160;Out: D=1 C=1 R=1</text>
<text xml:space="preserve" text-anchor="start" x="24.17" y="-159.33" font-family="Courier,monospace" font-size="11.00"> &#160;&#160;In: D=2 C=1 R=1</text>
<text xml:space="preserve" text-anchor="start" x="24.17" y="-145.83" font-family="Courier,monospace" font-size="11.00">Scope: 0, 1</text>
</g>
<!-- 4493629808&#45;&gt;4493631104 -->
<g id="edge3" class="edge">
<title>4493629808&#45;&gt;4493631104</title>
<path fill="none" stroke="#333333" stroke-width="2" d="M153.59,-203.65C188.19,-220.2 230.47,-240.44 267.18,-258.01"/>
<polygon fill="#333333" stroke="#333333" stroke-width="2" points="265.73,-260.42 274.15,-261.35 268.14,-255.37 265.73,-260.42"/>
</g>
<!-- 4486299184 -->
<g id="node3" class="node">
<title>4486299184</title>
<path fill="white" stroke="#2ca02c" stroke-width="2.5" d="M323.85,-79.02C323.85,-79.02 198,-79.02 198,-79.02 192,-79.02 186,-73.02 186,-67.02 186,-67.02 186,-12 186,-12 186,-6 192,0 198,0 198,0 323.85,0 323.85,0 329.85,0 335.85,-6 335.85,-12 335.85,-12 335.85,-67.02 335.85,-67.02 335.85,-73.02 329.85,-79.02 323.85,-79.02"/>
<text xml:space="preserve" text-anchor="start" x="240.68" y="-63.81" font-family="Courier,monospace" font-weight="bold" font-size="11.00">Normal</text>
<text xml:space="preserve" text-anchor="start" x="196.8" y="-49.31" font-family="Courier,monospace" font-size="11.00"> &#160;&#160;Out: D=1 C=1 R=1</text>
<text xml:space="preserve" text-anchor="start" x="196.8" y="-35.81" font-family="Courier,monospace" font-size="11.00"> &#160;&#160;&#160;In: D=1 C=1 R=1</text>
<text xml:space="preserve" text-anchor="start" x="196.8" y="-22.31" font-family="Courier,monospace" font-size="11.00"> Scope: 0</text>
<text xml:space="preserve" text-anchor="start" x="196.8" y="-8.81" font-family="Courier,monospace" font-size="11.00">Params: 2</text>
</g>
<!-- 4486299184&#45;&gt;4493629808 -->
<g id="edge1" class="edge">
<title>4486299184&#45;&gt;4493629808</title>
<path fill="none" stroke="#333333" stroke-width="2" d="M206.68,-80.04C185.11,-95.76 160.35,-113.81 138.81,-129.51"/>
<polygon fill="#333333" stroke="#333333" stroke-width="2" points="137.38,-127.09 132.56,-134.06 140.67,-131.61 137.38,-127.09"/>
</g>
<!-- 4493630384 -->
<g id="node7" class="node">
<title>4493630384</title>
<path fill="white" stroke="#ff7f0e" stroke-width="2.5" d="M502.48,-202.54C502.48,-202.54 383.38,-202.54 383.38,-202.54 377.38,-202.54 371.38,-196.54 371.38,-190.54 371.38,-190.54 371.38,-149.02 371.38,-149.02 371.38,-143.02 377.38,-137.02 383.38,-137.02 383.38,-137.02 502.48,-137.02 502.48,-137.02 508.48,-137.02 514.48,-143.02 514.48,-149.02 514.48,-149.02 514.48,-190.54 514.48,-190.54 514.48,-196.54 508.48,-202.54 502.48,-202.54"/>
<text xml:space="preserve" text-anchor="start" x="419.3" y="-187.33" font-family="Courier,monospace" font-weight="bold" font-size="11.00">Product</text>
<text xml:space="preserve" text-anchor="start" x="382.18" y="-172.83" font-family="Courier,monospace" font-size="11.00"> &#160;Out: D=1 C=1 R=1</text>
<text xml:space="preserve" text-anchor="start" x="382.18" y="-159.33" font-family="Courier,monospace" font-size="11.00"> &#160;&#160;In: D=2 C=1 R=1</text>
<text xml:space="preserve" text-anchor="start" x="382.18" y="-145.83" font-family="Courier,monospace" font-size="11.00">Scope: 0, 1</text>
</g>
<!-- 4486299184&#45;&gt;4493630384 -->
<g id="edge7" class="edge">
<title>4486299184&#45;&gt;4493630384</title>
<path fill="none" stroke="#333333" stroke-width="2" d="M317.02,-80.04C339.32,-95.76 364.93,-113.81 387.2,-129.51"/>
<polygon fill="#333333" stroke="#333333" stroke-width="2" points="385.57,-131.78 393.72,-134.1 388.8,-127.21 385.57,-131.78"/>
</g>
<!-- 4488218960 -->
<g id="node4" class="node">
<title>4488218960</title>
<path fill="white" stroke="#2ca02c" stroke-width="2.5" d="M137.85,-79.02C137.85,-79.02 12,-79.02 12,-79.02 6,-79.02 0,-73.02 0,-67.02 0,-67.02 0,-12 0,-12 0,-6 6,0 12,0 12,0 137.85,0 137.85,0 143.85,0 149.85,-6 149.85,-12 149.85,-12 149.85,-67.02 149.85,-67.02 149.85,-73.02 143.85,-79.02 137.85,-79.02"/>
<text xml:space="preserve" text-anchor="start" x="54.67" y="-63.81" font-family="Courier,monospace" font-weight="bold" font-size="11.00">Normal</text>
<text xml:space="preserve" text-anchor="start" x="10.8" y="-49.31" font-family="Courier,monospace" font-size="11.00"> &#160;&#160;Out: D=1 C=1 R=1</text>
<text xml:space="preserve" text-anchor="start" x="10.8" y="-35.81" font-family="Courier,monospace" font-size="11.00"> &#160;&#160;&#160;In: D=1 C=1 R=1</text>
<text xml:space="preserve" text-anchor="start" x="10.8" y="-22.31" font-family="Courier,monospace" font-size="11.00"> Scope: 1</text>
<text xml:space="preserve" text-anchor="start" x="10.8" y="-8.81" font-family="Courier,monospace" font-size="11.00">Params: 2</text>
</g>
<!-- 4488218960&#45;&gt;4493629808 -->
<g id="edge2" class="edge">
<title>4488218960&#45;&gt;4493629808</title>
<path fill="none" stroke="#333333" stroke-width="2" d="M78.01,-80.04C79.12,-94.35 80.39,-110.59 81.53,-125.23"/>
<polygon fill="#333333" stroke="#333333" stroke-width="2" points="78.73,-125.28 82.14,-133.04 84.31,-124.85 78.73,-125.28"/>
</g>
<!-- 4493630000 -->
<g id="node5" class="node">
<title>4493630000</title>
<path fill="white" stroke="#ff7f0e" stroke-width="2.5" d="M323.48,-202.54C323.48,-202.54 204.38,-202.54 204.38,-202.54 198.38,-202.54 192.38,-196.54 192.38,-190.54 192.38,-190.54 192.38,-149.02 192.38,-149.02 192.38,-143.02 198.38,-137.02 204.38,-137.02 204.38,-137.02 323.48,-137.02 323.48,-137.02 329.48,-137.02 335.48,-143.02 335.48,-149.02 335.48,-149.02 335.48,-190.54 335.48,-190.54 335.48,-196.54 329.48,-202.54 323.48,-202.54"/>
<text xml:space="preserve" text-anchor="start" x="240.3" y="-187.33" font-family="Courier,monospace" font-weight="bold" font-size="11.00">Product</text>
<text xml:space="preserve" text-anchor="start" x="203.18" y="-172.83" font-family="Courier,monospace" font-size="11.00"> &#160;Out: D=1 C=1 R=1</text>
<text xml:space="preserve" text-anchor="start" x="203.18" y="-159.33" font-family="Courier,monospace" font-size="11.00"> &#160;&#160;In: D=2 C=1 R=1</text>
<text xml:space="preserve" text-anchor="start" x="203.18" y="-145.83" font-family="Courier,monospace" font-size="11.00">Scope: 0, 1</text>
</g>
<!-- 4488218960&#45;&gt;4493630000 -->
<g id="edge5" class="edge">
<title>4488218960&#45;&gt;4493630000</title>
<path fill="none" stroke="#333333" stroke-width="2" d="M133.43,-80.22C156.69,-96 183.37,-114.11 206.51,-129.82"/>
<polygon fill="#333333" stroke="#333333" stroke-width="2" points="204.83,-132.06 213.02,-134.23 207.98,-127.43 204.83,-132.06"/>
</g>
<!-- 4493630000&#45;&gt;4493631104 -->
<g id="edge6" class="edge">
<title>4493630000&#45;&gt;4493631104</title>
<path fill="none" stroke="#333333" stroke-width="2" d="M286.61,-203.48C296.61,-217.88 308.55,-235.1 319.53,-250.92"/>
<polygon fill="#333333" stroke="#333333" stroke-width="2" points="316.93,-252.08 323.79,-257.06 321.53,-248.89 316.93,-252.08"/>
</g>
<!-- 4486333744 -->
<g id="node6" class="node">
<title>4486333744</title>
<path fill="white" stroke="#2ca02c" stroke-width="2.5" d="M509.85,-79.02C509.85,-79.02 384,-79.02 384,-79.02 378,-79.02 372,-73.02 372,-67.02 372,-67.02 372,-12 372,-12 372,-6 378,0 384,0 384,0 509.85,0 509.85,0 515.85,0 521.85,-6 521.85,-12 521.85,-12 521.85,-67.02 521.85,-67.02 521.85,-73.02 515.85,-79.02 509.85,-79.02"/>
<text xml:space="preserve" text-anchor="start" x="426.68" y="-63.81" font-family="Courier,monospace" font-weight="bold" font-size="11.00">Normal</text>
<text xml:space="preserve" text-anchor="start" x="382.8" y="-49.31" font-family="Courier,monospace" font-size="11.00"> &#160;&#160;Out: D=1 C=1 R=1</text>
<text xml:space="preserve" text-anchor="start" x="382.8" y="-35.81" font-family="Courier,monospace" font-size="11.00"> &#160;&#160;&#160;In: D=1 C=1 R=1</text>
<text xml:space="preserve" text-anchor="start" x="382.8" y="-22.31" font-family="Courier,monospace" font-size="11.00"> Scope: 0</text>
<text xml:space="preserve" text-anchor="start" x="382.8" y="-8.81" font-family="Courier,monospace" font-size="11.00">Params: 2</text>
</g>
<!-- 4486333744&#45;&gt;4493630000 -->
<g id="edge4" class="edge">
<title>4486333744&#45;&gt;4493630000</title>
<path fill="none" stroke="#333333" stroke-width="2" d="M390.53,-80.04C368,-95.83 342.12,-113.97 319.66,-129.71"/>
<polygon fill="#333333" stroke="#333333" stroke-width="2" points="318.33,-127.22 313.39,-134.11 321.55,-131.81 318.33,-127.22"/>
</g>
<!-- 4493630720 -->
<g id="node9" class="node">
<title>4493630720</title>
<path fill="white" stroke="#ff7f0e" stroke-width="2.5" d="M681.47,-202.54C681.47,-202.54 562.38,-202.54 562.38,-202.54 556.38,-202.54 550.38,-196.54 550.38,-190.54 550.38,-190.54 550.38,-149.02 550.38,-149.02 550.38,-143.02 556.38,-137.02 562.38,-137.02 562.38,-137.02 681.47,-137.02 681.47,-137.02 687.47,-137.02 693.47,-143.02 693.47,-149.02 693.47,-149.02 693.47,-190.54 693.47,-190.54 693.47,-196.54 687.47,-202.54 681.47,-202.54"/>
<text xml:space="preserve" text-anchor="start" x="598.3" y="-187.33" font-family="Courier,monospace" font-weight="bold" font-size="11.00">Product</text>
<text xml:space="preserve" text-anchor="start" x="561.17" y="-172.83" font-family="Courier,monospace" font-size="11.00"> &#160;Out: D=1 C=1 R=1</text>
<text xml:space="preserve" text-anchor="start" x="561.17" y="-159.33" font-family="Courier,monospace" font-size="11.00"> &#160;&#160;In: D=2 C=1 R=1</text>
<text xml:space="preserve" text-anchor="start" x="561.17" y="-145.83" font-family="Courier,monospace" font-size="11.00">Scope: 0, 1</text>
</g>
<!-- 4486333744&#45;&gt;4493630720 -->
<g id="edge10" class="edge">
<title>4486333744&#45;&gt;4493630720</title>
<path fill="none" stroke="#333333" stroke-width="2" d="M500.86,-80.04C522.31,-95.76 546.93,-113.81 568.34,-129.51"/>
<polygon fill="#333333" stroke="#333333" stroke-width="2" points="566.44,-131.59 574.55,-134.06 569.76,-127.07 566.44,-131.59"/>
</g>
<!-- 4493630384&#45;&gt;4493631104 -->
<g id="edge9" class="edge">
<title>4493630384&#45;&gt;4493631104</title>
<path fill="none" stroke="#333333" stroke-width="2" d="M419.98,-203.48C409.87,-217.88 397.8,-235.1 386.69,-250.92"/>
<polygon fill="#333333" stroke="#333333" stroke-width="2" points="384.68,-248.91 382.38,-257.07 389.27,-252.13 384.68,-248.91"/>
</g>
<!-- 4485339408 -->
<g id="node8" class="node">
<title>4485339408</title>
<path fill="white" stroke="#2ca02c" stroke-width="2.5" d="M695.85,-79.02C695.85,-79.02 570,-79.02 570,-79.02 564,-79.02 558,-73.02 558,-67.02 558,-67.02 558,-12 558,-12 558,-6 564,0 570,0 570,0 695.85,0 695.85,0 701.85,0 707.85,-6 707.85,-12 707.85,-12 707.85,-67.02 707.85,-67.02 707.85,-73.02 701.85,-79.02 695.85,-79.02"/>
<text xml:space="preserve" text-anchor="start" x="612.67" y="-63.81" font-family="Courier,monospace" font-weight="bold" font-size="11.00">Normal</text>
<text xml:space="preserve" text-anchor="start" x="568.8" y="-49.31" font-family="Courier,monospace" font-size="11.00"> &#160;&#160;Out: D=1 C=1 R=1</text>
<text xml:space="preserve" text-anchor="start" x="568.8" y="-35.81" font-family="Courier,monospace" font-size="11.00"> &#160;&#160;&#160;In: D=1 C=1 R=1</text>
<text xml:space="preserve" text-anchor="start" x="568.8" y="-22.31" font-family="Courier,monospace" font-size="11.00"> Scope: 1</text>
<text xml:space="preserve" text-anchor="start" x="568.8" y="-8.81" font-family="Courier,monospace" font-size="11.00">Params: 2</text>
</g>
<!-- 4485339408&#45;&gt;4493630384 -->
<g id="edge8" class="edge">
<title>4485339408&#45;&gt;4493630384</title>
<path fill="none" stroke="#333333" stroke-width="2" d="M574.11,-80.22C550.73,-96 523.91,-114.11 500.64,-129.82"/>
<polygon fill="#333333" stroke="#333333" stroke-width="2" points="499.15,-127.44 494.09,-134.24 502.28,-132.08 499.15,-127.44"/>
</g>
<!-- 4485339408&#45;&gt;4493630720 -->
<g id="edge11" class="edge">
<title>4485339408&#45;&gt;4493630720</title>
<path fill="none" stroke="#333333" stroke-width="2" d="M629.53,-80.04C628.31,-94.35 626.91,-110.59 625.66,-125.23"/>
<polygon fill="#333333" stroke="#333333" stroke-width="2" points="622.88,-124.83 624.99,-133.04 628.46,-125.31 622.88,-124.83"/>
</g>
<!-- 4493630720&#45;&gt;4493631104 -->
<g id="edge12" class="edge">
<title>4493630720&#45;&gt;4493631104</title>
<path fill="none" stroke="#333333" stroke-width="2" d="M553,-203.65C518.13,-220.27 475.48,-240.61 438.53,-258.23"/>
<polygon fill="#333333" stroke="#333333" stroke-width="2" points="437.52,-255.61 431.5,-261.58 439.93,-260.66 437.52,-255.61"/>
</g>
</g>
</svg>
