<?xml version="1.0" encoding="UTF-8" standalone="no"?>
<!DOCTYPE svg PUBLIC "-//W3C//DTD SVG 1.1//EN"
        "http://www.w3.org/Graphics/SVG/1.1/DTD/svg11.dtd">
<!-- Generated by graphviz version 14.0.2 (20251019.1705)
 -->
<!-- Title: G Pages: 1 -->
<svg width="555pt"
     height="1165pt" viewBox="0.00 0.00 555.00 1165.00" xmlns="http://www.w3.org/2000/svg">
    <g id="graph0" class="graph" transform="scale(4.16667 4.16667) rotate(0) translate(4 275.56)">
        <title>G</title>
        <polygon fill="white" stroke="none" points="-4,4 -4,-275.56 129.1,-275.56 129.1,4 -4,4"/>
        <!-- 4518063296 -->
        <g id="node1" class="node">
            <title>4518063296</title>
            <path fill="white" stroke="#1f77b4" stroke-width="2.5"
                  d="M113.1,-271.56C113.1,-271.56 12,-271.56 12,-271.56 6,-271.56 0,-265.56 0,-259.56 0,-259.56 0,-228.04 0,-228.04 0,-222.04 6,-216.04 12,-216.04 12,-216.04 113.1,-216.04 113.1,-216.04 119.1,-216.04 125.1,-222.04 125.1,-228.04 125.1,-228.04 125.1,-259.56 125.1,-259.56 125.1,-265.56 119.1,-271.56 113.1,-271.56"/>
            <text xml:space="preserve" text-anchor="start" x="50.55" y="-256.35" font-family="Helvetica,sans-Serif"
                  font-weight="bold" font-size="11.00">Sum</text>
            <text xml:space="preserve" text-anchor="start" x="10.8" y="-245.35" font-family="Helvetica,sans-Serif"
                  font-size="11.00">D: 1, C&#45;in: 4, C&#45;out: 1</text>
            <text xml:space="preserve" text-anchor="start" x="37.8" y="-234.35" font-family="Helvetica,sans-Serif"
                  font-size="11.00">Params: 4</text>
            <text xml:space="preserve" text-anchor="start" x="35.17" y="-223.35" font-family="Helvetica,sans-Serif"
                  font-size="11.00">Scope: 0, 1</text>
        </g>
        <!-- 4517155840 -->
        <g id="node2" class="node">
            <title>4517155840</title>
            <path fill="white" stroke="#ff7f0e" stroke-width="2.5"
                  d="M99.97,-158.04C99.97,-158.04 25.12,-158.04 25.12,-158.04 19.13,-158.04 13.12,-152.04 13.12,-146.04 13.12,-146.04 13.12,-125.52 13.12,-125.52 13.12,-119.52 19.12,-113.52 25.12,-113.52 25.12,-113.52 99.97,-113.52 99.97,-113.52 105.97,-113.52 111.97,-119.52 111.97,-125.52 111.97,-125.52 111.97,-146.04 111.97,-146.04 111.97,-152.04 105.97,-158.04 99.97,-158.04"/>
            <text xml:space="preserve" text-anchor="start" x="26.92" y="-142.83" font-family="Helvetica,sans-Serif"
                  font-weight="bold" font-size="11.00">OuterProduct</text>
            <text xml:space="preserve" text-anchor="start" x="23.92" y="-131.83" font-family="Helvetica,sans-Serif"
                  font-size="11.00">C&#45;in: 2, C&#45;out: 4</text>
            <text xml:space="preserve" text-anchor="start" x="35.17" y="-120.83" font-family="Helvetica,sans-Serif"
                  font-size="11.00">Scope: 0, 1</text>
        </g>
        <!-- 4517155840&#45;&gt;4518063296 -->
        <g id="edge2" class="edge">
            <title>4517155840&#45;&gt;4518063296</title>
            <path fill="none" stroke="#333333" stroke-width="2"
                  d="M62.55,-159.26C62.55,-172.37 62.55,-189.26 62.55,-204.41"/>
            <polygon fill="#333333" stroke="#333333" stroke-width="2"
                     points="59.75,-204.04 62.55,-212.04 65.35,-204.04 59.75,-204.04"/>
        </g>
        <!-- 4517073344 -->
        <g id="node3" class="node">
            <title>4517073344</title>
            <path fill="white" stroke="#2ca02c" stroke-width="2.5"
                  d="M88.72,-55.52C88.72,-55.52 36.38,-55.52 36.38,-55.52 30.38,-55.52 24.38,-49.52 24.38,-43.52 24.38,-43.52 24.38,-12 24.38,-12 24.38,-6 30.38,0 36.38,0 36.38,0 88.72,0 88.72,0 94.72,0 100.72,-6 100.72,-12 100.72,-12 100.72,-43.52 100.72,-43.52 100.72,-49.52 94.72,-55.52 88.72,-55.52"/>
            <text xml:space="preserve" text-anchor="start" x="43.42" y="-40.31" font-family="Helvetica,sans-Serif"
                  font-weight="bold" font-size="11.00">Normal</text>
            <text xml:space="preserve" text-anchor="start" x="39.3" y="-29.31" font-family="Helvetica,sans-Serif"
                  font-size="11.00">D: 2, C: 2</text>
            <text xml:space="preserve" text-anchor="start" x="37.8" y="-18.31" font-family="Helvetica,sans-Serif"
                  font-size="11.00">Params: 8</text>
            <text xml:space="preserve" text-anchor="start" x="35.17" y="-7.31" font-family="Helvetica,sans-Serif"
                  font-size="11.00">Scope: 0, 1</text>
        </g>
        <!-- 4517073344&#45;&gt;4517155840 -->
        <g id="edge1" class="edge">
            <title>4517073344&#45;&gt;4517155840</title>
            <path fill="none" stroke="#333333" stroke-width="2"
                  d="M62.55,-56.62C62.55,-70.36 62.55,-87.05 62.55,-101.47"/>
            <polygon fill="#333333" stroke="#333333" stroke-width="2"
                     points="59.75,-101.42 62.55,-109.42 65.35,-101.42 59.75,-101.42"/>
        </g>
    </g>
</svg>
