<?xml version="1.0" encoding="UTF-8" standalone="no"?>
<!DOCTYPE svg PUBLIC "-//W3C//DTD SVG 1.1//EN"
        "http://www.w3.org/Graphics/SVG/1.1/DTD/svg11.dtd">
<!-- Generated by graphviz version 14.0.2 (20251019.1705)
 -->
<!-- Title: G Pages: 1 -->
<svg width="1751pt"
     height="1165pt" viewBox="0.00 0.00 1751.00 1165.00" xmlns="http://www.w3.org/2000/svg">
    <g id="graph0" class="graph" transform="scale(4.16667 4.16667) rotate(0) translate(4 275.56)">
        <title>G</title>
        <polygon fill="white" stroke="none" points="-4,4 -4,-275.56 416.35,-275.56 416.35,4 -4,4"/>
        <!-- 4525258464 -->
        <g id="node1" class="node">
            <title>4525258464</title>
            <path fill="white" stroke="#1f77b4" stroke-width="2.5"
                  d="M256.73,-271.56C256.73,-271.56 155.62,-271.56 155.62,-271.56 149.62,-271.56 143.62,-265.56 143.62,-259.56 143.62,-259.56 143.62,-228.04 143.62,-228.04 143.62,-222.04 149.62,-216.04 155.62,-216.04 155.62,-216.04 256.73,-216.04 256.73,-216.04 262.73,-216.04 268.73,-222.04 268.73,-228.04 268.73,-228.04 268.73,-259.56 268.73,-259.56 268.73,-265.56 262.73,-271.56 256.73,-271.56"/>
            <text xml:space="preserve" text-anchor="start" x="194.18" y="-256.35" font-family="Helvetica,sans-Serif"
                  font-weight="bold" font-size="11.00">Sum</text>
            <text xml:space="preserve" text-anchor="start" x="154.43" y="-245.35" font-family="Helvetica,sans-Serif"
                  font-size="11.00">D: 1, C&#45;in: 4, C&#45;out: 1</text>
            <text xml:space="preserve" text-anchor="start" x="181.43" y="-234.35" font-family="Helvetica,sans-Serif"
                  font-size="11.00">Params: 4</text>
            <text xml:space="preserve" text-anchor="start" x="178.8" y="-223.35" font-family="Helvetica,sans-Serif"
                  font-size="11.00">Scope: 0, 1</text>
        </g>
        <!-- 4517151664 -->
        <g id="node2" class="node">
            <title>4517151664</title>
            <path fill="white" stroke="#ff7f0e" stroke-width="2.5"
                  d="M64.35,-158.04C64.35,-158.04 12,-158.04 12,-158.04 6,-158.04 0,-152.04 0,-146.04 0,-146.04 0,-125.52 0,-125.52 0,-119.52 6,-113.52 12,-113.52 12,-113.52 64.35,-113.52 64.35,-113.52 70.35,-113.52 76.35,-119.52 76.35,-125.52 76.35,-125.52 76.35,-146.04 76.35,-146.04 76.35,-152.04 70.35,-158.04 64.35,-158.04"/>
            <text xml:space="preserve" text-anchor="start" x="17.17" y="-142.83" font-family="Helvetica,sans-Serif"
                  font-weight="bold" font-size="11.00">Product</text>
            <text xml:space="preserve" text-anchor="start" x="14.92" y="-131.83" font-family="Helvetica,sans-Serif"
                  font-size="11.00">D: 1, C: 1</text>
            <text xml:space="preserve" text-anchor="start" x="10.8" y="-120.83" font-family="Helvetica,sans-Serif"
                  font-size="11.00">Scope: 0, 1</text>
        </g>
        <!-- 4517151664&#45;&gt;4525258464 -->
        <g id="edge3" class="edge">
            <title>4517151664&#45;&gt;4525258464</title>
            <path fill="none" stroke="#333333" stroke-width="2"
                  d="M73.8,-159.26C96.71,-173.72 126.89,-192.77 152.65,-209.02"/>
            <polygon fill="#333333" stroke="#333333" stroke-width="2"
                     points="151.1,-211.35 159.36,-213.26 154.09,-206.62 151.1,-211.35"/>
        </g>
        <!-- 4517339232 -->
        <g id="node3" class="node">
            <title>4517339232</title>
            <path fill="white" stroke="#2ca02c" stroke-width="2.5"
                  d="M179.73,-55.52C179.73,-55.52 132.62,-55.52 132.62,-55.52 126.63,-55.52 120.63,-49.52 120.63,-43.52 120.63,-43.52 120.63,-12 120.63,-12 120.63,-6 126.63,0 132.63,0 132.63,0 179.73,0 179.73,0 185.73,0 191.73,-6 191.73,-12 191.73,-12 191.73,-43.52 191.73,-43.52 191.73,-49.52 185.73,-55.52 179.73,-55.52"/>
            <text xml:space="preserve" text-anchor="start" x="137.05" y="-40.31" font-family="Helvetica,sans-Serif"
                  font-weight="bold" font-size="11.00">Normal</text>
            <text xml:space="preserve" text-anchor="start" x="132.93" y="-29.31" font-family="Helvetica,sans-Serif"
                  font-size="11.00">D: 1, C: 1</text>
            <text xml:space="preserve" text-anchor="start" x="131.43" y="-18.31" font-family="Helvetica,sans-Serif"
                  font-size="11.00">Params: 2</text>
            <text xml:space="preserve" text-anchor="start" x="134.8" y="-7.31" font-family="Helvetica,sans-Serif"
                  font-size="11.00">Scope: 0</text>
        </g>
        <!-- 4517339232&#45;&gt;4517151664 -->
        <g id="edge1" class="edge">
            <title>4517339232&#45;&gt;4517151664</title>
            <path fill="none" stroke="#333333" stroke-width="2"
                  d="M125.17,-56.62C108.51,-71.59 87.96,-90.05 71.02,-105.27"/>
            <polygon fill="#333333" stroke="#333333" stroke-width="2"
                     points="69.36,-103 65.28,-110.43 73.1,-107.16 69.36,-103"/>
        </g>
        <!-- 4520803216 -->
        <g id="node7" class="node">
            <title>4520803216</title>
            <path fill="white" stroke="#ff7f0e" stroke-width="2.5"
                  d="M288.35,-158.04C288.35,-158.04 236,-158.04 236,-158.04 230,-158.04 224,-152.04 224,-146.04 224,-146.04 224,-125.52 224,-125.52 224,-119.52 230,-113.52 236,-113.52 236,-113.52 288.35,-113.52 288.35,-113.52 294.35,-113.52 300.35,-119.52 300.35,-125.52 300.35,-125.52 300.35,-146.04 300.35,-146.04 300.35,-152.04 294.35,-158.04 288.35,-158.04"/>
            <text xml:space="preserve" text-anchor="start" x="241.18" y="-142.83" font-family="Helvetica,sans-Serif"
                  font-weight="bold" font-size="11.00">Product</text>
            <text xml:space="preserve" text-anchor="start" x="238.93" y="-131.83" font-family="Helvetica,sans-Serif"
                  font-size="11.00">D: 1, C: 1</text>
            <text xml:space="preserve" text-anchor="start" x="234.8" y="-120.83" font-family="Helvetica,sans-Serif"
                  font-size="11.00">Scope: 0, 1</text>
        </g>
        <!-- 4517339232&#45;&gt;4520803216 -->
        <g id="edge7" class="edge">
            <title>4517339232&#45;&gt;4520803216</title>
            <path fill="none" stroke="#333333" stroke-width="2"
                  d="M184.03,-56.62C198.86,-71.45 217.12,-89.71 232.25,-104.85"/>
            <polygon fill="#333333" stroke="#333333" stroke-width="2"
                     points="230.07,-106.63 237.71,-110.31 234.03,-102.67 230.07,-106.63"/>
        </g>
        <!-- 4517621264 -->
        <g id="node4" class="node">
            <title>4517621264</title>
            <path fill="white" stroke="#2ca02c" stroke-width="2.5"
                  d="M68.72,-55.52C68.72,-55.52 21.63,-55.52 21.63,-55.52 15.62,-55.52 9.62,-49.52 9.62,-43.52 9.62,-43.52 9.62,-12 9.62,-12 9.62,-6 15.62,0 21.62,0 21.62,0 68.72,0 68.72,0 74.72,0 80.72,-6 80.72,-12 80.72,-12 80.72,-43.52 80.72,-43.52 80.72,-49.52 74.72,-55.52 68.72,-55.52"/>
            <text xml:space="preserve" text-anchor="start" x="26.05" y="-40.31" font-family="Helvetica,sans-Serif"
                  font-weight="bold" font-size="11.00">Normal</text>
            <text xml:space="preserve" text-anchor="start" x="21.92" y="-29.31" font-family="Helvetica,sans-Serif"
                  font-size="11.00">D: 1, C: 1</text>
            <text xml:space="preserve" text-anchor="start" x="20.42" y="-18.31" font-family="Helvetica,sans-Serif"
                  font-size="11.00">Params: 2</text>
            <text xml:space="preserve" text-anchor="start" x="23.8" y="-7.31" font-family="Helvetica,sans-Serif"
                  font-size="11.00">Scope: 1</text>
        </g>
        <!-- 4517621264&#45;&gt;4517151664 -->
        <g id="edge2" class="edge">
            <title>4517621264&#45;&gt;4517151664</title>
            <path fill="none" stroke="#333333" stroke-width="2"
                  d="M43.34,-56.62C42.43,-70.36 41.33,-87.05 40.37,-101.47"/>
            <polygon fill="#333333" stroke="#333333" stroke-width="2"
                     points="37.58,-101.26 39.85,-109.43 43.17,-101.63 37.58,-101.26"/>
        </g>
        <!-- 4518876160 -->
        <g id="node5" class="node">
            <title>4518876160</title>
            <path fill="white" stroke="#ff7f0e" stroke-width="2.5"
                  d="M176.35,-158.04C176.35,-158.04 124,-158.04 124,-158.04 118,-158.04 112,-152.04 112,-146.04 112,-146.04 112,-125.52 112,-125.52 112,-119.52 118,-113.52 124,-113.52 124,-113.52 176.35,-113.52 176.35,-113.52 182.35,-113.52 188.35,-119.52 188.35,-125.52 188.35,-125.52 188.35,-146.04 188.35,-146.04 188.35,-152.04 182.35,-158.04 176.35,-158.04"/>
            <text xml:space="preserve" text-anchor="start" x="129.18" y="-142.83" font-family="Helvetica,sans-Serif"
                  font-weight="bold" font-size="11.00">Product</text>
            <text xml:space="preserve" text-anchor="start" x="126.93" y="-131.83" font-family="Helvetica,sans-Serif"
                  font-size="11.00">D: 1, C: 1</text>
            <text xml:space="preserve" text-anchor="start" x="122.8" y="-120.83" font-family="Helvetica,sans-Serif"
                  font-size="11.00">Scope: 0, 1</text>
        </g>
        <!-- 4517621264&#45;&gt;4518876160 -->
        <g id="edge5" class="edge">
            <title>4517621264&#45;&gt;4518876160</title>
            <path fill="none" stroke="#333333" stroke-width="2"
                  d="M72.76,-56.62C87.46,-71.45 105.54,-89.71 120.54,-104.85"/>
            <polygon fill="#333333" stroke="#333333" stroke-width="2"
                     points="118.31,-106.59 125.93,-110.3 122.29,-102.64 118.31,-106.59"/>
        </g>
        <!-- 4518876160&#45;&gt;4525258464 -->
        <g id="edge6" class="edge">
            <title>4518876160&#45;&gt;4525258464</title>
            <path fill="none" stroke="#333333" stroke-width="2"
                  d="M162.05,-159.26C169.18,-172.75 178.42,-190.25 186.6,-205.73"/>
            <polygon fill="#333333" stroke="#333333" stroke-width="2"
                     points="183.9,-206.62 190.11,-212.39 188.85,-204.01 183.9,-206.62"/>
        </g>
        <!-- 4483809056 -->
        <g id="node6" class="node">
            <title>4483809056</title>
            <path fill="white" stroke="#2ca02c" stroke-width="2.5"
                  d="M288.73,-55.52C288.73,-55.52 241.62,-55.52 241.62,-55.52 235.62,-55.52 229.62,-49.52 229.62,-43.52 229.62,-43.52 229.62,-12 229.62,-12 229.62,-6 235.62,0 241.62,0 241.62,0 288.73,0 288.73,0 294.73,0 300.73,-6 300.73,-12 300.73,-12 300.73,-43.52 300.73,-43.52 300.73,-49.52 294.73,-55.52 288.73,-55.52"/>
            <text xml:space="preserve" text-anchor="start" x="246.05" y="-40.31" font-family="Helvetica,sans-Serif"
                  font-weight="bold" font-size="11.00">Normal</text>
            <text xml:space="preserve" text-anchor="start" x="241.93" y="-29.31" font-family="Helvetica,sans-Serif"
                  font-size="11.00">D: 1, C: 1</text>
            <text xml:space="preserve" text-anchor="start" x="240.43" y="-18.31" font-family="Helvetica,sans-Serif"
                  font-size="11.00">Params: 2</text>
            <text xml:space="preserve" text-anchor="start" x="243.8" y="-7.31" font-family="Helvetica,sans-Serif"
                  font-size="11.00">Scope: 0</text>
        </g>
        <!-- 4483809056&#45;&gt;4518876160 -->
        <g id="edge4" class="edge">
            <title>4483809056&#45;&gt;4518876160</title>
            <path fill="none" stroke="#333333" stroke-width="2"
                  d="M234.96,-56.62C218.72,-71.59 198.7,-90.05 182.19,-105.27"/>
            <polygon fill="#333333" stroke="#333333" stroke-width="2"
                     points="180.61,-102.92 176.62,-110.4 184.4,-107.03 180.61,-102.92"/>
        </g>
        <!-- 4518318720 -->
        <g id="node9" class="node">
            <title>4518318720</title>
            <path fill="white" stroke="#ff7f0e" stroke-width="2.5"
                  d="M400.35,-158.04C400.35,-158.04 348,-158.04 348,-158.04 342,-158.04 336,-152.04 336,-146.04 336,-146.04 336,-125.52 336,-125.52 336,-119.52 342,-113.52 348,-113.52 348,-113.52 400.35,-113.52 400.35,-113.52 406.35,-113.52 412.35,-119.52 412.35,-125.52 412.35,-125.52 412.35,-146.04 412.35,-146.04 412.35,-152.04 406.35,-158.04 400.35,-158.04"/>
            <text xml:space="preserve" text-anchor="start" x="353.18" y="-142.83" font-family="Helvetica,sans-Serif"
                  font-weight="bold" font-size="11.00">Product</text>
            <text xml:space="preserve" text-anchor="start" x="350.93" y="-131.83" font-family="Helvetica,sans-Serif"
                  font-size="11.00">D: 1, C: 1</text>
            <text xml:space="preserve" text-anchor="start" x="346.8" y="-120.83" font-family="Helvetica,sans-Serif"
                  font-size="11.00">Scope: 0, 1</text>
        </g>
        <!-- 4483809056&#45;&gt;4518318720 -->
        <g id="edge10" class="edge">
            <title>4483809056&#45;&gt;4518318720</title>
            <path fill="none" stroke="#333333" stroke-width="2"
                  d="M293.81,-56.62C309.07,-71.45 327.84,-89.71 343.41,-104.85"/>
            <polygon fill="#333333" stroke="#333333" stroke-width="2"
                     points="341.36,-106.77 349.05,-110.34 345.26,-102.75 341.36,-106.77"/>
        </g>
        <!-- 4520803216&#45;&gt;4525258464 -->
        <g id="edge9" class="edge">
            <title>4520803216&#45;&gt;4525258464</title>
            <path fill="none" stroke="#333333" stroke-width="2"
                  d="M250.3,-159.26C243.17,-172.75 233.93,-190.25 225.75,-205.73"/>
            <polygon fill="#333333" stroke="#333333" stroke-width="2"
                     points="223.5,-204.01 222.24,-212.39 228.45,-206.62 223.5,-204.01"/>
        </g>
        <!-- 4518208064 -->
        <g id="node8" class="node">
            <title>4518208064</title>
            <path fill="white" stroke="#2ca02c" stroke-width="2.5"
                  d="M396.73,-55.52C396.73,-55.52 349.62,-55.52 349.62,-55.52 343.62,-55.52 337.62,-49.52 337.62,-43.52 337.62,-43.52 337.62,-12 337.62,-12 337.62,-6 343.62,0 349.62,0 349.62,0 396.73,0 396.73,0 402.73,0 408.73,-6 408.73,-12 408.73,-12 408.73,-43.52 408.73,-43.52 408.73,-49.52 402.73,-55.52 396.73,-55.52"/>
            <text xml:space="preserve" text-anchor="start" x="354.05" y="-40.31" font-family="Helvetica,sans-Serif"
                  font-weight="bold" font-size="11.00">Normal</text>
            <text xml:space="preserve" text-anchor="start" x="349.93" y="-29.31" font-family="Helvetica,sans-Serif"
                  font-size="11.00">D: 1, C: 1</text>
            <text xml:space="preserve" text-anchor="start" x="348.43" y="-18.31" font-family="Helvetica,sans-Serif"
                  font-size="11.00">Params: 2</text>
            <text xml:space="preserve" text-anchor="start" x="351.8" y="-7.31" font-family="Helvetica,sans-Serif"
                  font-size="11.00">Scope: 1</text>
        </g>
        <!-- 4518208064&#45;&gt;4520803216 -->
        <g id="edge8" class="edge">
            <title>4518208064&#45;&gt;4520803216</title>
            <path fill="none" stroke="#333333" stroke-width="2"
                  d="M344.01,-56.62C328.48,-71.45 309.36,-89.71 293.51,-104.85"/>
            <polygon fill="#333333" stroke="#333333" stroke-width="2"
                     points="291.59,-102.81 287.74,-110.36 295.46,-106.86 291.59,-102.81"/>
        </g>
        <!-- 4518208064&#45;&gt;4518318720 -->
        <g id="edge11" class="edge">
            <title>4518208064&#45;&gt;4518318720</title>
            <path fill="none" stroke="#333333" stroke-width="2"
                  d="M373.44,-56.62C373.57,-70.36 373.72,-87.05 373.86,-101.47"/>
            <polygon fill="#333333" stroke="#333333" stroke-width="2"
                     points="371.06,-101.45 373.94,-109.42 376.66,-101.4 371.06,-101.45"/>
        </g>
        <!-- 4518318720&#45;&gt;4525258464 -->
        <g id="edge12" class="edge">
            <title>4518318720&#45;&gt;4525258464</title>
            <path fill="none" stroke="#333333" stroke-width="2"
                  d="M338.55,-159.26C315.64,-173.72 285.46,-192.77 259.7,-209.02"/>
            <polygon fill="#333333" stroke="#333333" stroke-width="2"
                     points="258.26,-206.62 252.99,-213.26 261.25,-211.35 258.26,-206.62"/>
        </g>
    </g>
</svg>
