<?xml version="1.0" encoding="UTF-8" standalone="no"?>
<svg xmlns="http://www.w3.org/2000/svg" xmlns:xlink="http://www.w3.org/1999/xlink" contentStyleType="text/css" height="377px" preserveAspectRatio="none" style="width:410px;height:377px;background:#FFFFFF;" version="1.1" viewBox="0 0 410 377" width="410px" zoomAndPan="magnify"><defs/><g><!--MD5=[2b7409a316d9d2e410653e6983353aed]
class Module--><g id="elem_Module"><rect codeLine="1" fill="#F1F1F1" height="48" id="Module" rx="2.5" ry="2.5" style="stroke:#181818;stroke-width:0.5;" width="84" x="255" y="7"/><ellipse cx="270" cy="23" fill="#A9DCDF" rx="11" ry="11" style="stroke:#181818;stroke-width:1.0;"/><path d="M272.0781,24.8125 L272.4688,25.7969 L272.0781,25.7969 C271.625,25.7969 271.5156,25.8125 271.3594,25.9219 C271.1094,26.0781 270.9531,26.3594 270.9531,26.6563 C270.9531,26.9219 271.0938,27.1719 271.3125,27.3281 C271.4531,27.4531 271.6563,27.5 272.0781,27.5 L274.4375,27.5 C274.7969,27.5 275.0156,27.4688 275.1563,27.375 C275.4063,27.2344 275.5625,26.9375 275.5625,26.6563 C275.5625,26.375 275.4219,26.125 275.2031,25.9688 C275.0313,25.8281 274.875,25.7969 274.4063,25.7969 L271.0156,17.5938 L267.3438,17.5938 C266.8906,17.5938 266.7656,17.6094 266.6094,17.7031 C266.3594,17.875 266.2031,18.1563 266.2031,18.4375 C266.2031,18.7188 266.3438,18.9688 266.5625,19.1406 C266.7344,19.25 266.9063,19.2813 267.3438,19.2813 L268.4219,19.2813 L265.7813,25.7969 C265.3594,25.7969 265.2031,25.8125 265.0469,25.9219 C264.7969,26.0781 264.6406,26.3594 264.6406,26.6563 C264.6406,27.2188 265.0156,27.5 265.7656,27.5 L268.0313,27.5 C268.3906,27.5 268.6094,27.4688 268.7344,27.375 C269,27.2344 269.1406,26.9375 269.1406,26.6563 C269.1406,26.375 269.0156,26.125 268.7969,25.9531 C268.625,25.8281 268.4844,25.7969 268.0313,25.7969 L267.6406,25.7969 L268.0313,24.8125 L272.0781,24.8125 Z M271.375,23.1094 L268.7031,23.1094 L270.0469,19.8438 L271.375,23.1094 Z " fill="#000000"/><text fill="#000000" font-family="sans-serif" font-size="14" font-style="italic" lengthAdjust="spacing" textLength="52" x="284" y="27.8467">Module</text><line style="stroke:#181818;stroke-width:0.5;" x1="256" x2="338" y1="39" y2="39"/><line style="stroke:#181818;stroke-width:0.5;" x1="256" x2="338" y1="47" y2="47"/></g><!--MD5=[b0fd6754c4234098630b52d58e725e19]
class DispatchCache--><g id="elem_DispatchCache"><rect codeLine="3" fill="#F1F1F1" height="96.8906" id="DispatchCache" rx="2.5" ry="2.5" style="stroke:#181818;stroke-width:0.5;" width="272" x="7" y="132"/><ellipse cx="84.75" cy="148" fill="#ADD1B2" rx="11" ry="11" style="stroke:#181818;stroke-width:1.0;"/><path d="M87.0938,143.6719 C86.1563,143.2344 85.5625,143.0938 84.6875,143.0938 C82.0625,143.0938 80.0625,145.1719 80.0625,147.8906 L80.0625,149.0156 C80.0625,151.5938 82.1719,153.4844 85.0625,153.4844 C86.2813,153.4844 87.4375,153.1875 88.1875,152.6406 C88.7656,152.2344 89.0938,151.7813 89.0938,151.3906 C89.0938,150.9375 88.7031,150.5469 88.2344,150.5469 C88.0156,150.5469 87.8125,150.625 87.625,150.8125 C87.1719,151.2969 87.1719,151.2969 86.9844,151.3906 C86.5625,151.6563 85.875,151.7813 85.1094,151.7813 C83.0625,151.7813 81.7656,150.6875 81.7656,148.9844 L81.7656,147.8906 C81.7656,146.1094 83.0156,144.7969 84.75,144.7969 C85.3281,144.7969 85.9375,144.9531 86.4063,145.2031 C86.8906,145.4844 87.0625,145.7031 87.1563,146.1094 C87.2188,146.5156 87.25,146.6406 87.3906,146.7656 C87.5313,146.9063 87.7656,147.0156 87.9844,147.0156 C88.25,147.0156 88.5156,146.875 88.6875,146.6563 C88.7969,146.5 88.8281,146.3125 88.8281,145.8906 L88.8281,144.4688 C88.8281,144.0313 88.8125,143.9063 88.7188,143.75 C88.5625,143.4844 88.2813,143.3438 87.9844,143.3438 C87.6875,143.3438 87.4844,143.4375 87.2656,143.75 L87.0938,143.6719 Z " fill="#000000"/><text fill="#000000" font-family="sans-serif" font-size="14" lengthAdjust="spacing" textLength="108" x="105.25" y="152.8467">DispatchCache</text><line style="stroke:#181818;stroke-width:0.5;" x1="8" x2="278" y1="164" y2="164"/><text fill="#000000" font-family="sans-serif" font-size="14" lengthAdjust="spacing" textLength="260" x="13" y="180.9951">likelihood : Dict[Module, np.ndarray]</text><text fill="#000000" font-family="sans-serif" font-size="14" lengthAdjust="spacing" textLength="233" x="13" y="197.292">scope : Dict[Module, np.ndarray]</text><text fill="#000000" font-family="sans-serif" font-size="14" lengthAdjust="spacing" textLength="242" x="13" y="213.5889">sample : Dict[Module, np.ndarray]</text><line style="stroke:#181818;stroke-width:0.5;" x1="8" x2="278" y1="220.8906" y2="220.8906"/></g><!--MD5=[207949f27b0044680e36beb8120e7a82]
class DispatchContext--><g id="elem_DispatchContext"><rect codeLine="9" fill="#F1F1F1" height="80.5938" id="DispatchContext" rx="2.5" ry="2.5" style="stroke:#181818;stroke-width:0.5;" width="232" x="171" y="290"/><ellipse cx="221.25" cy="306" fill="#ADD1B2" rx="11" ry="11" style="stroke:#181818;stroke-width:1.0;"/><path d="M223.5938,301.6719 C222.6563,301.2344 222.0625,301.0938 221.1875,301.0938 C218.5625,301.0938 216.5625,303.1719 216.5625,305.8906 L216.5625,307.0156 C216.5625,309.5938 218.6719,311.4844 221.5625,311.4844 C222.7813,311.4844 223.9375,311.1875 224.6875,310.6406 C225.2656,310.2344 225.5938,309.7813 225.5938,309.3906 C225.5938,308.9375 225.2031,308.5469 224.7344,308.5469 C224.5156,308.5469 224.3125,308.625 224.125,308.8125 C223.6719,309.2969 223.6719,309.2969 223.4844,309.3906 C223.0625,309.6563 222.375,309.7813 221.6094,309.7813 C219.5625,309.7813 218.2656,308.6875 218.2656,306.9844 L218.2656,305.8906 C218.2656,304.1094 219.5156,302.7969 221.25,302.7969 C221.8281,302.7969 222.4375,302.9531 222.9063,303.2031 C223.3906,303.4844 223.5625,303.7031 223.6563,304.1094 C223.7188,304.5156 223.75,304.6406 223.8906,304.7656 C224.0313,304.9063 224.2656,305.0156 224.4844,305.0156 C224.75,305.0156 225.0156,304.875 225.1875,304.6563 C225.2969,304.5 225.3281,304.3125 225.3281,303.8906 L225.3281,302.4688 C225.3281,302.0313 225.3125,301.9063 225.2188,301.75 C225.0625,301.4844 224.7813,301.3438 224.4844,301.3438 C224.1875,301.3438 223.9844,301.4375 223.7656,301.75 L223.5938,301.6719 Z " fill="#000000"/><text fill="#000000" font-family="sans-serif" font-size="14" lengthAdjust="spacing" textLength="123" x="241.75" y="310.8467">DispatchContext</text><line style="stroke:#181818;stroke-width:0.5;" x1="172" x2="402" y1="322" y2="322"/><text fill="#000000" font-family="sans-serif" font-size="14" lengthAdjust="spacing" textLength="163" x="177" y="338.9951">cache : DispatchCache</text><text fill="#000000" font-family="sans-serif" font-size="14" lengthAdjust="spacing" textLength="220" x="177" y="355.292">args : Dict[Module, np.ndarray]</text><line style="stroke:#181818;stroke-width:0.5;" x1="172" x2="402" y1="362.5938" y2="362.5938"/></g><!--MD5=[4cceb9df4619d82ead3b905514076716]
link Module to DispatchCache--><g id="link_Module_DispatchCache"><path codeLine="14" d="M272.938,55.047 C251.535,75.546 219.557,106.175 192.68,131.916 " fill="none" id="Module-DispatchCache" style="stroke:#181818;stroke-width:1.0;"/><text fill="#000000" font-family="sans-serif" font-size="13" lengthAdjust="spacing" textLength="23" x="240" y="98.0669">key</text></g><!--MD5=[313a0f2cc200a9cce5b550133e0e7194]
reverse link DispatchCache to DispatchContext--><g id="link_DispatchCache_DispatchContext"><path codeLine="15" d="M192.962,232.85 C211.145,251.538 231.403,272.3586 248.446,289.8752 " fill="none" id="DispatchCache-backto-DispatchContext" style="stroke:#181818;stroke-width:1.0;"/><polygon fill="#181818" points="189.355,229.143,192.7658,238.3824,192.8423,232.7261,198.4987,232.8026,189.355,229.143" style="stroke:#181818;stroke-width:1.0;"/></g><!--MD5=[2e73d74dfc04bbe9808137fd4932ffa4]
link Module to DispatchContext--><g id="link_Module_DispatchContext"><path codeLine="16" d="M297.512,55.066 C298.187,91.87 298.969,166.139 296,229 C295.05,249.123 293.137,271.4474 291.318,289.9346 " fill="none" id="Module-DispatchContext" style="stroke:#181818;stroke-width:1.0;"/><text fill="#000000" font-family="sans-serif" font-size="13" lengthAdjust="spacing" textLength="23" x="300" y="185.0669">key</text></g><!--MD5=[65002c9981671821c7f4567b9932eac8]
@startuml
abstract class Module

class DispatchCache {
  likelihood : Dict[Module, np.ndarray]
  scope : Dict[Module, np.ndarray]
  sample : Dict[Module, np.ndarray]
}

class DispatchContext {
  cache : DispatchCache
  args : Dict[Module, np.ndarray]
}

Module - - DispatchCache : key
DispatchCache <- - DispatchContext
Module - - DispatchContext : key
@enduml

PlantUML version 1.2022.5(Sat Apr 30 10:55:52 UTC 2022)
(GPL source distribution)
Java Runtime: Java(TM) SE Runtime Environment
JVM: Java HotSpot(TM) 64-Bit Server VM
Default Encoding: UTF-8
Language: en
Country: US
--></g></svg>