<?xml version="1.0" encoding="UTF-8" standalone="no"?>
<svg xmlns="http://www.w3.org/2000/svg" xmlns:xlink="http://www.w3.org/1999/xlink" contentStyleType="text/css" height="235px" preserveAspectRatio="none" style="width:286px;height:235px;background:#FFFFFF;" version="1.1" viewBox="0 0 286 235" width="286px" zoomAndPan="magnify"><defs/><g><!--MD5=[2b7409a316d9d2e410653e6983353aed]
class Module--><g id="elem_Module"><rect codeLine="1" fill="#F1F1F1" height="48" id="Module" rx="2.5" ry="2.5" style="stroke:#181818;stroke-width:0.5;" width="84" x="101" y="7"/><ellipse cx="116" cy="23" fill="#A9DCDF" rx="11" ry="11" style="stroke:#181818;stroke-width:1.0;"/><path d="M118.0781,24.8125 L118.4688,25.7969 L118.0781,25.7969 C117.625,25.7969 117.5156,25.8125 117.3594,25.9219 C117.1094,26.0781 116.9531,26.3594 116.9531,26.6563 C116.9531,26.9219 117.0938,27.1719 117.3125,27.3281 C117.4531,27.4531 117.6563,27.5 118.0781,27.5 L120.4375,27.5 C120.7969,27.5 121.0156,27.4688 121.1563,27.375 C121.4063,27.2344 121.5625,26.9375 121.5625,26.6563 C121.5625,26.375 121.4219,26.125 121.2031,25.9688 C121.0313,25.8281 120.875,25.7969 120.4063,25.7969 L117.0156,17.5938 L113.3438,17.5938 C112.8906,17.5938 112.7656,17.6094 112.6094,17.7031 C112.3594,17.875 112.2031,18.1563 112.2031,18.4375 C112.2031,18.7188 112.3438,18.9688 112.5625,19.1406 C112.7344,19.25 112.9063,19.2813 113.3438,19.2813 L114.4219,19.2813 L111.7813,25.7969 C111.3594,25.7969 111.2031,25.8125 111.0469,25.9219 C110.7969,26.0781 110.6406,26.3594 110.6406,26.6563 C110.6406,27.2188 111.0156,27.5 111.7656,27.5 L114.0313,27.5 C114.3906,27.5 114.6094,27.4688 114.7344,27.375 C115,27.2344 115.1406,26.9375 115.1406,26.6563 C115.1406,26.375 115.0156,26.125 114.7969,25.9531 C114.625,25.8281 114.4844,25.7969 114.0313,25.7969 L113.6406,25.7969 L114.0313,24.8125 L118.0781,24.8125 Z M117.375,23.1094 L114.7031,23.1094 L116.0469,19.8438 L117.375,23.1094 Z " fill="#000000"/><text fill="#000000" font-family="sans-serif" font-size="14" font-style="italic" lengthAdjust="spacing" textLength="52" x="130" y="27.8467">Module</text><line style="stroke:#181818;stroke-width:0.5;" x1="102" x2="184" y1="39" y2="39"/><line style="stroke:#181818;stroke-width:0.5;" x1="102" x2="184" y1="47" y2="47"/></g><!--MD5=[b0fd6754c4234098630b52d58e725e19]
class DispatchCache--><g id="elem_DispatchCache"><rect codeLine="3" fill="#F1F1F1" height="96.8906" id="DispatchCache" rx="2.5" ry="2.5" style="stroke:#181818;stroke-width:0.5;" width="272" x="7" y="132"/><ellipse cx="84.75" cy="148" fill="#ADD1B2" rx="11" ry="11" style="stroke:#181818;stroke-width:1.0;"/><path d="M87.0938,143.6719 C86.1563,143.2344 85.5625,143.0938 84.6875,143.0938 C82.0625,143.0938 80.0625,145.1719 80.0625,147.8906 L80.0625,149.0156 C80.0625,151.5938 82.1719,153.4844 85.0625,153.4844 C86.2813,153.4844 87.4375,153.1875 88.1875,152.6406 C88.7656,152.2344 89.0938,151.7813 89.0938,151.3906 C89.0938,150.9375 88.7031,150.5469 88.2344,150.5469 C88.0156,150.5469 87.8125,150.625 87.625,150.8125 C87.1719,151.2969 87.1719,151.2969 86.9844,151.3906 C86.5625,151.6563 85.875,151.7813 85.1094,151.7813 C83.0625,151.7813 81.7656,150.6875 81.7656,148.9844 L81.7656,147.8906 C81.7656,146.1094 83.0156,144.7969 84.75,144.7969 C85.3281,144.7969 85.9375,144.9531 86.4063,145.2031 C86.8906,145.4844 87.0625,145.7031 87.1563,146.1094 C87.2188,146.5156 87.25,146.6406 87.3906,146.7656 C87.5313,146.9063 87.7656,147.0156 87.9844,147.0156 C88.25,147.0156 88.5156,146.875 88.6875,146.6563 C88.7969,146.5 88.8281,146.3125 88.8281,145.8906 L88.8281,144.4688 C88.8281,144.0313 88.8125,143.9063 88.7188,143.75 C88.5625,143.4844 88.2813,143.3438 87.9844,143.3438 C87.6875,143.3438 87.4844,143.4375 87.2656,143.75 L87.0938,143.6719 Z " fill="#000000"/><text fill="#000000" font-family="sans-serif" font-size="14" lengthAdjust="spacing" textLength="108" x="105.25" y="152.8467">DispatchCache</text><line style="stroke:#181818;stroke-width:0.5;" x1="8" x2="278" y1="164" y2="164"/><text fill="#000000" font-family="sans-serif" font-size="14" lengthAdjust="spacing" textLength="260" x="13" y="180.9951">likelihood : Dict[Module, np.ndarray]</text><text fill="#000000" font-family="sans-serif" font-size="14" lengthAdjust="spacing" textLength="233" x="13" y="197.292">scope : Dict[Module, np.ndarray]</text><text fill="#000000" font-family="sans-serif" font-size="14" lengthAdjust="spacing" textLength="242" x="13" y="213.5889">sample : Dict[Module, np.ndarray]</text><line style="stroke:#181818;stroke-width:0.5;" x1="8" x2="278" y1="220.8906" y2="220.8906"/></g><!--MD5=[4cceb9df4619d82ead3b905514076716]
link Module to DispatchCache--><g id="link_Module_DispatchCache"><path codeLine="9" d="M143,55.047 C143,75.546 143,106.175 143,131.9164 " fill="none" id="Module-DispatchCache" style="stroke:#181818;stroke-width:1.0;"/><text fill="#000000" font-family="sans-serif" font-size="13" lengthAdjust="spacing" textLength="23" x="144" y="98.0669">key</text></g><!--MD5=[dbfef7fc8beef478db01a2d3100f6781]
@startuml
abstract class Module

class DispatchCache {
  likelihood : Dict[Module, np.ndarray]
  scope : Dict[Module, np.ndarray]
  sample : Dict[Module, np.ndarray]
}

Module - - DispatchCache : key
@enduml

PlantUML version 1.2022.5(Sat Apr 30 10:55:52 UTC 2022)
(GPL source distribution)
Java Runtime: Java(TM) SE Runtime Environment
JVM: Java HotSpot(TM) 64-Bit Server VM
Default Encoding: UTF-8
Language: en
Country: US
--></g></svg>