<?xml version="1.0" encoding="UTF-8" standalone="no"?>
<svg xmlns="http://www.w3.org/2000/svg" xmlns:xlink="http://www.w3.org/1999/xlink" contentStyleType="text/css" height="418px" preserveAspectRatio="none" style="width:593px;height:418px;background:#FFFFFF;" version="1.1" viewBox="0 0 593 418" width="593px" zoomAndPan="magnify"><defs/><g><!--MD5=[2b7409a316d9d2e410653e6983353aed]
class Module--><g id="elem_Module"><rect codeLine="1" fill="#F1F1F1" height="48" id="Module" rx="2.5" ry="2.5" style="stroke:#181818;stroke-width:0.5;" width="84" x="146" y="7"/><ellipse cx="161" cy="23" fill="#A9DCDF" rx="11" ry="11" style="stroke:#181818;stroke-width:1.0;"/><path d="M163.0781,24.8125 L163.4688,25.7969 L163.0781,25.7969 C162.625,25.7969 162.5156,25.8125 162.3594,25.9219 C162.1094,26.0781 161.9531,26.3594 161.9531,26.6563 C161.9531,26.9219 162.0938,27.1719 162.3125,27.3281 C162.4531,27.4531 162.6563,27.5 163.0781,27.5 L165.4375,27.5 C165.7969,27.5 166.0156,27.4688 166.1563,27.375 C166.4063,27.2344 166.5625,26.9375 166.5625,26.6563 C166.5625,26.375 166.4219,26.125 166.2031,25.9688 C166.0313,25.8281 165.875,25.7969 165.4063,25.7969 L162.0156,17.5938 L158.3438,17.5938 C157.8906,17.5938 157.7656,17.6094 157.6094,17.7031 C157.3594,17.875 157.2031,18.1563 157.2031,18.4375 C157.2031,18.7188 157.3438,18.9688 157.5625,19.1406 C157.7344,19.25 157.9063,19.2813 158.3438,19.2813 L159.4219,19.2813 L156.7813,25.7969 C156.3594,25.7969 156.2031,25.8125 156.0469,25.9219 C155.7969,26.0781 155.6406,26.3594 155.6406,26.6563 C155.6406,27.2188 156.0156,27.5 156.7656,27.5 L159.0313,27.5 C159.3906,27.5 159.6094,27.4688 159.7344,27.375 C160,27.2344 160.1406,26.9375 160.1406,26.6563 C160.1406,26.375 160.0156,26.125 159.7969,25.9531 C159.625,25.8281 159.4844,25.7969 159.0313,25.7969 L158.6406,25.7969 L159.0313,24.8125 L163.0781,24.8125 Z M162.375,23.1094 L159.7031,23.1094 L161.0469,19.8438 L162.375,23.1094 Z " fill="#000000"/><text fill="#000000" font-family="sans-serif" font-size="14" font-style="italic" lengthAdjust="spacing" textLength="52" x="175" y="27.8467">Module</text><line style="stroke:#181818;stroke-width:0.5;" x1="147" x2="229" y1="39" y2="39"/><line style="stroke:#181818;stroke-width:0.5;" x1="147" x2="229" y1="47" y2="47"/></g><!--MD5=[1894d99c1452aee8a36ae323ff2c2d44]
class LeafLayer--><g id="elem_LeafLayer"><rect codeLine="3" fill="#F1F1F1" height="64.2969" id="LeafLayer" rx="2.5" ry="2.5" style="stroke:#181818;stroke-width:0.5;" width="172" x="7" y="115"/><ellipse cx="53.75" cy="131" fill="#ADD1B2" rx="11" ry="11" style="stroke:#181818;stroke-width:1.0;"/><path d="M56.0938,126.6719 C55.1563,126.2344 54.5625,126.0938 53.6875,126.0938 C51.0625,126.0938 49.0625,128.1719 49.0625,130.8906 L49.0625,132.0156 C49.0625,134.5938 51.1719,136.4844 54.0625,136.4844 C55.2813,136.4844 56.4375,136.1875 57.1875,135.6406 C57.7656,135.2344 58.0938,134.7813 58.0938,134.3906 C58.0938,133.9375 57.7031,133.5469 57.2344,133.5469 C57.0156,133.5469 56.8125,133.625 56.625,133.8125 C56.1719,134.2969 56.1719,134.2969 55.9844,134.3906 C55.5625,134.6563 54.875,134.7813 54.1094,134.7813 C52.0625,134.7813 50.7656,133.6875 50.7656,131.9844 L50.7656,130.8906 C50.7656,129.1094 52.0156,127.7969 53.75,127.7969 C54.3281,127.7969 54.9375,127.9531 55.4063,128.2031 C55.8906,128.4844 56.0625,128.7031 56.1563,129.1094 C56.2188,129.5156 56.25,129.6406 56.3906,129.7656 C56.5313,129.9063 56.7656,130.0156 56.9844,130.0156 C57.25,130.0156 57.5156,129.875 57.6875,129.6563 C57.7969,129.5 57.8281,129.3125 57.8281,128.8906 L57.8281,127.4688 C57.8281,127.0313 57.8125,126.9063 57.7188,126.75 C57.5625,126.4844 57.2813,126.3438 56.9844,126.3438 C56.6875,126.3438 56.4844,126.4375 56.2656,126.75 L56.0938,126.6719 Z " fill="#000000"/><text fill="#000000" font-family="sans-serif" font-size="14" lengthAdjust="spacing" textLength="70" x="74.25" y="135.8467">LeafLayer</text><line style="stroke:#181818;stroke-width:0.5;" x1="8" x2="178" y1="147" y2="147"/><text fill="#000000" font-family="sans-serif" font-size="14" lengthAdjust="spacing" textLength="160" x="13" y="163.9951">nodes : List[LeafNode]</text><line style="stroke:#181818;stroke-width:0.5;" x1="8" x2="178" y1="171.2969" y2="171.2969"/></g><!--MD5=[66148af4ccdef8153c55d160aebad70b]
class LeafNode--><g id="elem_LeafNode"><rect codeLine="7" fill="#F1F1F1" height="48" id="LeafNode" rx="2.5" ry="2.5" style="stroke:#181818;stroke-width:0.5;" width="100" x="43" y="247"/><ellipse cx="58" cy="263" fill="#ADD1B2" rx="11" ry="11" style="stroke:#181818;stroke-width:1.0;"/><path d="M60.3438,258.6719 C59.4063,258.2344 58.8125,258.0938 57.9375,258.0938 C55.3125,258.0938 53.3125,260.1719 53.3125,262.8906 L53.3125,264.0156 C53.3125,266.5938 55.4219,268.4844 58.3125,268.4844 C59.5313,268.4844 60.6875,268.1875 61.4375,267.6406 C62.0156,267.2344 62.3438,266.7813 62.3438,266.3906 C62.3438,265.9375 61.9531,265.5469 61.4844,265.5469 C61.2656,265.5469 61.0625,265.625 60.875,265.8125 C60.4219,266.2969 60.4219,266.2969 60.2344,266.3906 C59.8125,266.6563 59.125,266.7813 58.3594,266.7813 C56.3125,266.7813 55.0156,265.6875 55.0156,263.9844 L55.0156,262.8906 C55.0156,261.1094 56.2656,259.7969 58,259.7969 C58.5781,259.7969 59.1875,259.9531 59.6563,260.2031 C60.1406,260.4844 60.3125,260.7031 60.4063,261.1094 C60.4688,261.5156 60.5,261.6406 60.6406,261.7656 C60.7813,261.9063 61.0156,262.0156 61.2344,262.0156 C61.5,262.0156 61.7656,261.875 61.9375,261.6563 C62.0469,261.5 62.0781,261.3125 62.0781,260.8906 L62.0781,259.4688 C62.0781,259.0313 62.0625,258.9063 61.9688,258.75 C61.8125,258.4844 61.5313,258.3438 61.2344,258.3438 C60.9375,258.3438 60.7344,258.4375 60.5156,258.75 L60.3438,258.6719 Z " fill="#000000"/><text fill="#000000" font-family="sans-serif" font-size="14" lengthAdjust="spacing" textLength="68" x="72" y="267.8467">LeafNode</text><line style="stroke:#181818;stroke-width:0.5;" x1="44" x2="142" y1="279" y2="279"/><line style="stroke:#181818;stroke-width:0.5;" x1="44" x2="142" y1="287" y2="287"/></g><!--MD5=[a9c5adf0d69ef1b6045b65136973a6ef]
class NestingModule--><g id="elem_NestingModule"><rect codeLine="12" fill="#F1F1F1" height="48" id="NestingModule" rx="2.5" ry="2.5" style="stroke:#181818;stroke-width:0.5;" width="137" x="214.5" y="123"/><ellipse cx="229.5" cy="139" fill="#A9DCDF" rx="11" ry="11" style="stroke:#181818;stroke-width:1.0;"/><path d="M231.5781,140.8125 L231.9688,141.7969 L231.5781,141.7969 C231.125,141.7969 231.0156,141.8125 230.8594,141.9219 C230.6094,142.0781 230.4531,142.3594 230.4531,142.6563 C230.4531,142.9219 230.5938,143.1719 230.8125,143.3281 C230.9531,143.4531 231.1563,143.5 231.5781,143.5 L233.9375,143.5 C234.2969,143.5 234.5156,143.4688 234.6563,143.375 C234.9063,143.2344 235.0625,142.9375 235.0625,142.6563 C235.0625,142.375 234.9219,142.125 234.7031,141.9688 C234.5313,141.8281 234.375,141.7969 233.9063,141.7969 L230.5156,133.5938 L226.8438,133.5938 C226.3906,133.5938 226.2656,133.6094 226.1094,133.7031 C225.8594,133.875 225.7031,134.1563 225.7031,134.4375 C225.7031,134.7188 225.8438,134.9688 226.0625,135.1406 C226.2344,135.25 226.4063,135.2813 226.8438,135.2813 L227.9219,135.2813 L225.2813,141.7969 C224.8594,141.7969 224.7031,141.8125 224.5469,141.9219 C224.2969,142.0781 224.1406,142.3594 224.1406,142.6563 C224.1406,143.2188 224.5156,143.5 225.2656,143.5 L227.5313,143.5 C227.8906,143.5 228.1094,143.4688 228.2344,143.375 C228.5,143.2344 228.6406,142.9375 228.6406,142.6563 C228.6406,142.375 228.5156,142.125 228.2969,141.9531 C228.125,141.8281 227.9844,141.7969 227.5313,141.7969 L227.1406,141.7969 L227.5313,140.8125 L231.5781,140.8125 Z M230.875,139.1094 L228.2031,139.1094 L229.5469,135.8438 L230.875,139.1094 Z " fill="#000000"/><text fill="#000000" font-family="sans-serif" font-size="14" font-style="italic" lengthAdjust="spacing" textLength="105" x="243.5" y="143.8467">NestingModule</text><line style="stroke:#181818;stroke-width:0.5;" x1="215.5" x2="350.5" y1="155" y2="155"/><line style="stroke:#181818;stroke-width:0.5;" x1="215.5" x2="350.5" y1="163" y2="163"/></g><!--MD5=[709978e0dc7aec016eb2a3d0ca5a9b5b]
class ProductLayer--><g id="elem_ProductLayer"><rect codeLine="14" fill="#F1F1F1" height="64.2969" id="ProductLayer" rx="2.5" ry="2.5" style="stroke:#181818;stroke-width:0.5;" width="197" x="181.5" y="239"/><ellipse cx="228.25" cy="255" fill="#ADD1B2" rx="11" ry="11" style="stroke:#181818;stroke-width:1.0;"/><path d="M230.5938,250.6719 C229.6563,250.2344 229.0625,250.0938 228.1875,250.0938 C225.5625,250.0938 223.5625,252.1719 223.5625,254.8906 L223.5625,256.0156 C223.5625,258.5938 225.6719,260.4844 228.5625,260.4844 C229.7813,260.4844 230.9375,260.1875 231.6875,259.6406 C232.2656,259.2344 232.5938,258.7813 232.5938,258.3906 C232.5938,257.9375 232.2031,257.5469 231.7344,257.5469 C231.5156,257.5469 231.3125,257.625 231.125,257.8125 C230.6719,258.2969 230.6719,258.2969 230.4844,258.3906 C230.0625,258.6563 229.375,258.7813 228.6094,258.7813 C226.5625,258.7813 225.2656,257.6875 225.2656,255.9844 L225.2656,254.8906 C225.2656,253.1094 226.5156,251.7969 228.25,251.7969 C228.8281,251.7969 229.4375,251.9531 229.9063,252.2031 C230.3906,252.4844 230.5625,252.7031 230.6563,253.1094 C230.7188,253.5156 230.75,253.6406 230.8906,253.7656 C231.0313,253.9063 231.2656,254.0156 231.4844,254.0156 C231.75,254.0156 232.0156,253.875 232.1875,253.6563 C232.2969,253.5 232.3281,253.3125 232.3281,252.8906 L232.3281,251.4688 C232.3281,251.0313 232.3125,250.9063 232.2188,250.75 C232.0625,250.4844 231.7813,250.3438 231.4844,250.3438 C231.1875,250.3438 230.9844,250.4375 230.7656,250.75 L230.5938,250.6719 Z " fill="#000000"/><text fill="#000000" font-family="sans-serif" font-size="14" lengthAdjust="spacing" textLength="95" x="248.75" y="259.8467">ProductLayer</text><line style="stroke:#181818;stroke-width:0.5;" x1="182.5" x2="377.5" y1="271" y2="271"/><text fill="#000000" font-family="sans-serif" font-size="14" lengthAdjust="spacing" textLength="185" x="187.5" y="287.9951">nodes : List[ProductNode]</text><line style="stroke:#181818;stroke-width:0.5;" x1="182.5" x2="377.5" y1="295.2969" y2="295.2969"/></g><!--MD5=[066cb78d2b3541805f4aaffbc757a698]
class SumLayer--><g id="elem_SumLayer"><rect codeLine="18" fill="#F1F1F1" height="64.2969" id="SumLayer" rx="2.5" ry="2.5" style="stroke:#181818;stroke-width:0.5;" width="172" x="414" y="239"/><ellipse cx="460.75" cy="255" fill="#ADD1B2" rx="11" ry="11" style="stroke:#181818;stroke-width:1.0;"/><path d="M463.0938,250.6719 C462.1563,250.2344 461.5625,250.0938 460.6875,250.0938 C458.0625,250.0938 456.0625,252.1719 456.0625,254.8906 L456.0625,256.0156 C456.0625,258.5938 458.1719,260.4844 461.0625,260.4844 C462.2813,260.4844 463.4375,260.1875 464.1875,259.6406 C464.7656,259.2344 465.0938,258.7813 465.0938,258.3906 C465.0938,257.9375 464.7031,257.5469 464.2344,257.5469 C464.0156,257.5469 463.8125,257.625 463.625,257.8125 C463.1719,258.2969 463.1719,258.2969 462.9844,258.3906 C462.5625,258.6563 461.875,258.7813 461.1094,258.7813 C459.0625,258.7813 457.7656,257.6875 457.7656,255.9844 L457.7656,254.8906 C457.7656,253.1094 459.0156,251.7969 460.75,251.7969 C461.3281,251.7969 461.9375,251.9531 462.4063,252.2031 C462.8906,252.4844 463.0625,252.7031 463.1563,253.1094 C463.2188,253.5156 463.25,253.6406 463.3906,253.7656 C463.5313,253.9063 463.7656,254.0156 463.9844,254.0156 C464.25,254.0156 464.5156,253.875 464.6875,253.6563 C464.7969,253.5 464.8281,253.3125 464.8281,252.8906 L464.8281,251.4688 C464.8281,251.0313 464.8125,250.9063 464.7188,250.75 C464.5625,250.4844 464.2813,250.3438 463.9844,250.3438 C463.6875,250.3438 463.4844,250.4375 463.2656,250.75 L463.0938,250.6719 Z " fill="#000000"/><text fill="#000000" font-family="sans-serif" font-size="14" lengthAdjust="spacing" textLength="70" x="481.25" y="259.8467">SumLayer</text><line style="stroke:#181818;stroke-width:0.5;" x1="415" x2="585" y1="271" y2="271"/><text fill="#000000" font-family="sans-serif" font-size="14" lengthAdjust="spacing" textLength="160" x="420" y="287.9951">nodes : List[SumNode]</text><line style="stroke:#181818;stroke-width:0.5;" x1="415" x2="585" y1="295.2969" y2="295.2969"/></g><!--MD5=[540ad19034418cbb219aa4b2bc3e4d03]
class SumNode--><g id="elem_SumNode"><rect codeLine="22" fill="#F1F1F1" height="48" id="SumNode" rx="2.5" ry="2.5" style="stroke:#181818;stroke-width:0.5;" width="100" x="450" y="363"/><ellipse cx="465" cy="379" fill="#ADD1B2" rx="11" ry="11" style="stroke:#181818;stroke-width:1.0;"/><path d="M467.3438,374.6719 C466.4063,374.2344 465.8125,374.0938 464.9375,374.0938 C462.3125,374.0938 460.3125,376.1719 460.3125,378.8906 L460.3125,380.0156 C460.3125,382.5938 462.4219,384.4844 465.3125,384.4844 C466.5313,384.4844 467.6875,384.1875 468.4375,383.6406 C469.0156,383.2344 469.3438,382.7813 469.3438,382.3906 C469.3438,381.9375 468.9531,381.5469 468.4844,381.5469 C468.2656,381.5469 468.0625,381.625 467.875,381.8125 C467.4219,382.2969 467.4219,382.2969 467.2344,382.3906 C466.8125,382.6563 466.125,382.7813 465.3594,382.7813 C463.3125,382.7813 462.0156,381.6875 462.0156,379.9844 L462.0156,378.8906 C462.0156,377.1094 463.2656,375.7969 465,375.7969 C465.5781,375.7969 466.1875,375.9531 466.6563,376.2031 C467.1406,376.4844 467.3125,376.7031 467.4063,377.1094 C467.4688,377.5156 467.5,377.6406 467.6406,377.7656 C467.7813,377.9063 468.0156,378.0156 468.2344,378.0156 C468.5,378.0156 468.7656,377.875 468.9375,377.6563 C469.0469,377.5 469.0781,377.3125 469.0781,376.8906 L469.0781,375.4688 C469.0781,375.0313 469.0625,374.9063 468.9688,374.75 C468.8125,374.4844 468.5313,374.3438 468.2344,374.3438 C467.9375,374.3438 467.7344,374.4375 467.5156,374.75 L467.3438,374.6719 Z " fill="#000000"/><text fill="#000000" font-family="sans-serif" font-size="14" lengthAdjust="spacing" textLength="68" x="479" y="383.8467">SumNode</text><line style="stroke:#181818;stroke-width:0.5;" x1="451" x2="549" y1="395" y2="395"/><line style="stroke:#181818;stroke-width:0.5;" x1="451" x2="549" y1="403" y2="403"/></g><!--MD5=[de66e0bf3b5cf0679d45b5a314dc41c5]
class ProductNode--><g id="elem_ProductNode"><rect codeLine="28" fill="#F1F1F1" height="48" id="ProductNode" rx="2.5" ry="2.5" style="stroke:#181818;stroke-width:0.5;" width="125" x="217.5" y="363"/><ellipse cx="232.5" cy="379" fill="#ADD1B2" rx="11" ry="11" style="stroke:#181818;stroke-width:1.0;"/><path d="M234.8438,374.6719 C233.9063,374.2344 233.3125,374.0938 232.4375,374.0938 C229.8125,374.0938 227.8125,376.1719 227.8125,378.8906 L227.8125,380.0156 C227.8125,382.5938 229.9219,384.4844 232.8125,384.4844 C234.0313,384.4844 235.1875,384.1875 235.9375,383.6406 C236.5156,383.2344 236.8438,382.7813 236.8438,382.3906 C236.8438,381.9375 236.4531,381.5469 235.9844,381.5469 C235.7656,381.5469 235.5625,381.625 235.375,381.8125 C234.9219,382.2969 234.9219,382.2969 234.7344,382.3906 C234.3125,382.6563 233.625,382.7813 232.8594,382.7813 C230.8125,382.7813 229.5156,381.6875 229.5156,379.9844 L229.5156,378.8906 C229.5156,377.1094 230.7656,375.7969 232.5,375.7969 C233.0781,375.7969 233.6875,375.9531 234.1563,376.2031 C234.6406,376.4844 234.8125,376.7031 234.9063,377.1094 C234.9688,377.5156 235,377.6406 235.1406,377.7656 C235.2813,377.9063 235.5156,378.0156 235.7344,378.0156 C236,378.0156 236.2656,377.875 236.4375,377.6563 C236.5469,377.5 236.5781,377.3125 236.5781,376.8906 L236.5781,375.4688 C236.5781,375.0313 236.5625,374.9063 236.4688,374.75 C236.3125,374.4844 236.0313,374.3438 235.7344,374.3438 C235.4375,374.3438 235.2344,374.4375 235.0156,374.75 L234.8438,374.6719 Z " fill="#000000"/><text fill="#000000" font-family="sans-serif" font-size="14" lengthAdjust="spacing" textLength="93" x="246.5" y="383.8467">ProductNode</text><line style="stroke:#181818;stroke-width:0.5;" x1="218.5" x2="341.5" y1="395" y2="395"/><line style="stroke:#181818;stroke-width:0.5;" x1="218.5" x2="341.5" y1="403" y2="403"/></g><!--MD5=[11593aeea67b481ea398fcb3e5814276]
reverse link Module to LeafLayer--><g id="link_Module_LeafLayer"><path codeLine="9" d="M155.629,70.846 C143.696,85.165 130.34,101.192 119.038,114.755 " fill="none" id="Module-backto-LeafLayer" style="stroke:#181818;stroke-width:1.0;"/><polygon fill="none" points="150.594,65.953,168.775,55.07,161.349,74.915,150.594,65.953" style="stroke:#181818;stroke-width:1.0;"/></g><!--MD5=[a5abba92ddf5fdafee846c7905d3cd4a]
link LeafLayer to LeafNode--><g id="link_LeafLayer_LeafNode"><path codeLine="10" d="M93,179.101 C93,198.331 93,222.828 93,241.544 " fill="none" id="LeafLayer-to-LeafNode" style="stroke:#181818;stroke-width:1.0;"/><polygon fill="#181818" points="93,246.661,97,237.661,93,241.661,89,237.661,93,246.661" style="stroke:#181818;stroke-width:1.0;"/></g><!--MD5=[fea0c87994cc0e6cff7f375e4fbefb9e]
reverse link Module to NestingModule--><g id="link_Module_NestingModule"><path codeLine="24" d="M220.03,70.436 C234.559,87.871 251.256,107.907 263.804,122.965 " fill="none" id="Module-backto-NestingModule" style="stroke:#181818;stroke-width:1.0;"/><polygon fill="none" points="214.651,74.915,207.225,55.07,225.406,65.953,214.651,74.915" style="stroke:#181818;stroke-width:1.0;"/></g><!--MD5=[18aec7f8dab732d70d30b54687f2ccf3]
reverse link NestingModule to SumLayer--><g id="link_NestingModule_SumLayer"><path codeLine="25" d="M341.513,180.897 C373.612,198.943 413.181,221.189 444.752,238.939 " fill="none" id="NestingModule-backto-SumLayer" style="stroke:#181818;stroke-width:1.0;"/><polygon fill="none" points="338.074,186.994,324.071,171.091,344.935,174.79,338.074,186.994" style="stroke:#181818;stroke-width:1.0;"/></g><!--MD5=[bc62471d8c6f7411bee3e776944a3a3e]
link SumLayer to SumNode--><g id="link_SumLayer_SumNode"><path codeLine="26" d="M500,303.151 C500,320.0905 500,340.8942 500,357.417 " fill="none" id="SumLayer-to-SumNode" style="stroke:#181818;stroke-width:1.0;"/><polygon fill="#181818" points="500,362.8446,504,353.8446,500,357.8446,496,353.8446,500,362.8446" style="stroke:#181818;stroke-width:1.0;"/></g><!--MD5=[f42027253c9129ef76a4b547e1afd213]
reverse link NestingModule to ProductLayer--><g id="link_NestingModule_ProductLayer"><path codeLine="30" d="M281.934,191.335 C281.551,206.915 281.127,224.179 280.773,238.555 " fill="none" id="NestingModule-backto-ProductLayer" style="stroke:#181818;stroke-width:1.0;"/><polygon fill="none" points="274.939,191.056,282.429,171.234,288.935,191.4,274.939,191.056" style="stroke:#181818;stroke-width:1.0;"/></g><!--MD5=[468399379625fa666059c49bac5099cc]
link ProductLayer to ProductNode--><g id="link_ProductLayer_ProductNode"><path codeLine="31" d="M280,303.151 C280,320.0905 280,340.8942 280,357.417 " fill="none" id="ProductLayer-to-ProductNode" style="stroke:#181818;stroke-width:1.0;"/><polygon fill="#181818" points="280,362.8446,284,353.8446,280,357.8446,276,353.8446,280,362.8446" style="stroke:#181818;stroke-width:1.0;"/></g><!--MD5=[8963672b1940bae92946aeff09364110]
@startuml
abstract class Module

class LeafLayer {
  nodes : List[LeafNode]
}

class LeafNode

Module <|- - LeafLayer
LeafLayer - -> LeafNode

abstract class NestingModule

class ProductLayer {
  nodes : List[ProductNode]
}

class SumLayer {
  nodes : List[SumNode]
}

class SumNode

Module <|- - NestingModule
NestingModule <|- - SumLayer
SumLayer - -> SumNode

class ProductNode

NestingModule <|- - ProductLayer
ProductLayer - -> ProductNode
@enduml

PlantUML version 1.2022.3beta2(Unknown compile time)
(GPL source distribution)
Java Runtime: Java(TM) SE Runtime Environment
JVM: Java HotSpot(TM) 64-Bit Server VM
Default Encoding: UTF-8
Language: en
Country: US
--></g></svg>