<?xml version="1.0" encoding="UTF-8" standalone="no"?>
<svg xmlns="http://www.w3.org/2000/svg" xmlns:xlink="http://www.w3.org/1999/xlink" contentStyleType="text/css" height="101px" preserveAspectRatio="none" style="width:191px;height:101px;background:#FFFFFF;" version="1.1" viewBox="0 0 191 101" width="191px" zoomAndPan="magnify"><defs/><g><!--MD5=[2b7409a316d9d2e410653e6983353aed]
class Module--><g id="elem_Module"><rect codeLine="1" fill="#F1F1F1" height="80.5938" id="Module" rx="2.5" ry="2.5" style="stroke:#181818;stroke-width:0.5;" width="170" x="7" y="7"/><ellipse cx="61.75" cy="23" fill="#A9DCDF" rx="11" ry="11" style="stroke:#181818;stroke-width:1.0;"/><path d="M63.8281,24.8125 L64.2188,25.7969 L63.8281,25.7969 C63.375,25.7969 63.2656,25.8125 63.1094,25.9219 C62.8594,26.0781 62.7031,26.3594 62.7031,26.6563 C62.7031,26.9219 62.8438,27.1719 63.0625,27.3281 C63.2031,27.4531 63.4063,27.5 63.8281,27.5 L66.1875,27.5 C66.5469,27.5 66.7656,27.4688 66.9063,27.375 C67.1563,27.2344 67.3125,26.9375 67.3125,26.6563 C67.3125,26.375 67.1719,26.125 66.9531,25.9688 C66.7813,25.8281 66.625,25.7969 66.1563,25.7969 L62.7656,17.5938 L59.0938,17.5938 C58.6406,17.5938 58.5156,17.6094 58.3594,17.7031 C58.1094,17.875 57.9531,18.1563 57.9531,18.4375 C57.9531,18.7188 58.0938,18.9688 58.3125,19.1406 C58.4844,19.25 58.6563,19.2813 59.0938,19.2813 L60.1719,19.2813 L57.5313,25.7969 C57.1094,25.7969 56.9531,25.8125 56.7969,25.9219 C56.5469,26.0781 56.3906,26.3594 56.3906,26.6563 C56.3906,27.2188 56.7656,27.5 57.5156,27.5 L59.7813,27.5 C60.1406,27.5 60.3594,27.4688 60.4844,27.375 C60.75,27.2344 60.8906,26.9375 60.8906,26.6563 C60.8906,26.375 60.7656,26.125 60.5469,25.9531 C60.375,25.8281 60.2344,25.7969 59.7813,25.7969 L59.3906,25.7969 L59.7813,24.8125 L63.8281,24.8125 Z M63.125,23.1094 L60.4531,23.1094 L61.7969,19.8438 L63.125,23.1094 Z " fill="#000000"/><text fill="#000000" font-family="sans-serif" font-size="14" font-style="italic" lengthAdjust="spacing" textLength="52" x="82.25" y="27.8467">Module</text><line style="stroke:#181818;stroke-width:0.5;" x1="8" x2="176" y1="39" y2="39"/><text fill="#000000" font-family="sans-serif" font-size="14" lengthAdjust="spacing" textLength="158" x="13" y="55.9951">children : List[Module]</text><text fill="#000000" font-family="sans-serif" font-size="14" lengthAdjust="spacing" textLength="73" x="13" y="72.292">n_out : int</text><line style="stroke:#181818;stroke-width:0.5;" x1="8" x2="176" y1="79.5938" y2="79.5938"/></g><!--MD5=[432945aa7368679f5121849e9f71926d]
@startuml
abstract class Module{
  children : List[Module]
  n_out : int
}
@enduml

PlantUML version 1.2022.3beta2(Unknown compile time)
(GPL source distribution)
Java Runtime: Java(TM) SE Runtime Environment
JVM: Java HotSpot(TM) 64-Bit Server VM
Default Encoding: UTF-8
Language: en
Country: US
--></g></svg>