<?xml version="1.0" encoding="UTF-8" standalone="no"?>
<svg xmlns="http://www.w3.org/2000/svg" xmlns:xlink="http://www.w3.org/1999/xlink" contentStyleType="text/css" height="170px" preserveAspectRatio="none" style="width:161px;height:170px;background:#FFFFFF;" version="1.1" viewBox="0 0 161 170" width="161px" zoomAndPan="magnify"><defs/><g><!--MD5=[dcc2607c48d7949f71538576236c9492]
class NetworkType--><g id="elem_NetworkType"><rect codeLine="1" fill="#F1F1F1" height="48" id="NetworkType" rx="2.5" ry="2.5" style="stroke:#181818;stroke-width:0.5;" width="125" x="19.5" y="7"/><ellipse cx="34.5" cy="23" fill="#A9DCDF" rx="11" ry="11" style="stroke:#181818;stroke-width:1.0;"/><path d="M36.5781,24.8125 L36.9688,25.7969 L36.5781,25.7969 C36.125,25.7969 36.0156,25.8125 35.8594,25.9219 C35.6094,26.0781 35.4531,26.3594 35.4531,26.6563 C35.4531,26.9219 35.5938,27.1719 35.8125,27.3281 C35.9531,27.4531 36.1563,27.5 36.5781,27.5 L38.9375,27.5 C39.2969,27.5 39.5156,27.4688 39.6563,27.375 C39.9063,27.2344 40.0625,26.9375 40.0625,26.6563 C40.0625,26.375 39.9219,26.125 39.7031,25.9688 C39.5313,25.8281 39.375,25.7969 38.9063,25.7969 L35.5156,17.5938 L31.8438,17.5938 C31.3906,17.5938 31.2656,17.6094 31.1094,17.7031 C30.8594,17.875 30.7031,18.1563 30.7031,18.4375 C30.7031,18.7188 30.8438,18.9688 31.0625,19.1406 C31.2344,19.25 31.4063,19.2813 31.8438,19.2813 L32.9219,19.2813 L30.2813,25.7969 C29.8594,25.7969 29.7031,25.8125 29.5469,25.9219 C29.2969,26.0781 29.1406,26.3594 29.1406,26.6563 C29.1406,27.2188 29.5156,27.5 30.2656,27.5 L32.5313,27.5 C32.8906,27.5 33.1094,27.4688 33.2344,27.375 C33.5,27.2344 33.6406,26.9375 33.6406,26.6563 C33.6406,26.375 33.5156,26.125 33.2969,25.9531 C33.125,25.8281 32.9844,25.7969 32.5313,25.7969 L32.1406,25.7969 L32.5313,24.8125 L36.5781,24.8125 Z M35.875,23.1094 L33.2031,23.1094 L34.5469,19.8438 L35.875,23.1094 Z " fill="#000000"/><text fill="#000000" font-family="sans-serif" font-size="14" font-style="italic" lengthAdjust="spacing" textLength="93" x="48.5" y="27.8467">NetworkType</text><line style="stroke:#181818;stroke-width:0.5;" x1="20.5" x2="143.5" y1="39" y2="39"/><line style="stroke:#181818;stroke-width:0.5;" x1="20.5" x2="143.5" y1="47" y2="47"/></g><!--MD5=[0417168d75c47ce8d429e9f7d7ecdd1e]
class SPN--><g id="elem_SPN"><rect fill="#F1F1F1" height="48" id="SPN" rx="2.5" ry="2.5" style="stroke:#181818;stroke-width:0.5;" width="60" x="7" y="115"/><ellipse cx="22" cy="131" fill="#ADD1B2" rx="11" ry="11" style="stroke:#181818;stroke-width:1.0;"/><path d="M24.3438,126.6719 C23.4063,126.2344 22.8125,126.0938 21.9375,126.0938 C19.3125,126.0938 17.3125,128.1719 17.3125,130.8906 L17.3125,132.0156 C17.3125,134.5938 19.4219,136.4844 22.3125,136.4844 C23.5313,136.4844 24.6875,136.1875 25.4375,135.6406 C26.0156,135.2344 26.3438,134.7813 26.3438,134.3906 C26.3438,133.9375 25.9531,133.5469 25.4844,133.5469 C25.2656,133.5469 25.0625,133.625 24.875,133.8125 C24.4219,134.2969 24.4219,134.2969 24.2344,134.3906 C23.8125,134.6563 23.125,134.7813 22.3594,134.7813 C20.3125,134.7813 19.0156,133.6875 19.0156,131.9844 L19.0156,130.8906 C19.0156,129.1094 20.2656,127.7969 22,127.7969 C22.5781,127.7969 23.1875,127.9531 23.6563,128.2031 C24.1406,128.4844 24.3125,128.7031 24.4063,129.1094 C24.4688,129.5156 24.5,129.6406 24.6406,129.7656 C24.7813,129.9063 25.0156,130.0156 25.2344,130.0156 C25.5,130.0156 25.7656,129.875 25.9375,129.6563 C26.0469,129.5 26.0781,129.3125 26.0781,128.8906 L26.0781,127.4688 C26.0781,127.0313 26.0625,126.9063 25.9688,126.75 C25.8125,126.4844 25.5313,126.3438 25.2344,126.3438 C24.9375,126.3438 24.7344,126.4375 24.5156,126.75 L24.3438,126.6719 Z " fill="#000000"/><text fill="#000000" font-family="sans-serif" font-size="14" lengthAdjust="spacing" textLength="28" x="36" y="135.8467">SPN</text><line style="stroke:#181818;stroke-width:0.5;" x1="8" x2="66" y1="147" y2="147"/><line style="stroke:#181818;stroke-width:0.5;" x1="8" x2="66" y1="155" y2="155"/></g><!--MD5=[2ae4bcd515457a80f1b14dd6bd1171b4]
class BN--><g id="elem_BN"><rect fill="#F1F1F1" height="48" id="BN" rx="2.5" ry="2.5" style="stroke:#181818;stroke-width:0.5;" width="52" x="102" y="115"/><ellipse cx="117" cy="131" fill="#ADD1B2" rx="11" ry="11" style="stroke:#181818;stroke-width:1.0;"/><path d="M119.3438,126.6719 C118.4063,126.2344 117.8125,126.0938 116.9375,126.0938 C114.3125,126.0938 112.3125,128.1719 112.3125,130.8906 L112.3125,132.0156 C112.3125,134.5938 114.4219,136.4844 117.3125,136.4844 C118.5313,136.4844 119.6875,136.1875 120.4375,135.6406 C121.0156,135.2344 121.3438,134.7813 121.3438,134.3906 C121.3438,133.9375 120.9531,133.5469 120.4844,133.5469 C120.2656,133.5469 120.0625,133.625 119.875,133.8125 C119.4219,134.2969 119.4219,134.2969 119.2344,134.3906 C118.8125,134.6563 118.125,134.7813 117.3594,134.7813 C115.3125,134.7813 114.0156,133.6875 114.0156,131.9844 L114.0156,130.8906 C114.0156,129.1094 115.2656,127.7969 117,127.7969 C117.5781,127.7969 118.1875,127.9531 118.6563,128.2031 C119.1406,128.4844 119.3125,128.7031 119.4063,129.1094 C119.4688,129.5156 119.5,129.6406 119.6406,129.7656 C119.7813,129.9063 120.0156,130.0156 120.2344,130.0156 C120.5,130.0156 120.7656,129.875 120.9375,129.6563 C121.0469,129.5 121.0781,129.3125 121.0781,128.8906 L121.0781,127.4688 C121.0781,127.0313 121.0625,126.9063 120.9688,126.75 C120.8125,126.4844 120.5313,126.3438 120.2344,126.3438 C119.9375,126.3438 119.7344,126.4375 119.5156,126.75 L119.3438,126.6719 Z " fill="#000000"/><text fill="#000000" font-family="sans-serif" font-size="14" lengthAdjust="spacing" textLength="20" x="131" y="135.8467">BN</text><line style="stroke:#181818;stroke-width:0.5;" x1="103" x2="153" y1="147" y2="147"/><line style="stroke:#181818;stroke-width:0.5;" x1="103" x2="153" y1="155" y2="155"/></g><!--MD5=[a0f50d086a4fc67c74a8886285c4ee65]
reverse link NetworkType to SPN--><g id="link_NetworkType_SPN"><path codeLine="2" d="M64.3503,73.5748 C58.4205,87.5428 52.0188,102.6224 46.9007,114.6784 " fill="none" id="NetworkType-backto-SPN" style="stroke:#181818;stroke-width:1.0;"/><polygon fill="none" points="57.9767,70.6747,72.2357,55,70.8636,76.1456,57.9767,70.6747" style="stroke:#181818;stroke-width:1.0;"/></g><!--MD5=[8b3aa38a98d708493ec55897aeda3456]
reverse link NetworkType to BN--><g id="link_NetworkType_BN"><path codeLine="3" d="M100.0419,73.5748 C106.1035,87.5428 112.647,102.6224 117.879,114.6784 " fill="none" id="NetworkType-backto-BN" style="stroke:#181818;stroke-width:1.0;"/><polygon fill="none" points="93.5218,76.134,91.9813,55,106.3647,70.5607,93.5218,76.134" style="stroke:#181818;stroke-width:1.0;"/></g><!--MD5=[b6cc42a667fe129d5acaf75f13579c01]
@startuml
abstract class  NetworkType
NetworkType <|- - SPN
NetworkType <|- - BN
@enduml

PlantUML version 1.2022.3beta2(Unknown compile time)
(GPL source distribution)
Java Runtime: Java(TM) SE Runtime Environment
JVM: Java HotSpot(TM) 64-Bit Server VM
Default Encoding: UTF-8
Language: en
Country: US
--></g></svg>