<?xml version="1.0" encoding="UTF-8" standalone="no"?>
<svg xmlns="http://www.w3.org/2000/svg" xmlns:xlink="http://www.w3.org/1999/xlink" contentStyleType="text/css" height="451px" preserveAspectRatio="none" style="width:422px;height:451px;background:#FFFFFF;" version="1.1" viewBox="0 0 422 451" width="422px" zoomAndPan="magnify"><defs/><g><!--MD5=[bece8b4c4229b3549b4a8159d27930ed]
class Scope--><g id="elem_Scope"><rect codeLine="1" fill="#F1F1F1" height="48" id="Scope" rx="2.5" ry="2.5" style="stroke:#181818;stroke-width:0.5;" width="77" x="320.5" y="396"/><ellipse cx="335.5" cy="412" fill="#ADD1B2" rx="11" ry="11" style="stroke:#181818;stroke-width:1.0;"/><path d="M337.8438,407.6719 C336.9063,407.2344 336.3125,407.0938 335.4375,407.0938 C332.8125,407.0938 330.8125,409.1719 330.8125,411.8906 L330.8125,413.0156 C330.8125,415.5938 332.9219,417.4844 335.8125,417.4844 C337.0313,417.4844 338.1875,417.1875 338.9375,416.6406 C339.5156,416.2344 339.8438,415.7813 339.8438,415.3906 C339.8438,414.9375 339.4531,414.5469 338.9844,414.5469 C338.7656,414.5469 338.5625,414.625 338.375,414.8125 C337.9219,415.2969 337.9219,415.2969 337.7344,415.3906 C337.3125,415.6563 336.625,415.7813 335.8594,415.7813 C333.8125,415.7813 332.5156,414.6875 332.5156,412.9844 L332.5156,411.8906 C332.5156,410.1094 333.7656,408.7969 335.5,408.7969 C336.0781,408.7969 336.6875,408.9531 337.1563,409.2031 C337.6406,409.4844 337.8125,409.7031 337.9063,410.1094 C337.9688,410.5156 338,410.6406 338.1406,410.7656 C338.2813,410.9063 338.5156,411.0156 338.7344,411.0156 C339,411.0156 339.2656,410.875 339.4375,410.6563 C339.5469,410.5 339.5781,410.3125 339.5781,409.8906 L339.5781,408.4688 C339.5781,408.0313 339.5625,407.9063 339.4688,407.75 C339.3125,407.4844 339.0313,407.3438 338.7344,407.3438 C338.4375,407.3438 338.2344,407.4375 338.0156,407.75 L337.8438,407.6719 Z " fill="#000000"/><text fill="#000000" font-family="sans-serif" font-size="14" lengthAdjust="spacing" textLength="45" x="349.5" y="416.8467">Scope</text><line style="stroke:#181818;stroke-width:0.5;" x1="321.5" x2="396.5" y1="428" y2="428"/><line style="stroke:#181818;stroke-width:0.5;" x1="321.5" x2="396.5" y1="436" y2="436"/></g><!--MD5=[2b7409a316d9d2e410653e6983353aed]
class Module--><g id="elem_Module"><rect codeLine="3" fill="#F1F1F1" height="80.5938" id="Module" rx="2.5" ry="2.5" style="stroke:#181818;stroke-width:0.5;" width="170" x="120" y="7"/><ellipse cx="174.75" cy="23" fill="#A9DCDF" rx="11" ry="11" style="stroke:#181818;stroke-width:1.0;"/><path d="M176.8281,24.8125 L177.2188,25.7969 L176.8281,25.7969 C176.375,25.7969 176.2656,25.8125 176.1094,25.9219 C175.8594,26.0781 175.7031,26.3594 175.7031,26.6563 C175.7031,26.9219 175.8438,27.1719 176.0625,27.3281 C176.2031,27.4531 176.4063,27.5 176.8281,27.5 L179.1875,27.5 C179.5469,27.5 179.7656,27.4688 179.9063,27.375 C180.1563,27.2344 180.3125,26.9375 180.3125,26.6563 C180.3125,26.375 180.1719,26.125 179.9531,25.9688 C179.7813,25.8281 179.625,25.7969 179.1563,25.7969 L175.7656,17.5938 L172.0938,17.5938 C171.6406,17.5938 171.5156,17.6094 171.3594,17.7031 C171.1094,17.875 170.9531,18.1563 170.9531,18.4375 C170.9531,18.7188 171.0938,18.9688 171.3125,19.1406 C171.4844,19.25 171.6563,19.2813 172.0938,19.2813 L173.1719,19.2813 L170.5313,25.7969 C170.1094,25.7969 169.9531,25.8125 169.7969,25.9219 C169.5469,26.0781 169.3906,26.3594 169.3906,26.6563 C169.3906,27.2188 169.7656,27.5 170.5156,27.5 L172.7813,27.5 C173.1406,27.5 173.3594,27.4688 173.4844,27.375 C173.75,27.2344 173.8906,26.9375 173.8906,26.6563 C173.8906,26.375 173.7656,26.125 173.5469,25.9531 C173.375,25.8281 173.2344,25.7969 172.7813,25.7969 L172.3906,25.7969 L172.7813,24.8125 L176.8281,24.8125 Z M176.125,23.1094 L173.4531,23.1094 L174.7969,19.8438 L176.125,23.1094 Z " fill="#000000"/><text fill="#000000" font-family="sans-serif" font-size="14" font-style="italic" lengthAdjust="spacing" textLength="52" x="195.25" y="27.8467">Module</text><line style="stroke:#181818;stroke-width:0.5;" x1="121" x2="289" y1="39" y2="39"/><text fill="#000000" font-family="sans-serif" font-size="14" lengthAdjust="spacing" textLength="158" x="126" y="55.9951">children : List[Module]</text><text fill="#000000" font-family="sans-serif" font-size="14" lengthAdjust="spacing" textLength="73" x="126" y="72.292">n_out : int</text><line style="stroke:#181818;stroke-width:0.5;" x1="121" x2="289" y1="79.5938" y2="79.5938"/></g><!--MD5=[3fee75583bb7a64f68d843a3c9534ab3]
class Node--><g id="elem_Node"><rect codeLine="8" fill="#F1F1F1" height="64.2969" id="Node" rx="2.5" ry="2.5" style="stroke:#181818;stroke-width:0.5;" width="170" x="120" y="148"/><ellipse cx="182.25" cy="164" fill="#A9DCDF" rx="11" ry="11" style="stroke:#181818;stroke-width:1.0;"/><path d="M184.3281,165.8125 L184.7188,166.7969 L184.3281,166.7969 C183.875,166.7969 183.7656,166.8125 183.6094,166.9219 C183.3594,167.0781 183.2031,167.3594 183.2031,167.6563 C183.2031,167.9219 183.3438,168.1719 183.5625,168.3281 C183.7031,168.4531 183.9063,168.5 184.3281,168.5 L186.6875,168.5 C187.0469,168.5 187.2656,168.4688 187.4063,168.375 C187.6563,168.2344 187.8125,167.9375 187.8125,167.6563 C187.8125,167.375 187.6719,167.125 187.4531,166.9688 C187.2813,166.8281 187.125,166.7969 186.6563,166.7969 L183.2656,158.5938 L179.5938,158.5938 C179.1406,158.5938 179.0156,158.6094 178.8594,158.7031 C178.6094,158.875 178.4531,159.1563 178.4531,159.4375 C178.4531,159.7188 178.5938,159.9688 178.8125,160.1406 C178.9844,160.25 179.1563,160.2813 179.5938,160.2813 L180.6719,160.2813 L178.0313,166.7969 C177.6094,166.7969 177.4531,166.8125 177.2969,166.9219 C177.0469,167.0781 176.8906,167.3594 176.8906,167.6563 C176.8906,168.2188 177.2656,168.5 178.0156,168.5 L180.2813,168.5 C180.6406,168.5 180.8594,168.4688 180.9844,168.375 C181.25,168.2344 181.3906,167.9375 181.3906,167.6563 C181.3906,167.375 181.2656,167.125 181.0469,166.9531 C180.875,166.8281 180.7344,166.7969 180.2813,166.7969 L179.8906,166.7969 L180.2813,165.8125 L184.3281,165.8125 Z M183.625,164.1094 L180.9531,164.1094 L182.2969,160.8438 L183.625,164.1094 Z " fill="#000000"/><text fill="#000000" font-family="sans-serif" font-size="14" font-style="italic" lengthAdjust="spacing" textLength="37" x="202.75" y="168.8467">Node</text><line style="stroke:#181818;stroke-width:0.5;" x1="121" x2="289" y1="180" y2="180"/><text fill="#000000" font-family="sans-serif" font-size="14" lengthAdjust="spacing" textLength="158" x="126" y="196.9951">children : List[Module]</text><line style="stroke:#181818;stroke-width:0.5;" x1="121" x2="289" y1="204.2969" y2="204.2969"/></g><!--MD5=[540ad19034418cbb219aa4b2bc3e4d03]
class SumNode--><g id="elem_SumNode"><rect codeLine="14" fill="#F1F1F1" height="48" id="SumNode" rx="2.5" ry="2.5" style="stroke:#181818;stroke-width:0.5;" width="100" x="7" y="280"/><ellipse cx="22" cy="296" fill="#ADD1B2" rx="11" ry="11" style="stroke:#181818;stroke-width:1.0;"/><path d="M24.3438,291.6719 C23.4063,291.2344 22.8125,291.0938 21.9375,291.0938 C19.3125,291.0938 17.3125,293.1719 17.3125,295.8906 L17.3125,297.0156 C17.3125,299.5938 19.4219,301.4844 22.3125,301.4844 C23.5313,301.4844 24.6875,301.1875 25.4375,300.6406 C26.0156,300.2344 26.3438,299.7813 26.3438,299.3906 C26.3438,298.9375 25.9531,298.5469 25.4844,298.5469 C25.2656,298.5469 25.0625,298.625 24.875,298.8125 C24.4219,299.2969 24.4219,299.2969 24.2344,299.3906 C23.8125,299.6563 23.125,299.7813 22.3594,299.7813 C20.3125,299.7813 19.0156,298.6875 19.0156,296.9844 L19.0156,295.8906 C19.0156,294.1094 20.2656,292.7969 22,292.7969 C22.5781,292.7969 23.1875,292.9531 23.6563,293.2031 C24.1406,293.4844 24.3125,293.7031 24.4063,294.1094 C24.4688,294.5156 24.5,294.6406 24.6406,294.7656 C24.7813,294.9063 25.0156,295.0156 25.2344,295.0156 C25.5,295.0156 25.7656,294.875 25.9375,294.6563 C26.0469,294.5 26.0781,294.3125 26.0781,293.8906 L26.0781,292.4688 C26.0781,292.0313 26.0625,291.9063 25.9688,291.75 C25.8125,291.4844 25.5313,291.3438 25.2344,291.3438 C24.9375,291.3438 24.7344,291.4375 24.5156,291.75 L24.3438,291.6719 Z " fill="#000000"/><text fill="#000000" font-family="sans-serif" font-size="14" lengthAdjust="spacing" textLength="68" x="36" y="300.8467">SumNode</text><line style="stroke:#181818;stroke-width:0.5;" x1="8" x2="106" y1="312" y2="312"/><line style="stroke:#181818;stroke-width:0.5;" x1="8" x2="106" y1="320" y2="320"/></g><!--MD5=[de66e0bf3b5cf0679d45b5a314dc41c5]
class ProductNode--><g id="elem_ProductNode"><rect codeLine="15" fill="#F1F1F1" height="48" id="ProductNode" rx="2.5" ry="2.5" style="stroke:#181818;stroke-width:0.5;" width="125" x="142.5" y="280"/><ellipse cx="157.5" cy="296" fill="#ADD1B2" rx="11" ry="11" style="stroke:#181818;stroke-width:1.0;"/><path d="M159.8438,291.6719 C158.9063,291.2344 158.3125,291.0938 157.4375,291.0938 C154.8125,291.0938 152.8125,293.1719 152.8125,295.8906 L152.8125,297.0156 C152.8125,299.5938 154.9219,301.4844 157.8125,301.4844 C159.0313,301.4844 160.1875,301.1875 160.9375,300.6406 C161.5156,300.2344 161.8438,299.7813 161.8438,299.3906 C161.8438,298.9375 161.4531,298.5469 160.9844,298.5469 C160.7656,298.5469 160.5625,298.625 160.375,298.8125 C159.9219,299.2969 159.9219,299.2969 159.7344,299.3906 C159.3125,299.6563 158.625,299.7813 157.8594,299.7813 C155.8125,299.7813 154.5156,298.6875 154.5156,296.9844 L154.5156,295.8906 C154.5156,294.1094 155.7656,292.7969 157.5,292.7969 C158.0781,292.7969 158.6875,292.9531 159.1563,293.2031 C159.6406,293.4844 159.8125,293.7031 159.9063,294.1094 C159.9688,294.5156 160,294.6406 160.1406,294.7656 C160.2813,294.9063 160.5156,295.0156 160.7344,295.0156 C161,295.0156 161.2656,294.875 161.4375,294.6563 C161.5469,294.5 161.5781,294.3125 161.5781,293.8906 L161.5781,292.4688 C161.5781,292.0313 161.5625,291.9063 161.4688,291.75 C161.3125,291.4844 161.0313,291.3438 160.7344,291.3438 C160.4375,291.3438 160.2344,291.4375 160.0156,291.75 L159.8438,291.6719 Z " fill="#000000"/><text fill="#000000" font-family="sans-serif" font-size="14" lengthAdjust="spacing" textLength="93" x="171.5" y="300.8467">ProductNode</text><line style="stroke:#181818;stroke-width:0.5;" x1="143.5" x2="266.5" y1="312" y2="312"/><line style="stroke:#181818;stroke-width:0.5;" x1="143.5" x2="266.5" y1="320" y2="320"/></g><!--MD5=[66148af4ccdef8153c55d160aebad70b]
class LeafNode--><g id="elem_LeafNode"><rect codeLine="16" fill="#F1F1F1" height="64.2969" id="LeafNode" rx="2.5" ry="2.5" style="stroke:#181818;stroke-width:0.5;" width="113" x="302.5" y="272"/><ellipse cx="323.35" cy="288" fill="#ADD1B2" rx="11" ry="11" style="stroke:#181818;stroke-width:1.0;"/><path d="M325.6938,283.6719 C324.7563,283.2344 324.1625,283.0938 323.2875,283.0938 C320.6625,283.0938 318.6625,285.1719 318.6625,287.8906 L318.6625,289.0156 C318.6625,291.5938 320.7719,293.4844 323.6625,293.4844 C324.8813,293.4844 326.0375,293.1875 326.7875,292.6406 C327.3656,292.2344 327.6938,291.7813 327.6938,291.3906 C327.6938,290.9375 327.3031,290.5469 326.8344,290.5469 C326.6156,290.5469 326.4125,290.625 326.225,290.8125 C325.7719,291.2969 325.7719,291.2969 325.5844,291.3906 C325.1625,291.6563 324.475,291.7813 323.7094,291.7813 C321.6625,291.7813 320.3656,290.6875 320.3656,288.9844 L320.3656,287.8906 C320.3656,286.1094 321.6156,284.7969 323.35,284.7969 C323.9281,284.7969 324.5375,284.9531 325.0063,285.2031 C325.4906,285.4844 325.6625,285.7031 325.7563,286.1094 C325.8188,286.5156 325.85,286.6406 325.9906,286.7656 C326.1313,286.9063 326.3656,287.0156 326.5844,287.0156 C326.85,287.0156 327.1156,286.875 327.2875,286.6563 C327.3969,286.5 327.4281,286.3125 327.4281,285.8906 L327.4281,284.4688 C327.4281,284.0313 327.4125,283.9063 327.3188,283.75 C327.1625,283.4844 326.8813,283.3438 326.5844,283.3438 C326.2875,283.3438 326.0844,283.4375 325.8656,283.75 L325.6938,283.6719 Z " fill="#000000"/><text fill="#000000" font-family="sans-serif" font-size="14" lengthAdjust="spacing" textLength="68" x="338.65" y="292.8467">LeafNode</text><line style="stroke:#181818;stroke-width:0.5;" x1="303.5" x2="414.5" y1="304" y2="304"/><text fill="#000000" font-family="sans-serif" font-size="14" lengthAdjust="spacing" textLength="101" x="308.5" y="320.9951">scope : Scope</text><line style="stroke:#181818;stroke-width:0.5;" x1="303.5" x2="414.5" y1="328.2969" y2="328.2969"/></g><!--MD5=[7b69aae758b7474db32bc331a973fd37]
reverse link Module to Node--><g id="link_Module_Node"><path codeLine="12" d="M205,108.246 C205,121.955 205,135.99 205,147.908 " fill="none" id="Module-backto-Node" style="stroke:#181818;stroke-width:1.0;"/><polygon fill="none" points="198,108.008,205,88.008,212,108.008,198,108.008" style="stroke:#181818;stroke-width:1.0;"/></g><!--MD5=[c0c3b8cc5a68f06c53818c23e5d6de4d]
link LeafNode to Scope--><g id="link_LeafNode_Scope"><path codeLine="20" d="M359,336.151 C359,353.0905 359,373.8942 359,390.417 " fill="none" id="LeafNode-to-Scope" style="stroke:#181818;stroke-width:1.0;"/><polygon fill="#181818" points="359,395.8446,363,386.8446,359,390.8446,355,386.8446,359,395.8446" style="stroke:#181818;stroke-width:1.0;"/></g><!--MD5=[cf385bef285ed533b07ca889a7d1a835]
reverse link Node to SumNode--><g id="link_Node_SumNode"><path codeLine="21" d="M151.572,225.042 C129.17,243.508 104.0364,264.227 85.313,279.661 " fill="none" id="Node-backto-SumNode" style="stroke:#181818;stroke-width:1.0;"/><polygon fill="none" points="147.385,219.421,167.27,212.101,156.29,230.224,147.385,219.421" style="stroke:#181818;stroke-width:1.0;"/></g><!--MD5=[e835b7301641b3775756ca2b56e89395]
reverse link Node to ProductNode--><g id="link_Node_ProductNode"><path codeLine="22" d="M205,232.126 C205,248.654 205,266.175 205,279.661 " fill="none" id="Node-backto-ProductNode" style="stroke:#181818;stroke-width:1.0;"/><polygon fill="none" points="198,232.101,205,212.101,212,232.101,198,232.101" style="stroke:#181818;stroke-width:1.0;"/></g><!--MD5=[c95b4a5ab3bcb4e992f1d7db76f57896]
reverse link Node to LeafNode--><g id="link_Node_LeafNode"><path codeLine="23" d="M260.207,224.735 C279.925,240.356 301.721,257.623 319.813,271.955 " fill="none" id="Node-backto-LeafNode" style="stroke:#181818;stroke-width:1.0;"/><polygon fill="none" points="255.589,230.008,244.259,212.101,264.283,219.034,255.589,230.008" style="stroke:#181818;stroke-width:1.0;"/></g><!--MD5=[edc3a4bcb88c578efa13d02100024521]
@startuml
class Scope

abstract class Module{
  children : List[Module]
  n_out : int
}

abstract class Node{
  children : List[Module]
}

Module <|- - Node

class SumNode
class ProductNode
class LeafNode {
  scope : Scope
}

LeafNode - -> Scope
Node <|- - SumNode
Node <|- - ProductNode
Node <|- - LeafNode
@enduml

PlantUML version 1.2022.3beta2(Unknown compile time)
(GPL source distribution)
Java Runtime: Java(TM) SE Runtime Environment
JVM: Java HotSpot(TM) 64-Bit Server VM
Default Encoding: UTF-8
Language: en
Country: US
--></g></svg>